<svg xmlns="http://www.w3.org/2000/svg" viewBox="0 0 20 40">
  <path fill="#000" fill-rule="evenodd" d="M0 36v-1l.3-.3c.4-.4.4-1 0-1.4L0 33V11l.3-.3c.4-.4.4-1 0-1.4L0 9V6c0-.6.4-1 1-1h4V1c0-.6.4-1 1-1h8c.6 0 1 .4 1 1v4h4c.6 0 1 .4 1 1v3l-.3.3a1 1 0 0 0 0 1.4l.3.3v22l-.3.3a1 1 0 0 0 0 1.4l.3.3v1c0 .6-.4 1-1 1h-6v1c0 .6-.4 1-1 1 0 .6-.4 1-1 1H9a1 1 0 0 1-1-1 1 1 0 0 1-1-1v-1H1a1 1 0 0 1-1-1zM8 7a1 1 0 0 0 0 2h4a1 1 0 0 0 0-2H8zM2 30c0 .6.4 1 1 1h1c.6 0 1-.4 1-1v-6c0-.6.4-1 1-1h1c.6 0 1-.4 1-1v-9c0-.6-.4-1-1-1H3a1 1 0 0 0-1 1v17zm16 0V13c0-.6-.4-1-1-1h-4a1 1 0 0 0-1 1v9c0 .6.4 1 1 1h1c.6 0 1 .4 1 1v6c0 .6.4 1 1 1h1c.6 0 1-.4 1-1zM8 29c.6 0 1 .4 1 1s-.4 1-1 1a1 1 0 0 1 0-2zm4 0c.6 0 1 .4 1 1s-.4 1-1 1a1 1 0 0 1 0-2z"/>
</svg>
