<svg xmlns="http://www.w3.org/2000/svg" viewBox="0 0 20 40">
  <path fill="#000" fill-rule="evenodd" d="M0 36v-3l.3-.3c.4-.4.4-1 0-1.4L0 31V13l.3-.3c.4-.4.4-1 0-1.4L0 11V9.5c0-.3.1-.6.4-.8L5 5V1c0-.6.4-1 1-1h8c.6 0 1 .4 1 1v4l4.6 3.7c.3.2.4.5.4.8V11l-.3.3a1 1 0 0 0 0 1.4l.3.3v18l-.3.3a1 1 0 0 0 0 1.4l.3.3v3c0 .6-.4 1-1 1h-6v1c0 .6-.4 1-1 1 0 .6-.4 1-1 1H9a1 1 0 0 1-1-1 1 1 0 0 1-1-1v-1H1a1 1 0 0 1-1-1zm2-6c0 .6.4 1 1 1h1c.6 0 1-.4 1-1v-7.2c0-1.1.6-2.2 1.5-2.8 1-.6 1.5-1.7 1.5-2.8V16c0-.6-.4-1-1-1H3a1 1 0 0 0-1 1v14zm16 0V16c0-.6-.4-1-1-1h-4a1 1 0 0 0-1 1v1.2c0 1.1.6 2.2 1.5 2.8 1 .6 1.5 1.7 1.5 2.8V30c0 .6.4 1 1 1h1c.6 0 1-.4 1-1zM8 25a1 1 0 0 0-1 1v4a1 1 0 1 0 2 0v-4c0-.6-.4-1-1-1zm4 0a1 1 0 0 0-1 1v4a1 1 0 1 0 2 0v-4c0-.6-.4-1-1-1zm-9 8a1 1 0 1 0 0 2h14a1 1 0 1 0 0-2H3z"/>
</svg>
