<svg xmlns="http://www.w3.org/2000/svg" viewBox="0 0 20 40">
  <path fill="#000" fill-rule="evenodd" d="M0 36v-3l.3-.3c.4-.4.4-1 0-1.4L0 31V11l.3-.3c.4-.4.4-1 0-1.4L0 9V7.7c0-.4.2-.8.6-1L5 5V1c0-.6.4-1 1-1h8c.6 0 1 .4 1 1v4l4.4 1.7c.4.2.6.6.6 1V9l-.3.3a1 1 0 0 0 0 1.4l.3.3v20l-.3.3a1 1 0 0 0 0 1.4l.3.3v3c0 .6-.4 1-1 1h-6v1c0 .6-.4 1-1 1 0 .6-.4 1-1 1H9a1 1 0 0 1-1-1 1 1 0 0 1-1-1v-1H1a1 1 0 0 1-1-1zm2-6c0 .6.4 1 1 1h1c.6 0 1-.4 1-1V20c0-.6.4-1 1-1h1c.6 0 1-.4 1-1v-5c0-.6-.4-1-1-1H3a1 1 0 0 0-1 1v17zm16 0V13c0-.6-.4-1-1-1h-4a1 1 0 0 0-1 1v5c0 .6.4 1 1 1h1c.6 0 1 .4 1 1v10c0 .6.4 1 1 1h1c.6 0 1-.4 1-1zm-9-1a1 1 0 0 0 0 2h2a1 1 0 0 0 0-2H9zm-1 4a1 1 0 0 0 0 2h4a1 1 0 0 0 0-2H8z"/>
</svg>
