<svg xmlns="http://www.w3.org/2000/svg" viewBox="0 0 34 30">
  <g fill="none" fill-rule="evenodd" transform="translate(-1 -1)">
    <rect width="34" height="30" x="1" y="1" fill="#1A1A1A" rx="1"/>
    <g stroke="#FFF" stroke-linejoin="round" stroke-width=".25">
      <path d="M6 6l2-2-4-2zM12 4l4-2v4zM24 2l4 2-6 6zM30 8l4 6-6-2zM32 20l-2-4-4 6zM30 26l-2 2-4-4zM20 28l-4 2 2-6zM10 30l-4-2 6-4z"/>
      <path d="M6 28l2-4h4zM4 22v-4l4 2zM2 12l4-4-2 6z"/>
    </g>
    <path fill="#F73" d="M16 28l-2-8-6 6z"/>
    <path fill="#F63" d="M8 26l-2-8 8 2z"/>
    <path fill="#F93" d="M6 18L8 8l8 6-2 6z"/>
    <path fill="#FA3" d="M8 8l8 6 6-10z"/>
    <path fill="#FB3" d="M22 4l8 4v10l-8-8-6 4z"/>
    <path fill="#F93" d="M26 28l4-10-8-8-6 4-2 6 2 8z"/>
    <g stroke="#1A1A1A" stroke-linejoin="round" stroke-width=".25">
      <path d="M8 14v6l4 4 6 2 6-2 2-8-4-10-8 2z"/>
      <path d="M12 22l6 2 8-2 2-6-2-6-6-2-6 2-4 4z"/>
    </g>
    <g>
      <path fill="#1A1A1A" stroke="#FFF" stroke-width=".1" d="M18.48 8.96h.05l6.08 3.54-.02 7.04-6.12 3.5-6.08-3.54.02-7.04 6.07-3.5z"/>
      <path fill="#FFF" d="M16.11 16.47a7.61 7.61 0 0 0-.01.82.13.13 0 0 1-.06.04h-.08a.13.13 0 0 1-.08-.05.22.22 0 0 1-.04-.12l-.01-.2v-.53l.02-.27v-.24-.16l-.03-.07v-.03l.03-.03.06-.03.07-.01.06.01a.1.1 0 0 1 .05.05c.02.06.04.13.04.2 0 .2 0 .42-.02.62zm.5-.28a.54.54 0 0 0 .04-.2.7.7 0 0 0-.17-.52.52.52 0 0 0-.74 0 .85.85 0 0 0-.23.66c0 .07.02.14.06.2a.3.3 0 0 0 .12.14v.04a.16.16 0 0 1-.04.05.14.14 0 0 1-.06.04c-.02.02-.05.02-.07 0a.37.37 0 0 1-.13-.1.44.44 0 0 1-.08-.14.56.56 0 0 1-.03-.16c0-.15.04-.3.11-.42.08-.17.2-.3.35-.42a.71.71 0 0 1 .22-.11.8.8 0 0 1 .34-.06c.13 0 .26.05.37.12l.1.07c.08.08.14.17.17.27.04.14.04.28 0 .4a.88.88 0 0 1-.46.57l-.03.01-.03.01a.52.52 0 0 1-.16.03h-.03l-.01-.03c0-.02 0-.04.02-.04a.58.58 0 0 0 .16-.1c.1-.08.17-.19.22-.31zm.49-1.2v-.12l.02-.06v-.04c0-.01 0-.02.03-.03.06-.01.12 0 .17.02.03.02.06.05.07.08v.04a.87.87 0 0 0-.02.13v.04c0 .01 0 .03-.03.03l-.08.01a.36.36 0 0 1-.1-.03.16.16 0 0 1-.06-.08zm.09 3.55h.03l.03.04a.1.1 0 0 1 0 .05.2.2 0 0 1-.03.1c0 .02-.03.03-.04.03h-.04l-.05-.02-.06-.02-.05-.03-.02-.01a.72.72 0 0 1-.5.3h-.17a.28.28 0 0 1-.2-.17.33.33 0 0 1-.02-.12.55.55 0 0 1 .08-.3l.01-.02c-.2.1-.41.18-.64.23-.27.06-.55.04-.81-.05-.12-.05-.23-.11-.33-.2a1.34 1.34 0 0 1-.2-.24c-.1-.16-.16-.35-.18-.54-.01-.33.1-.66.3-.92a1.14 1.14 0 0 1-.09-1.12c.29-.63 1.08-.67 1.08-.67a1.43 1.43 0 0 1 1.28-1.45 1.6 1.6 0 0 1 1.36.45s.24-.25.87-.28c.62-.04 1.11.43 1.17.89.03.23 0 .46-.07.67l-.02.06-.02.03v.02c-.06.1-.12.2-.2.28l-.02.03c-.25.32-.45.2-.52.1l-.14-.2-.08-.1c-.04-.04-.08-.07-.1-.07l-.05.05-.03.03c-.02.14-.04.28-.04.41v.14c0 .02 0 .05.02.07v.04a.13.13 0 0 1-.06.04h-.08a.16.16 0 0 1-.09-.07.25.25 0 0 1-.03-.13v-.19l-.09.2a.9.9 0 0 1-.11.15.43.43 0 0 1-.14.12.33.33 0 0 1-.17.03.24.24 0 0 1-.16-.06.38.38 0 0 1-.1-.13l-.03-.1-.03.12-.06.17a.77.77 0 0 1-.08.14.2.2 0 0 1-.1.08.18.18 0 0 1-.08 0 .13.13 0 0 1-.07-.04.27.27 0 0 1-.06-.08.47.47 0 0 1-.03-.11 2.3 2.3 0 0 1-.02-.35l.02-.18.01-.15v-.12c0-.03-.01-.05-.02-.05v-.05a.2.2 0 0 1 .17-.05c.04 0 .07.03.1.07.02.05.04.1.04.16l-.01.21-.04.23-.04.2v.14c.01.03.03.04.07.03.1-.2.17-.4.2-.61l.02-.1c.02-.14.06-.26.12-.38.06-.1.16-.18.27-.21l.06-.01h.07l.05.04c.02.02.04.04.04.07.01.02.01.04 0 .07 0 .01-.02.03-.04.03h-.05c-.02 0-.03-.02-.04-.04v-.03l.02-.04-.04-.01a.13.13 0 0 0-.06.05.46.46 0 0 0-.06.1l-.07.4c0 .1 0 .2.03.3 0 .04.02.08.05.11.01.03.04.05.08.04a.2.2 0 0 0 .1-.05.46.46 0 0 0 .09-.1c.1-.2.17-.4.2-.62a19.35 19.35 0 0 1 .06-.65v-.13c0-.04 0-.07-.02-.08v-.04a.2.2 0 0 1 .17-.05c.05 0 .08.03.1.07.02.04.03.1.03.15v.1c0 .05 0 .14-.02.2v.03c0 .11-.02.22-.04.33l.09-.11.23-.4.04-.09.01-.06c0-.02 0-.03.03-.03s.05.01.08.03a.2.2 0 0 1 .08.06c.02.03.03.07.01.11a.53.53 0 0 1-.05.13.9.9 0 0 1-.1.12l-.12.12-.13.11.26.24c.33.29.6-.26.6-.26l.01-.03.06-.12.02-.07c.1-.45-.03-.79-.37-1.02l.02.01c-.35-.24-.8-.29-1.19-.12-.15.07-.3.16-.42.27-.3-.37-.75-.56-1.22-.51-.8.07-1.28.74-1.2 1.5 0 0-.66-.08-.98.35-.31.42-.15.96 0 1.23-.27.29-.4.7-.32 1.09.02.14.08.28.16.4.11.13.25.23.41.3l.07.03c.2.07.42.1.63.07.28-.08.54-.17.8-.29l.03-.04a.93.93 0 0 1-.2-.21.34.34 0 0 1-.07-.23c.01-.1.05-.2.13-.27a.38.38 0 0 1 .25-.12c.04 0 .08 0 .12.02.07.02.12.08.15.15.02.03.02.07.03.1l-.01.14a.97.97 0 0 1-.15.31l.04.04a1 1 0 0 1 .22-.03c.35 0 .31.28.27.37l.02.01.12.04zm-.95-.86c-.06.09 0 .23.15.38a.16.16 0 0 0 .04-.04l.02-.05.03-.06.03-.1v-.08l-.01-.08-.02-.04a.06.06 0 0 0-.04-.02h-.07a.19.19 0 0 0-.13.1zm.35 1.08a.45.45 0 0 0 .18-.16l-.1-.05-.3-.21a.44.44 0 0 0-.05.1l-.03.09v.09l.01.07.05.06.06.03h.08l.1-.02zm.3-.33v-.04a.15.15 0 0 0-.01-.12c-.03-.05-.1-.07-.19-.07h-.04v.01l-.05.01.28.21zm3.2-2.74a.13.13 0 0 0-.14 0c-.11.07-.22.23-.32.47a14.64 14.64 0 0 0-.37 1.37c-.07.27-.19.52-.34.76-.08.11-.17.19-.24.21a.13.13 0 0 1-.06.01c-.05.01-.1 0-.14-.04a.24.24 0 0 1-.05-.1 1.67 1.67 0 0 1-.03-.36c.02-.2.03-.41.03-.62 0-.12 0-.25-.03-.38a.57.57 0 0 0-.15-.3.5.5 0 0 0-.48-.1.61.61 0 0 0-.2.1c-.1.1-.17.2-.21.33a.98.98 0 0 0-.02.4.5.5 0 0 0 .07.2c.04.04.09.08.14.1.05 0 .12 0 .19-.05.02-.01.03 0 .04.02v.1a.3.3 0 0 1-.05.1.2.2 0 0 1-.13.09.32.32 0 0 1-.3-.1.49.49 0 0 1-.1-.14.64.64 0 0 1-.05-.19.95.95 0 0 1 .1-.6c.11-.18.26-.32.44-.43a.95.95 0 0 1 .57-.14.6.6 0 0 1 .33.16l.09.13c.04.12.07.24.08.36v.39l-.02.2c-.02.15-.02.31 0 .47 0 .04.01.07.03.09.02.02.04.02.06.02l.06-.04.1-.2.09-.18c.1-.28.18-.56.24-.85l.06-.26c.06-.3.17-.6.33-.86a.74.74 0 0 1 .2-.22.54.54 0 0 1 .24-.08h.12c.04.01.08.04.1.07.01.02.02.04.01.06l-.03.07-.06.07-.06.05-.06.01c-.01 0-.02-.01-.02-.04s0-.05-.02-.08a.1.1 0 0 0-.05-.05zm.94-1.77s.46-.16.93-.12c.47.04 1.17.59 1.17 1.4 0 .8-.46 1.21-.46 1.21a.41.41 0 0 1-.12.09.26.26 0 0 1-.16.04.23.23 0 0 1-.17-.06.37.37 0 0 1-.1-.13.42.42 0 0 1-.03-.1c-.02.06-.03.12-.06.17a.9.9 0 0 1-.07.15.66.66 0 0 1-.26.25.85.85 0 0 1-.2.07l-.04.01h-.12a.15.15 0 0 1-.1-.1.08.08 0 0 1 0-.07l.03-.04h.06l.03.04c.02.03 0 .06-.01.08 0 .01.03.02.05 0a.1.1 0 0 0 .05-.04.56.56 0 0 0 .05-.11c.04-.13.06-.26.07-.39 0-.1 0-.2-.03-.3a.36.36 0 0 0-.06-.12c-.01-.03-.04-.04-.08-.04l-.07.04-.06.1-.08.28a20.86 20.86 0 0 1-.1 1.18v.2c0 .04 0 .08.03.11v.04l-.05.04h-.08a.16.16 0 0 1-.1-.07.26.26 0 0 1-.03-.13l-.01-.22.02-.5a.71.71 0 0 1-.1.21.2.2 0 0 1-.1.09.13.13 0 0 1-.15-.03.33.33 0 0 1-.1-.17c0 .05-.02.1-.04.16a.62.62 0 0 1-.07.12.28.28 0 0 1-.1.08.28.28 0 0 1-.14.02.23.23 0 0 1-.16-.06.38.38 0 0 1-.1-.13.5.5 0 0 1-.04-.17c-.02-.15 0-.3.03-.45a.67.67 0 0 1 .08-.2.5.5 0 0 1 .26-.22l.06-.01h.07c.02 0 .04.02.06.04.02.01.03.04.04.06.01.03.01.05 0 .07l-.04.05h-.05c-.02-.01-.04-.03-.04-.05v-.03l.01-.04c0-.01-.02-.02-.04-.01a.11.11 0 0 0-.06.05l-.05.11a2.7 2.7 0 0 0-.07.39c0 .1 0 .2.03.3l.06.11c.02.03.04.05.08.05.02 0 .04-.01.06-.04a.2.2 0 0 0 .04-.08 2.3 2.3 0 0 0 .1-.56l.01-.16.01-.13v-.1c0-.03-.02-.04-.03-.05v-.03c.02-.03.05-.04.07-.05a.2.2 0 0 1 .1-.01c.04 0 .07.03.1.06.03.05.04.1.04.16v.21l-.03.23-.03.2v.14c0 .03.03.04.06.02a.12.12 0 0 0 .04-.05 3.36 3.36 0 0 0 .15-.56l.01-.03c.02-.13.02-.26.01-.39 0-.05-.01-.08-.02-.08v-.04a.14.14 0 0 1 .07-.04.2.2 0 0 1 .1-.01c.04 0 .07.03.1.06l.02.07a.57.57 0 0 1 .13-.21.28.28 0 0 1 .22-.08c.06 0 .12.02.17.06.04.04.07.08.09.13a.6.6 0 0 1 .05.17c.02.15 0 .31-.03.46a.76.76 0 0 1-.1.21c.07-.04.12-.1.16-.16a2.34 2.34 0 0 0 .23-.8l.09-.2c.03-.06.07-.11.12-.15a.43.43 0 0 1 .15-.09.18.18 0 0 1 .13 0c.03.02.06.05.07.1.02.04.02.1.02.14a.75.75 0 0 1-.33.54c0 .04 0 .08.02.13l.03.1.05.07.06.02a.2.2 0 0 0 .1-.06.28.28 0 0 0 .07-.08c.37-.32.56-1.64-.27-2.05a1.64 1.64 0 0 0-1.56.09s0-.95-.77-1.35c-.76-.39-1.56.04-1.56.04a1.43 1.43 0 0 0-1.34-.83c-1.17 0-1.46 1.12-1.46 1.12 0-.38.4-1.28 1.46-1.28s1.44.71 1.44.71c.53-.24 1.25-.28 1.78.16.52.43.63 1.05.63 1.05zm1.39 1.63c-.05.13-.07.26-.07.39v.05c.12-.1.2-.25.24-.41v-.15c-.02-.04-.04-.05-.07-.04-.04 0-.08.06-.1.16z"/>
    </g>
  </g>
</svg>
