<svg viewBox="0 0 18 16" xmlns="http://www.w3.org/2000/svg"><g fill="none" fill-rule="evenodd"><rect fill="#1a1a1a" height="16" rx="1" width="18"/><g stroke="#fff" stroke-linejoin="round" stroke-width=".25"><path d="m3 3 1-1-2-1zm3-1 2-1v2zm6-1 2 1-3 3zm3 3 2 3-3-1zm1 6-1-2-2 3zm-1 3-1 1-2-2zm-5 1-2 1 1-3zm-5 1-2-1 3-2z"/><path d="m3 14 1-2h2zm-1-3v-2l2 1zm-1-5 2-2-1 3z"/></g><path d="m8 14-1-4-3 3z" fill="#f73"/><path d="m4 13-1-4 4 1z" fill="#f63"/><path d="m3 9 1-5 4 3-1 3z" fill="#f93"/><path d="m4 4 4 3 3-5z" fill="#fa3"/><path d="m11 2 4 2v5l-4-4-3 2z" fill="#fb3"/><path d="m13 14 2-5-4-4-3 2-1 3 1 4z" fill="#f93"/><g stroke="#1a1a1a" stroke-linejoin="round" stroke-width=".25"><path d="m4 7v3l2 2 3 1 3-1 1-4-2-5-4 1z"/><path d="m6 11 3 1 4-1 1-3-1-3-3-1-3 1-2 2z"/></g><path d="m9.22 4.46h.05l3.06 1.79-.02 3.54-3.09 1.75-3.05-1.79.02-3.54z" fill="#1a1a1a" stroke="#fff" stroke-width=".1"/><path d="m8.06 8.24a3.8 3.8 0 0 0 -.01.4c0 .02-.02.02-.03.03a.1.1 0 0 1 -.04 0 .06.06 0 0 1 -.04-.03.11.11 0 0 1 -.02-.06v-.62-.08l-.01-.04c0-.01 0-.02.02-.02l.03-.02h.06l.02.02a4.5 4.5 0 0 1 .01.41zm.25-.15a.27.27 0 0 0 .02-.1.35.35 0 0 0 -.09-.26.26.26 0 0 0 -.37 0 .43.43 0 0 0 -.12.33c0 .04.02.07.03.1.01.04.04.06.06.08v.02l-.01.02-.04.02h-.03a.18.18 0 0 1 -.07-.05.22.22 0 0 1 -.04-.07.28.28 0 0 1 0-.08c0-.07.01-.15.05-.21.04-.08.1-.15.17-.2a.36.36 0 0 1 .1-.07.4.4 0 0 1 .18-.03.4.4 0 0 1 .19.06l.05.04a.3.3 0 0 1 .08.14c.02.06.02.13 0 .2a.44.44 0 0 1 -.23.28h-.01l-.02.01a.26.26 0 0 1 -.08.01h-.03v-.01-.02a.3.3 0 0 0 .09-.05c.05-.04.09-.1.1-.16zm.24-.6v-.05l.01-.04v-.02h.01c.03-.02.07-.01.1 0l.02.04v.11l-.02.01h-.09a.08.08 0 0 1 -.03-.05zm.05 1.78h.01l.02.02v.03a.1.1 0 0 1 -.02.05l-.02.01h-.04l-.03-.02-.03-.01-.01-.01a.36.36 0 0 1 -.25.15h-.08a.14.14 0 0 1 -.1-.09.16.16 0 0 1 -.01-.06.27.27 0 0 1 .04-.15c-.1.05-.2.09-.32.11a.74.74 0 0 1 -.4-.03.56.56 0 0 1 -.17-.1.67.67 0 0 1 -.1-.11.67.67 0 0 1 -.09-.27.7.7 0 0 1 .15-.47.57.57 0 0 1 -.04-.55c.14-.32.53-.34.53-.34 0-.37.28-.68.65-.72.4-.07.67.22.67.22s.13-.13.44-.14c.3-.02.56.21.59.45.01.1 0 .22-.04.33l-.01.03v.02h-.01a.94.94 0 0 1 -.1.15l-.01.01c-.12.16-.23.1-.26.05l-.07-.1-.04-.05-.05-.03-.03.02-.01.02-.02.2v.13l-.02.02h-.04a.08.08 0 0 1 -.04-.04.13.13 0 0 1 -.02-.07v-.09a.45.45 0 0 1 -.1.18.21.21 0 0 1 -.07.05.17.17 0 0 1 -.09.02.12.12 0 0 1 -.08-.03.19.19 0 0 1 -.04-.07l-.02-.04-.01.06-.04.08a.39.39 0 0 1 -.04.07.1.1 0 0 1 -.05.04h-.04a.07.07 0 0 1 -.03-.02.13.13 0 0 1 -.03-.04.23.23 0 0 1 -.02-.06v-.26l.01-.08v-.06l-.01-.02v-.02l.03-.02a.1.1 0 0 1 .05 0c.02 0 .04 0 .05.02.02.03.02.06.02.08v.11l-.02.12-.02.1v.06c0 .02.02.03.03.02.05-.1.09-.2.1-.3l.01-.06c.01-.06.03-.13.07-.19a.23.23 0 0 1 .13-.1h.06c.01 0 .02 0 .03.02l.02.03v.03c0 .01 0 .02-.02.02h-.02l-.02-.02v-.03l-.02-.01a.06.06 0 0 0 -.03.02.23.23 0 0 0 -.02.06l-.04.2.01.14.04.06.04.02a.1.1 0 0 0 .04-.02.23.23 0 0 0 .04-.06c.06-.1.1-.2.1-.3a9.67 9.67 0 0 1 .04-.33v-.06l-.01-.04v-.02l.03-.02a.1.1 0 0 1 .05-.01c.02 0 .04.02.05.03l.02.08v.05l-.01.1v.01l-.02.17.04-.06.12-.2.02-.04v-.03l.01-.01h.04a.1.1 0 0 1 .04.04c.01.02.02.04.01.06l-.02.06a.45.45 0 0 1 -.06.06l-.06.06-.06.06.13.11c.17.15.3-.13.3-.13l.04-.07v-.04c.05-.22-.01-.39-.18-.5h.01a.62.62 0 0 0 -.6-.06 1.1 1.1 0 0 0 -.2.13.69.69 0 0 0 -.61-.25.66.66 0 0 0 -.6.75s-.34-.04-.5.17c-.15.22-.07.48 0 .62a.63.63 0 0 0 -.16.54c.02.07.04.14.09.2.05.07.12.12.2.16h.03c.1.04.22.06.32.04.14-.03.27-.08.4-.14l.01-.02a.46.46 0 0 1 -.1-.1.17.17 0 0 1 -.03-.12c0-.05.03-.1.06-.14a.2.2 0 0 1 .13-.05h.06c.03.02.06.04.08.08v.12a.48.48 0 0 1 -.07.16l.02.01a.5.5 0 0 1 .11 0c.17-.01.16.13.13.17l.01.01zm-.48-.43c-.03.04 0 .12.08.19v-.03h.04v-.03l.02-.05v-.05-.04l-.01-.01-.02-.02h-.03a.1.1 0 0 0 -.07.05zm.17.54c.02 0 .04-.02.05-.03a.22.22 0 0 0 .04-.05l-.05-.03-.15-.1a.22.22 0 0 0 -.02.05l-.01.04v.09l.02.02.03.02h.04zm.15-.16v-.02c.02-.02.01-.05 0-.07-.02-.02-.05-.03-.1-.03h-.02l-.02.01.14.1zm1.6-1.38a.07.07 0 0 0 -.07 0c-.05.04-.1.12-.15.24l-.05.14a7.32 7.32 0 0 0 -.14.54c-.04.14-.1.27-.17.38-.04.06-.08.1-.12.11h-.04c-.02.01-.05 0-.07-.02a.12.12 0 0 1 -.03-.05.83.83 0 0 1 0-.18 4.24 4.24 0 0 0 0-.5.28.28 0 0 0 -.08-.14.25.25 0 0 0 -.25-.06.3.3 0 0 0 -.1.06.42.42 0 0 0 -.1.16l-.02.08v.12l.05.1c.01.02.04.04.07.05.02 0 .05 0 .09-.03.01 0 .02 0 .02.02a.1.1 0 0 1 0 .04l-.03.06a.1.1 0 0 1 -.05.04.16.16 0 0 1 -.15-.05.24.24 0 0 1 -.05-.07.32.32 0 0 1 -.03-.1c-.01-.1 0-.2.06-.3a.62.62 0 0 1 .21-.21.47.47 0 0 1 .3-.07.3.3 0 0 1 .15.08l.05.07a.6.6 0 0 1 .04.18v.19l-.01.1v.24c0 .01 0 .03.02.04h.03l.02-.01a3.17 3.17 0 0 0 .22-.61l.03-.14c.03-.15.09-.3.16-.42a.37.37 0 0 1 .1-.12.27.27 0 0 1 .12-.04h.07l.05.04v.03l-.02.03-.02.04-.04.02-.02.01-.01-.02a.1.1 0 0 0 -.01-.04.05.05 0 0 0 -.03-.03zm.47-.88s.23-.08.47-.06.59.3.59.7-.23.6-.23.6a.2.2 0 0 1 -.07.05.13.13 0 0 1 -.08.02c-.03 0-.06 0-.08-.03a.18.18 0 0 1 -.05-.06.21.21 0 0 1 -.01-.06l-.03.09a.45.45 0 0 1 -.04.08.33.33 0 0 1 -.13.12.43.43 0 0 1 -.1.04h-.02-.06a.08.08 0 0 1 -.05-.05v-.03c0-.01 0-.02.02-.02h.02c.01 0 .02 0 .02.02v.03h.02c.01 0 .02 0 .03-.02a.28.28 0 0 0 .02-.05l.04-.2c0-.05 0-.1-.02-.15a.18.18 0 0 0 -.03-.05c0-.02-.02-.02-.04-.02-.01 0-.02 0-.03.02l-.03.04-.04.14a10.43 10.43 0 0 1 -.05.6v.1l.01.05v.02l-.03.02h-.04a.08.08 0 0 1 -.04-.03.13.13 0 0 1 -.02-.07v-.1-.25a.36.36 0 0 1 -.05.1.1.1 0 0 1 -.05.05.06.06 0 0 1 -.07-.01.16.16 0 0 1 -.05-.09l-.02.08a.3.3 0 0 1 -.03.06.14.14 0 0 1 -.05.04.14.14 0 0 1 -.07.01c-.03 0-.06 0-.09-.03a.19.19 0 0 1 -.04-.06.25.25 0 0 1 -.03-.1c0-.07 0-.14.02-.21 0-.04.02-.07.04-.1a.25.25 0 0 1 .13-.12h.06l.03.02.02.03v.04l-.02.02h-.02l-.02-.02v-.06h-.02a.06.06 0 0 0 -.02.02.2.2 0 0 0 -.03.06c-.01.06-.03.12-.03.19l.01.15.03.06.04.02s.02 0 .03-.02a.1.1 0 0 0 .02-.04 1.15 1.15 0 0 0 .05-.28v-.08l.01-.07v-.05l-.01-.02v-.02l.03-.02a.1.1 0 0 1 .05 0c.02 0 .04 0 .05.03l.02.07v.11l-.02.12-.01.1v.06c0 .02.01.03.03.02l.02-.03.02-.05.06-.23v-.2-.06l.03-.02a.1.1 0 0 1 .05 0c.02 0 .04 0 .05.02l.01.04a.28.28 0 0 1 .07-.1.14.14 0 0 1 .1-.05c.04 0 .07.02.09.03l.04.07a.3.3 0 0 1 .03.09c0 .07 0 .15-.02.22a.38.38 0 0 1 -.04.11.24.24 0 0 0 .08-.08 1.17 1.17 0 0 0 .12-.4.5.5 0 0 1 .03-.1.34.34 0 0 1 .06-.08.22.22 0 0 1 .08-.04h.06c.02.01.04.03.04.05s.01.05 0 .07a.38.38 0 0 1 -.15.27v.06l.02.05.02.04h.04a.1.1 0 0 0 .05-.02.14.14 0 0 0 .03-.04c.18-.16.28-.82-.13-1.03-.42-.2-.79.05-.79.05s0-.48-.38-.67c-.38-.2-.78.01-.78.01a.72.72 0 0 0 -.67-.41c-.59 0-.73.56-.73.56 0-.19.2-.64.73-.64s.72.36.72.36c.27-.12.63-.14.89.07.26.22.31.53.31.53zm.7.82a.79.79 0 0 0 -.04.19v.02c.06-.05.1-.12.12-.2v-.08l-.03-.02c-.02 0-.04.04-.05.09z" fill="#fff"/></g></svg>