<svg xmlns="http://www.w3.org/2000/svg" viewBox="0 0 27 24">
  <g fill="none" fill-rule="evenodd">
    <rect width="27" height="24" fill="#1A1A1A" rx="1"/>
    <g stroke="#FFF" stroke-linejoin="round" stroke-width=".25">
      <path d="M4.5 4.5L6 3 3 1.5zM9 3l3-1.5v3zM18 1.5L21 3l-4.5 4.5zM22.5 6l3 4.5L21 9zM24 15l-1.5-3-3 4.5zM22.5 19.5L21 21l-3-3zM15 21l-3 1.5 1.5-4.5zM7.5 22.5l-3-1.5L9 18z"/>
      <path d="M4.5 21L6 18h3zM3 16.5v-3L6 15zM1.5 9l3-3L3 10.5z"/>
    </g>
    <path fill="#F73" d="M12 21l-1.5-6L6 19.5z"/>
    <path fill="#F63" d="M6 19.5l-1.5-6 6 1.5z"/>
    <path fill="#F93" d="M4.5 13.5L6 6l6 4.5-1.5 4.5z"/>
    <path fill="#FA3" d="M6 6l6 4.5L16.5 3z"/>
    <path fill="#FB3" d="M16.5 3l6 3v7.5l-6-6-4.5 3z"/>
    <path fill="#F93" d="M19.5 21l3-7.5-6-6-4.5 3-1.5 4.5 1.5 6z"/>
    <g stroke="#1A1A1A" stroke-linejoin="round" stroke-width=".25">
      <path d="M6 10.5V15l3 3 4.5 1.5L18 18l1.5-6-3-7.5-6 1.5z"/>
      <path d="M9 16.5l4.5 1.5 6-1.5L21 12l-1.5-4.5L15 6l-4.5 1.5-3 3z"/>
    </g>
    <g>
      <path fill="#1A1A1A" stroke="#FFF" stroke-width=".1" d="M13.85 6.7h.05l4.57 2.67-.02 5.3-4.6 2.62-4.57-2.66.02-5.3 4.55-2.62z"/>
      <path fill="#FFF" d="M12.09 12.35a5.71 5.71 0 0 0-.02.62.1.1 0 0 1-.04.03h-.06a.1.1 0 0 1-.06-.04.17.17 0 0 1-.03-.09V11.94v-.12l-.02-.06v-.01l.03-.03.04-.02h.1c.02 0 .03.02.04.04l.03.15-.01.46zm.37-.2a.4.4 0 0 0 .03-.15.52.52 0 0 0-.13-.4.39.39 0 0 0-.55 0 .64.64 0 0 0-.18.5c0 .05.02.1.04.15.02.04.06.08.1.1v.04l-.03.03a.1.1 0 0 1-.05.03h-.05a.28.28 0 0 1-.1-.07.33.33 0 0 1-.06-.11.42.42 0 0 1-.02-.12c0-.11.03-.22.08-.32a.85.85 0 0 1 .26-.3c.05-.05.1-.07.17-.1a.6.6 0 0 1 .26-.04c.1 0 .19.04.27.09l.08.06c.06.05.1.12.13.2.02.1.02.2 0 .3a.66.66 0 0 1-.35.42l-.02.01-.03.01a.4.4 0 0 1-.12.02h-.02v-.05a.44.44 0 0 0 .13-.07.55.55 0 0 0 .16-.24zm.36-.91l.01-.09.01-.04v-.03c0-.01 0-.02.02-.02.05-.02.1-.01.13.01a.1.1 0 0 1 .05.06v.03l-.02.1v.03s0 .02-.02.02h-.06a.27.27 0 0 1-.07-.01.12.12 0 0 1-.05-.06zm.07 2.67h.03s.02.01.02.03v.03c0 .03 0 .06-.03.08l-.02.02h-.03l-.04-.01-.05-.02-.04-.02-.01-.01a.54.54 0 0 1-.38.23h-.12a.2.2 0 0 1-.15-.13.24.24 0 0 1-.02-.1.4.4 0 0 1 .07-.22v-.01c-.15.08-.31.13-.48.17-.2.05-.41.03-.6-.04a.85.85 0 0 1-.25-.14 1 1 0 0 1-.16-.18 1 1 0 0 1-.13-.4c0-.26.07-.5.23-.7a.85.85 0 0 1-.07-.84c.21-.47.8-.5.8-.5 0-.56.42-1.03.97-1.09a1.2 1.2 0 0 1 1.02.34s.18-.2.65-.22c.46-.02.83.33.88.67.02.17 0 .35-.05.5l-.02.05-.01.03a1.4 1.4 0 0 1-.15.22l-.02.02c-.19.24-.34.15-.39.08l-.1-.15-.07-.07c-.03-.04-.06-.06-.08-.06l-.03.03-.02.03-.03.3v.1l.01.06v.03a.1.1 0 0 1-.04.03.1.1 0 0 1-.06 0 .12.12 0 0 1-.06-.05.19.19 0 0 1-.03-.1v-.14a.67.67 0 0 1-.15.27.32.32 0 0 1-.1.08.25.25 0 0 1-.13.03.18.18 0 0 1-.12-.05.28.28 0 0 1-.07-.1l-.03-.07-.02.09-.05.13-.06.1a.15.15 0 0 1-.07.06h-.06a.1.1 0 0 1-.06-.03.2.2 0 0 1-.04-.06.35.35 0 0 1-.03-.08 1.73 1.73 0 0 1 0-.26v-.14l.02-.12v-.08c0-.03-.01-.04-.02-.04v-.03a.15.15 0 0 1 .12-.04.1.1 0 0 1 .08.05c.02.03.03.07.03.12v.16l-.04.17-.02.15v.1c0 .02.02.03.04.02.08-.14.13-.3.16-.45l.01-.08c.02-.1.05-.2.1-.28a.35.35 0 0 1 .2-.16h.09l.04.02c.02.01.03.03.03.05v.06s-.01.02-.03.02h-.04l-.03-.03v-.02l.02-.03-.03-.01a.1.1 0 0 0-.05.04.34.34 0 0 0-.04.08 2 2 0 0 0-.05.29c-.01.07 0 .15.02.23 0 .03.02.05.03.08l.06.03c.03 0 .06-.02.07-.03a.34.34 0 0 0 .08-.08c.08-.15.13-.3.15-.47a14.51 14.51 0 0 1 .05-.49v-.09c0-.04-.01-.06-.02-.06v-.03a.15.15 0 0 1 .12-.04.1.1 0 0 1 .08.05c.02.04.02.07.02.11V11.15l-.04.25.06-.08.18-.3.03-.07v-.05l.03-.01.06.01.06.05a.1.1 0 0 1 0 .09.4.4 0 0 1-.03.09.67.67 0 0 1-.08.09l-.09.09-.1.09.2.17c.25.22.45-.2.45-.2l.01-.01.04-.1.02-.05c.07-.33-.03-.59-.28-.77l.02.02a.93.93 0 0 0-.9-.1c-.1.06-.22.13-.31.2a1.03 1.03 0 0 0-.91-.38.99.99 0 0 0-.9 1.13s-.5-.06-.74.26-.12.72 0 .92c-.2.22-.3.52-.24.82.01.1.06.21.12.3.08.1.19.18.3.23l.06.02c.15.05.31.07.47.05l.6-.21.02-.03a.7.7 0 0 1-.15-.16.25.25 0 0 1-.05-.17c0-.08.04-.15.1-.2a.29.29 0 0 1 .19-.1c.02 0 .05 0 .08.02.05.02.1.06.12.1l.02.1-.01.09a.73.73 0 0 1-.11.24l.03.02a.76.76 0 0 1 .17-.02c.26 0 .23.2.2.28h.01l.1.04zm-.71-.65c-.04.07 0 .17.12.28l.02-.02.02-.04.02-.05.02-.07v-.06a.2.2 0 0 0 0-.06l-.02-.03-.03-.02h-.05a.14.14 0 0 0-.1.07zm.26.81a.34.34 0 0 0 .14-.12l-.08-.04-.22-.16a.33.33 0 0 0-.04.08l-.02.07v.12l.04.04.04.03a.2.2 0 0 0 .07 0l.07-.02zm.22-.25l.01-.03a.1.1 0 0 0-.01-.09c-.03-.04-.08-.05-.14-.05h-.04l-.03.02.21.15zm2.4-2.06a.1.1 0 0 0-.1 0c-.08.06-.17.18-.24.36l-.07.21a10.98 10.98 0 0 0-.2.82c-.06.2-.14.39-.26.56-.06.1-.12.15-.18.17a.1.1 0 0 1-.04 0c-.04.01-.08 0-.11-.03a.18.18 0 0 1-.04-.08 1.25 1.25 0 0 1-.02-.26 6.35 6.35 0 0 0 0-.75.43.43 0 0 0-.1-.22.38.38 0 0 0-.37-.09.46.46 0 0 0-.15.09.62.62 0 0 0-.16.24.74.74 0 0 0-.02.3c.01.05.03.1.06.14.02.04.06.07.1.08.04.01.1 0 .14-.03.02-.01.03 0 .03.01.01.03.01.05 0 .07l-.03.09a.15.15 0 0 1-.1.06.24.24 0 0 1-.23-.07.37.37 0 0 1-.07-.1.48.48 0 0 1-.04-.15.71.71 0 0 1 .08-.45.93.93 0 0 1 .32-.33.71.71 0 0 1 .44-.1c.09.02.17.06.24.12a.4.4 0 0 1 .07.1.9.9 0 0 1 .06.27V13.08l-.02.14v.37l.03.06c.01.01.03.02.04.01a.1.1 0 0 0 .05-.03l.08-.14.06-.14c.07-.2.13-.42.18-.64l.05-.2c.04-.22.12-.44.24-.64.04-.06.1-.12.16-.16a.4.4 0 0 1 .17-.07l.1.01c.03 0 .05.03.07.05v.04l-.02.06-.04.05-.05.04h-.04c-.01 0-.02 0-.02-.02l-.01-.07a.08.08 0 0 0-.04-.04zm.7-1.32s.36-.12.71-.1c.35.04.88.45.88 1.06 0 .6-.35.9-.35.9a.31.31 0 0 1-.09.07.2.2 0 0 1-.12.03.18.18 0 0 1-.12-.04.28.28 0 0 1-.07-.1.32.32 0 0 1-.03-.07l-.04.13a.68.68 0 0 1-.06.11.5.5 0 0 1-.2.18.64.64 0 0 1-.15.06h-.02l-.05.01H16a.11.11 0 0 1-.08-.08v-.05a.1.1 0 0 1 .04-.03h.03c.02 0 .03.02.03.03.01.02 0 .04-.01.05 0 .02.02.02.04.01l.04-.03a.42.42 0 0 0 .04-.09l.05-.29a.6.6 0 0 0-.03-.23.27.27 0 0 0-.04-.08c0-.02-.03-.03-.06-.03-.02 0-.04.01-.05.03l-.04.07-.07.2a15.65 15.65 0 0 1-.07.9v.15c0 .03 0 .06.02.08v.03l-.04.03h-.06a.12.12 0 0 1-.07-.05.2.2 0 0 1-.03-.1v-.17l.01-.38a.53.53 0 0 1-.08.17.15.15 0 0 1-.07.06.1.1 0 0 1-.11-.02.24.24 0 0 1-.07-.12l-.04.11a.46.46 0 0 1-.05.1.21.21 0 0 1-.07.05.21.21 0 0 1-.1.02.18.18 0 0 1-.13-.04.28.28 0 0 1-.07-.1.38.38 0 0 1-.04-.13.93.93 0 0 1 .03-.34.5.5 0 0 1 .06-.15.38.38 0 0 1 .2-.16l.04-.01h.05l.05.03a.1.1 0 0 1 .03.05v.05l-.03.03h-.04c-.02 0-.03-.02-.03-.03v-.05c0-.01-.01-.02-.02-.01a.08.08 0 0 0-.05.03.3.3 0 0 0-.03.09c-.03.1-.04.2-.05.29-.01.07 0 .15.02.22 0 .03.02.06.04.09.01.02.03.03.06.03.01 0 .03 0 .04-.02a.15.15 0 0 0 .04-.06 1.72 1.72 0 0 0 .07-.43v-.12c.02-.03.02-.07.02-.1v-.07l-.03-.04v-.02l.06-.04h.07a.1.1 0 0 1 .07.04c.03.04.04.08.04.12v.16l-.03.17-.02.16v.1c0 .02.02.03.05.02a.1.1 0 0 0 .03-.04 2.52 2.52 0 0 0 .12-.42v-.03V12l-.01-.06v-.03a.1.1 0 0 1 .05-.03l.07-.01a.1.1 0 0 1 .07.05c.02.01.02.03.03.05a.43.43 0 0 1 .1-.16c.04-.04.1-.06.16-.06a.2.2 0 0 1 .12.05c.03.02.06.06.07.1l.04.12c.01.12 0 .23-.03.35a.57.57 0 0 1-.07.16c.06-.03.1-.08.13-.13l.07-.16c.05-.14.09-.29.1-.44l.06-.15a.51.51 0 0 1 .1-.1.33.33 0 0 1 .1-.07.13.13 0 0 1 .1 0c.03.01.05.03.06.06v.12a.56.56 0 0 1-.24.4l.01.1.03.07c0 .02.02.04.04.05l.04.02c.03 0 .06-.02.08-.05a.21.21 0 0 0 .05-.06c.28-.24.42-1.23-.2-1.54-.63-.3-1.17.07-1.17.07s0-.7-.58-1c-.57-.3-1.17.02-1.17.02a1.07 1.07 0 0 0-1-.62c-.88 0-1.1.84-1.1.84 0-.28.3-.96 1.1-.96.79 0 1.07.53 1.07.53.4-.18.94-.2 1.34.12.39.32.47.79.47.79zm1.05 1.22c-.03.1-.04.2-.05.3v.03a.5.5 0 0 0 .18-.3v-.12c-.01-.03-.03-.04-.05-.03-.03 0-.06.05-.08.12z"/>
    </g>
  </g>
</svg>
