<svg viewBox="0 0 255.1 198.4" xmlns="http://www.w3.org/2000/svg"><g fill="#010101"><path d="m66.3 124.2a221.2 221.2 0 0 0 .4-15.3c0-1.7-.4-3.4-1-5-.2-.5-.7-1-1.2-1.2l-1.5-.3c-.6 0-1.1.2-1.7.4l-1.4.7c-.4.2-.6.5-.9.8-.2.2-.2.4 0 .5s.4.7.6 1.8.1 2.4.1 4.1v5.8l-.3 6.7-.1 6.8v6.3c0 1.9.2 3.5.3 4.9 0 1 .4 2 .9 2.8.4.7 1.1 1.3 2 1.5.6.1 1.3.1 2-.1.5-.2 1-.5 1.4-1 .3-.3.5-.7.4-1a13 13 0 0 1 -.6-4.3 187.4 187.4 0 0 1 .6-15z"/><path d="m78.7 117.2a18.1 18.1 0 0 1 -5.4 7.7c-1.2 1-2.5 1.7-4 2.3a1 1 0 0 0 -.5 1c0 .3.1.5.3.7.2 0 .4.2.7.1 1.4 0 2.8-.2 4-.6l.8-.3.8-.4a21.6 21.6 0 0 0 11.3-13.7 18.8 18.8 0 0 0 0-10 14.4 14.4 0 0 0 -4.2-6.6l-2.5-1.9a20.1 20.1 0 0 0 -9.1-2.9 19.9 19.9 0 0 0 -8.5 1.4c-2 .7-3.8 1.6-5.4 2.9a27.9 27.9 0 0 0 -8.5 10.2 23.3 23.3 0 0 0 -2.6 10.3c0 1.3.2 2.7.6 4 .4 1.2 1 2.4 1.9 3.5.9 1 2 2 3.3 2.5.6.3 1.2.3 1.7 0 .6-.2 1.2-.5 1.6-1 .4-.3.7-.7 1-1.2 0-.5 0-.8-.2-1-1.3-.8-2.4-2-3-3.5-.8-1.6-1.2-3.3-1.4-5a21 21 0 0 1 5.8-16.3 12.8 12.8 0 0 1 18.1 0c1.6 1.7 2.8 3.7 3.5 5.9.8 2.3 1 4.7.8 7.1 0 1.7-.4 3.2-1 4.8zm12.1-32.4a71.9 71.9 0 0 0 -.3 2.7c.3.8.8 1.5 1.6 2 .7.3 1.5.6 2.3.7.7 0 1.4 0 2-.3.6-.1.8-.4.7-.7v-1.1a21.4 21.4 0 0 1 .5-3v-1c-.2-.8-.8-1.6-1.5-2a5.7 5.7 0 0 0 -4.3-.5c-.5.2-.8.4-.7.6v1zm69.9 20.1a3.2 3.2 0 0 1 3.3-.1c.5.3 1 .7 1.2 1.3.3.7.5 1.4.5 2.1 0 .6.2 1 .5 1 .5 0 1-.1 1.3-.4.6-.3 1-.7 1.6-1.2l1.4-1.7.9-1.8c.2-.5 0-1-.2-1.4a4.4 4.4 0 0 0 -2.5-1.6c-1-.3-2-.3-3.1-.2a13.4 13.4 0 0 0 -5.7 2 18.2 18.2 0 0 0 -5.2 5.5 71 71 0 0 0 -8 21.1l-1.5 6.5a156.2 156.2 0 0 1 -6 20.9 549.3 549.3 0 0 0 -2 4.5 35.8 35.8 0 0 1 -2.6 4.7c-.4.5-.9.8-1.4 1s-1 0-1.4-.4a4 4 0 0 1 -1-2.1 70 70 0 0 1 .1-11.9l.4-4.7.2-4.9-.1-4.7a29.4 29.4 0 0 0 -2-8.8 13 13 0 0 0 -2.2-3.3c-2.2-2-5-3.4-8-3.8-1.5-.2-3.2-.2-4.8 0a23.3 23.3 0 0 0 -9.4 3.3 30.4 30.4 0 0 0 -10.5 10.7 23.3 23.3 0 0 0 -2.8 14.7c.2 1.6.6 3.2 1.3 4.7a12 12 0 0 0 2.4 3.6c2 2 4.9 3 7.6 2.2a5 5 0 0 0 3-2c.6-.7 1-1.7 1.3-2.7.2-.8.2-1.6 0-2.3s-.5-.9-1-.6c-1.7 1.1-3.3 1.5-4.6 1.1a6 6 0 0 1 -3.4-2.5c-1-1.5-1.6-3.1-1.9-4.8-.3-2-.4-4-.2-6 0-1.3.3-2.5.7-3.7a20.5 20.5 0 0 1 5.4-8c1.4-1.2 3-2.2 4.7-2.8 1.7-.5 3.6-.7 5.4-.4 2.5.4 4.8 1.5 6.6 3.2 1.9 2 3.1 4.5 3.6 7.3.6 3 .9 6.2.8 9.3a208.5 208.5 0 0 1 -.8 15.2 41 41 0 0 0 .6 8.8 6 6 0 0 0 1.3 2.5 4 4 0 0 0 3.6 1.1c.4 0 .9-.1 1.3-.3 1.9-.6 3.9-2.4 6-5.3a64.8 64.8 0 0 0 8.4-18.6 103.5 103.5 0 0 0 3.3-13.6 360.3 360.3 0 0 1 3.3-13.2c.7-2.3 1.5-4.6 2.5-7 2.3-5.9 5-9.7 7.8-11.5z"/><path d="m210.2 58.3c-11.6-1-23 3-23 3s-2.6-15.3-15.5-25.9-30.6-9.7-43.8-3.8c0 0-9.3-17.5-35.3-17.5s-36 22.2-36 31.5c0 0 7.1-27.6 36-27.6a35.2 35.2 0 0 1 32.9 20.4s19.7-10.5 38.5-.8 18.8 33 18.8 33 18-12.3 38.5-2.2 15.7 42.6 6.7 50.5c-.5.8-1.1 1.5-1.8 2-.7.7-1.5 1.2-2.4 1.4-.6 0-1.2-.1-1.6-.5-.5-.5-.9-1-1.2-1.7l-.8-2.5c-.2-1-.4-2-.4-3a18.5 18.5 0 0 0 8-13.3c.2-1.2 0-2.5-.3-3.7-.3-1-1-1.7-1.9-2.2-1-.4-2.2-.4-3.2 0-1.4.5-2.6 1.2-3.6 2.1-1.2 1-2.1 2.2-3 3.5-.8 1.5-1.5 3.2-2 5a57.7 57.7 0 0 1 -3.2 14.5c-.6 1.8-1.5 3.6-2.5 5.3-1 1.6-2.3 3-4 4 1-1.6 1.8-3.3 2.3-5.2a30.3 30.3 0 0 0 .8-11.3c-.2-1.5-.6-2.9-1.2-4.2a9.1 9.1 0 0 0 -2.3-3.2 6.6 6.6 0 0 0 -4-1.5 7 7 0 0 0 -5.5 2 14 14 0 0 0 -3.2 5.1c-.1-.6-.3-1.1-.7-1.7a3.4 3.4 0 0 0 -2.3-1.5 5 5 0 0 0 -2.5.3c-.6.2-1.2.6-1.6 1.1s-.4.8-.1.9.5.8.6 2a50.5 50.5 0 0 1 -.3 9.6l-.1.8a82.6 82.6 0 0 1 -2.7 11 22 22 0 0 1 -1.1 2.7 3 3 0 0 1 -1 1.3c-.8.4-1.3.2-1.5-.6a11 11 0 0 1 0-3.3l.7-5 .8-5.7c.2-1.7.2-3.5.1-5.3a7 7 0 0 0 -1.2-3.8 3.4 3.4 0 0 0 -2.4-1.6 5 5 0 0 0 -2.4.3c-.6.3-1.2.6-1.6 1.2-.4.4-.4.7-.1.8.3.2.5.6.6 1.2l.1 2.4c0 1 0 2-.2 3.2l-.3 4a185.6 185.6 0 0 0 -.9 7.1 56.5 56.5 0 0 1 -1.5 6.8c-.2.7-.6 1.5-1.1 2-.4.6-1 .8-1.5.8-.8 0-1.5-.5-2-1.1-.5-.9-1-1.8-1.3-2.8a21.8 21.8 0 0 1 -.7-7.4 66.4 66.4 0 0 1 1.7-9.5c.2-1 .7-1.9 1.2-2.8.3-.5.8-1 1.4-1.2.4-.2.8 0 1 .3l-.3.9v.9c.1.4.5.8 1 1h1.2c.5-.2.8-.5 1-1 .3-.5.3-1.2 0-1.8-.2-.6-.5-1.2-1-1.6s-1-.7-1.5-.8-1-.2-1.6-.1c-.5 0-1 0-1.4.2a12.4 12.4 0 0 0 -6.5 5.4c-1 1.6-1.6 3.3-2 5a30.5 30.5 0 0 0 -.8 11c.1 1.5.5 3 1.1 4.3a9.3 9.3 0 0 0 2.4 3.2c1.1 1 2.5 1.4 4 1.4a7 7 0 0 0 3.5-.5 7 7 0 0 0 2.4-2c.7-1 1.3-2 1.7-3 .4-1.3.8-2.5 1-3.8a8 8 0 0 0 2.4 4.2c1 1 2.4 1.2 3.7.6a5 5 0 0 0 2.3-2 17.5 17.5 0 0 0 2.7-5.5 327.5 327.5 0 0 0 -.6 12.4c0 1.9 0 3.8.2 5.6 0 1.1.4 2.2 1 3.2a4 4 0 0 0 2.2 1.7c.6.2 1.3.1 2 0 .5-.3 1-.6 1.3-1 .2-.5.2-.9 0-1-.5-.8-.8-1.7-.7-2.6l.1-5.1a182.7 182.7 0 0 1 1.4-14.4 513.5 513.5 0 0 0 1-14.7 54.1 54.1 0 0 1 2-7l1.4-2.2c.5-.6 1.1-1 1.8-1 .8 0 1.6.3 2 1 .6.8 1 1.8 1.3 2.8a19.7 19.7 0 0 1 .8 7.5 56.3 56.3 0 0 1 -1.7 9.5c-.3 1-.7 1.9-1.2 2.8-.3.6-.8 1-1.4 1.2a1 1 0 0 1 -1.2-.3c.5-.4.7-1.1.4-1.8-.1-.4-.4-.7-.9-1h-1.3c-.4.3-.8.6-1 1a2 2 0 0 0 0 1.8 3.7 3.7 0 0 0 2.6 2.5c.5 0 1 .1 1.6 0 .5 0 1 0 1.5-.2l.8-.2a21 21 0 0 0 5-1.8 16.2 16.2 0 0 0 6.4-6c.7-1.2 1.3-2.4 1.8-3.8.6-1.3 1-2.8 1.5-4.2.2.9.4 1.7.8 2.5a9.1 9.1 0 0 0 2.4 3.2c1.1 1 2.5 1.4 4 1.4 1.4.1 2.8-.2 4-1 1.1-.5 2.1-1.2 3-2.1 0 0 11.3-10 11.3-29.9s-17.2-33.4-28.8-34.5zm9.5 52.7c.2-3.2.7-6.4 1.7-9.5.7-2.4 1.6-3.8 2.6-4 .7-.3 1.2.1 1.5 1a8 8 0 0 1 .1 3.7 16.6 16.6 0 0 1 -6 10z"/><path d="m93.6 175.3-.8-.2-3-1-.5-.3c1.1-2.3 2-9.1-6.6-9-1.8 0-3.6.2-5.4.6l-1.1-.8a23.8 23.8 0 0 0 3.7-7.8c.3-1 .3-2.1.3-3.2-.1-1-.3-1.8-.7-2.7a6.5 6.5 0 0 0 -3.8-3.7c-1-.3-1.9-.5-2.8-.4a9.4 9.4 0 0 0 -6.3 2.9 10.5 10.5 0 0 0 -3 6.7 8.3 8.3 0 0 0 1.7 5.6 22.8 22.8 0 0 0 4.8 5.2l-.8 1c-6.3 2.9-12.8 5.2-19.5 7-5.2.7-10.6.1-15.6-1.7l-1.6-.6c-4-1.7-7.5-4.2-10.2-7.4-2-3-3.4-6.5-4-10a30.9 30.9 0 0 1 8-26.8c-3.8-6.6-7.7-19.8 0-30.3s24-8.5 24-8.5c-2-18.6 10-35.2 29.7-37a33.8 33.8 0 0 1 29.9 12.6c3.2-2.6 6.7-4.8 10.4-6.6a30.5 30.5 0 0 1 29.3 3l-.5-.4c8.2 5.8 11.5 14.2 9 25.2l-.4 1.6v.2l-1.4 3-.3.6s-6.7 13.5-14.8 6.4a171.6 171.6 0 0 1 -6.4-5.8l3.1-2.8 3-3c1-1 1.8-2 2.5-3 .6-1 1-2 1.3-3s.1-2-.4-2.8a5 5 0 0 0 -1.9-1.6 4 4 0 0 0 -2-.5c-.6 0-.8.2-.7.5.1.6 0 1-.2 1.6l-1 2.4a70.2 70.2 0 0 1 -5.8 9.6l-2 2.8c.4-2.7.8-5.4 1-8.2v-.4-.2c.3-1.6.4-3.8.4-5v-2.6c0-1.3-.2-2.5-.8-3.6a3.4 3.4 0 0 0 -2.3-1.7 5 5 0 0 0 -2.5.3c-.6.2-1.2.6-1.6 1-.4.5-.5.8-.1 1 .3.1.5.8.5 2v3a220.2 220.2 0 0 1 -1 10.5 476.2 476.2 0 0 0 -.6 5.6 40.3 40.3 0 0 1 -5 15.2c-.6 1-1.4 1.8-2.3 2.6-.6.6-1.5 1-2.4 1.2a2 2 0 0 1 -1.9-1c-.6-.9-1-1.8-1.2-2.8a20.2 20.2 0 0 1 -.7-7.5 65.8 65.8 0 0 1 1.8-9.5c.3-1 .8-1.9 1.3-2.7.3-.6.9-1 1.5-1.3.4 0 .8 0 1 .4l-.4.9v.8c.2.5.5.9 1 1 .4.2.8.2 1.2 0 .5 0 .9-.4 1-.8.3-.6.3-1.2 0-1.8-.1-.6-.5-1.2-1-1.6-.4-.4-.9-.7-1.4-.9-.5-.1-1-.2-1.6-.1-.4 0-1 0-1.4.2a11.5 11.5 0 0 0 -6.7 5.2 26.8 26.8 0 0 0 -3 9.2c0 .9-.2 1.7-.3 2.6a54.9 54.9 0 0 1 -5.2 15c-.8.3-1.3 0-1.5-.7a11 11 0 0 1 0-3.3l.8-5 1-5.7c.2-1.7.3-3.5.2-5.2a7 7 0 0 0 -1-4 3.4 3.4 0 0 0 -2.4-1.6 5 5 0 0 0 -2.5.3c-.6.2-1.2.6-1.6 1-.4.5-.4.8-.1 1s.5.6.6 1.3v2.9l-.4 3.8-.3 4.5a56.7 56.7 0 0 0 .3 8.5c.2 1 .5 2 .9 2.8.3.7.8 1.4 1.4 2 .4.5 1 .8 1.7 1 .7.1 1.4 0 2-.2a5 5 0 0 0 2.4-1.9c.8-1 1.4-2.2 2-3.4l1.6-4.2.7-2.9.8 2.3a9.3 9.3 0 0 0 2.3 3.3c1.1 1 2.5 1.5 4 1.5 1.4.1 2.9-.2 4.1-.8 1.4-.7 2.5-1.6 3.5-2.8 1.1-1.2 2-2.6 2.8-4 .8-1.6 1.5-3.1 2-4.7l.1 4.6c0 1.1.3 2.2.9 3.2a4 4 0 0 0 2.2 1.8c.6.2 1.3.2 2 0 .5-.2 1-.6 1.3-1 .2-.5.3-.8 0-1-.4-.5-.5-1.2-.5-1.8v-3.3a85 85 0 0 1 1-10.1l.7-.9 1.1-1.1c.7 0 1.6.6 2.6 1.9l2 2.3s2 2.6 3.6 5 6.6 5.4 12.6-2.5l.7-.8a46.2 46.2 0 0 0 4.7-7l.2-.3.4-.8.5-1.4a36 36 0 0 0 1.8-16.6c-1.5-11.4-13.7-22.8-29-22s-21.3 7-21.3 7-13.3-14.3-33.4-11a35.3 35.3 0 0 0 -31.6 35.6s-19.5 1-26.5 16.5a28 28 0 0 0 2.3 27.5 34.5 34.5 0 0 0 -7.5 22.8 33 33 0 0 0 4.2 13.3c1.5 2.2 3.2 4.2 5.2 6 2.4 2 5.1 3.5 8 4.6a36.5 36.5 0 0 0 20.1 1.4 68.2 68.2 0 0 0 15.7-5.7l-.2.4c-.7 1.2-1.2 2.5-1.6 3.9-.3 1.1-.4 2.3-.4 3.5 0 1 .2 2 .6 3a6.8 6.8 0 0 0 4.8 4.1c1.3.4 2.7.4 4 .3a17.8 17.8 0 0 0 10.6-5.3 13 13 0 0 0 1.8-2.3l.5.3 1.3.6 1.5.7 1.2.5h1c.3-.2.7-.4.9-.8a4.8 4.8 0 0 0 1-2.5c0-.4 0-.8-.2-1.2-.1-.4-.4-.6-.7-.8zm-24.3-21.3c.7-1.3 2-2.1 3.4-2.3l.7-.2 1 .1c.3.1.6.3.8.6l.5.9c.3.6.4 1.3.5 2 0 .7 0 1.4-.2 2.1l-.8 2.4-.6 1.5-.5 1.2h-.1a4 4 0 0 1 -.8.9c-4-3.6-5.2-7.1-4-9.2zm11.1 24.9c-.7.7-1.5 1.2-2.5 1.6l-2.4.6c-.7.1-1.4 0-2-.1-.6-.2-1-.4-1.5-.8a4 4 0 0 1 -1-1.4 6 6 0 0 1 -.3-1.8v-2.2l.7-2.3c.3-.8.7-1.7 1.2-2.4a99.4 99.4 0 0 0 7.3 5.2l2.5 1.3c-.6.9-1.2 1.6-2 2.3zm5.2-7.5-.4 1-7-5.2 1.3-.2-.1-.1 1.1-.1h.1c2 0 3.7.3 4.5 1.6.6.9.8 2 .5 3z"/></g></svg>