<svg xmlns="http://www.w3.org/2000/svg" viewBox="0 0 225 173">
  <path fill="#000" fill-rule="evenodd" d="M52.3 110.2c.3-5 .4-10.2.4-15.3 0-1.7-.4-3.4-1-5-.2-.5-.7-1-1.2-1.2l-1.5-.3c-.6 0-1.1.2-1.7.4l-1.4.7c-.4.2-.6.5-.9.8-.2.2-.2.4 0 .5.2.1.4.7.6 1.8.2 1.1.1 2.4.1 4.1v5.8l-.3 6.7-.1 6.8v6.3c0 1.9.2 3.5.3 4.9 0 1 .4 2 .9 2.8.4.7 1.1 1.3 2 1.5.6.1 1.3.1 2-.1.5-.2 1-.5 1.4-1 .3-.3.5-.7.4-1a13 13 0 0 1-.6-4.3c0-5 .2-10 .6-15v.1zm12.4-7c-1 3-3 5.7-5.4 7.7-1.2 1-2.5 1.7-4 2.3a1 1 0 0 0-.5 1c0 .3.1.5.3.7.2 0 .4.2.7.1 1.4 0 2.8-.2 4-.6l.8-.3.8-.4C67 111 71.1 106 72.7 100c.9-3.3.9-6.7 0-10-.8-2.5-2.2-4.8-4.2-6.6L66 81.5a20.1 20.1 0 0 0-9.1-2.9c-2.9-.2-5.8.3-8.5 1.4-2 .7-3.8 1.6-5.4 2.9a27.9 27.9 0 0 0-8.5 10.2 23.3 23.3 0 0 0-2.6 10.3c0 1.3.2 2.7.6 4a11 11 0 0 0 1.9 3.5c.9 1 2 2 3.3 2.5.6.3 1.2.3 1.7 0 .6-.2 1.2-.5 1.6-1a4 4 0 0 0 1-1.2c0-.5 0-.8-.2-1-1.3-.8-2.4-2-3-3.5a15 15 0 0 1-1.4-5 21 21 0 0 1 5.8-16.3c5-5 13.1-5 18.1 0a17.1 17.1 0 0 1 4.3 13c0 1.7-.4 3.2-1 4.8h.1zm12.1-32.4l-.3 2.7c.3.8.8 1.5 1.6 2 .7.3 1.5.6 2.3.7.7 0 1.4 0 2-.3.6-.1.8-.4.7-.7v-1.1l.5-3v-1c-.2-.8-.8-1.6-1.5-2-1.3-.7-2.9-1-4.3-.5-.5.2-.8.4-.7.6v1l-.3 1.6zm69.9 20.1c1-.6 2.3-.7 3.3-.1.5.3 1 .7 1.2 1.3.3.7.5 1.4.5 2.1 0 .6.2 1 .5 1 .5 0 1-.1 1.3-.4.6-.3 1-.7 1.6-1.2l1.4-1.7.9-1.8c.2-.5 0-1-.2-1.4a4.4 4.4 0 0 0-2.5-1.6 8 8 0 0 0-3.1-.2c-2 .2-4 1-5.7 2a18.2 18.2 0 0 0-5.2 5.5 71 71 0 0 0-8 21.1l-1.5 6.5c-1.5 7.1-3.5 14-6 20.9l-2 4.5c-.7 1.6-1.6 3.2-2.6 4.7-.4.5-.9.8-1.4 1-.5.2-1 0-1.4-.4a4 4 0 0 1-1-2.1c-.3-4-.3-8 .1-11.9l.4-4.7.2-4.9-.1-4.7c-.2-3-.9-6-2-8.8a13 13 0 0 0-2.2-3.3 15 15 0 0 0-8-3.8 23.3 23.3 0 0 0-14.2 3.3c-4.3 2.6-8 6.3-10.5 10.7a23.3 23.3 0 0 0-2.8 14.7c.2 1.6.6 3.2 1.3 4.7a12 12 0 0 0 2.4 3.6c2 2 4.9 3 7.6 2.2a5 5 0 0 0 3-2c.6-.7 1-1.7 1.3-2.7.2-.8.2-1.6 0-2.3-.2-.7-.5-.9-1-.6-1.7 1.1-3.3 1.5-4.6 1.1a6 6 0 0 1-3.4-2.5c-1-1.5-1.6-3.1-1.9-4.8a24.1 24.1 0 0 1 .5-9.7c1.1-3 3-5.8 5.4-8a15 15 0 0 1 4.7-2.8 12.3 12.3 0 0 1 12 2.8 14 14 0 0 1 3.6 7.3c.6 3 .9 6.2.8 9.3 0 5-.3 10.1-.8 15.2-.1 3 0 5.9.6 8.8a6 6 0 0 0 1.3 2.5 4 4 0 0 0 3.6 1.1 3 3 0 0 0 1.3-.3c1.9-.6 3.9-2.4 6-5.3 3.8-5.7 6.6-12 8.4-18.6 1.4-4.5 2.5-9 3.3-13.6l3.3-13.2a74 74 0 0 1 2.5-7c2.3-5.9 5-9.7 7.8-11.5zm49.5-46.6c-11.6-1-23 3-23 3s-2.6-15.3-15.5-25.9c-12.9-10.6-30.6-9.7-43.8-3.8 0 0-9.3-17.5-35.3-17.5-26 0-36 22.2-36 31.5 0 0 7.1-27.6 36-27.6 14-.4 27 7.6 32.9 20.4 0 0 19.7-10.5 38.5-.8s18.8 33 18.8 33 18-12.3 38.5-2.2C227.8 64.5 223 97 214 104.9a7 7 0 0 1-1.8 2 5 5 0 0 1-2.4 1.4c-.6 0-1.2-.1-1.6-.5-.5-.5-.9-1-1.2-1.7l-.8-2.5c-.2-1-.4-2-.4-3 4.5-3 7.4-8 8-13.3.2-1.2 0-2.5-.3-3.7-.3-1-1-1.7-1.9-2.2-1-.4-2.2-.4-3.2 0-1.4.5-2.6 1.2-3.6 2.1-1.2 1-2.1 2.2-3 3.5-.8 1.5-1.5 3.2-2 5-.4 5-1.5 9.8-3.2 14.5-.6 1.8-1.5 3.6-2.5 5.3-1 1.6-2.3 3-4 4 1-1.6 1.8-3.3 2.3-5.2 1-3.7 1.2-7.5.8-11.3-.2-1.5-.6-2.9-1.2-4.2a9.1 9.1 0 0 0-2.3-3.2 6.6 6.6 0 0 0-4-1.5 7 7 0 0 0-5.5 2 14 14 0 0 0-3.2 5.1c-.1-.6-.3-1.1-.7-1.7a3.4 3.4 0 0 0-2.3-1.5 5 5 0 0 0-2.5.3c-.6.2-1.2.6-1.6 1.1-.4.5-.4.8-.1.9.3.1.5.8.6 2 .2 3.2.1 6.4-.3 9.6l-.1.8a82.6 82.6 0 0 1-3.8 13.7 3 3 0 0 1-1 1.3c-.8.4-1.3.2-1.5-.6a11 11 0 0 1 0-3.3l.7-5 .8-5.7c.2-1.7.2-3.5.1-5.3a7 7 0 0 0-1.2-3.8 3.4 3.4 0 0 0-2.4-1.6 5 5 0 0 0-2.4.3c-.6.3-1.2.6-1.6 1.2-.4.4-.4.7-.1.8.3.2.5.6.6 1.2l.1 2.4c0 1 0 2-.2 3.2l-.3 4-.9 7.1c-.4 2.3-.9 4.6-1.5 6.8-.2.7-.6 1.5-1.1 2-.4.6-1 .8-1.5.8-.8 0-1.5-.5-2-1.1-.5-.9-1-1.8-1.3-2.8-.7-2.4-.9-5-.7-7.4.3-3.2.9-6.4 1.7-9.5.2-1 .7-1.9 1.2-2.8.3-.5.8-1 1.4-1.2.4-.2.8 0 1 .3l-.3.9v.9c.1.4.5.8 1 1h1.2c.5-.2.8-.5 1-1a2 2 0 0 0 0-1.8c-.2-.6-.5-1.2-1-1.6-.5-.4-1-.7-1.5-.8-.5-.1-1-.2-1.6-.1-.5 0-1 0-1.4.2-2.7 1-5 2.9-6.5 5.4-1 1.6-1.6 3.3-2 5-1 3.6-1.2 7.3-.8 11 .1 1.5.5 3 1.1 4.3a9.3 9.3 0 0 0 2.4 3.2c1.1 1 2.5 1.4 4 1.4a7 7 0 0 0 3.5-.5 7 7 0 0 0 2.4-2c.7-1 1.3-2 1.7-3 .4-1.3.8-2.5 1-3.8a8 8 0 0 0 2.4 4.2c1 1 2.4 1.2 3.7.6a5 5 0 0 0 2.3-2c1.2-1.7 2.1-3.5 2.7-5.5-.3 4.1-.5 8.3-.6 12.4 0 1.9 0 3.8.2 5.6 0 1.1.4 2.2 1 3.2a4 4 0 0 0 2.2 1.7c.6.2 1.3.1 2 0 .5-.3 1-.6 1.3-1 .2-.5.2-.9 0-1-.5-.8-.8-1.7-.7-2.6l.1-5.1a513.5 513.5 0 0 0 2.4-29.1c.5-2.4 1.2-4.7 2-7l1.4-2.2c.5-.6 1.1-1 1.8-1 .8 0 1.6.3 2 1a9 9 0 0 1 1.3 2.8c.7 2.4 1 5 .8 7.5-.3 3.2-.9 6.4-1.7 9.5-.3 1-.7 1.9-1.2 2.8-.3.6-.8 1-1.4 1.2-.4.2-1 0-1.2-.3.5-.4.7-1.1.4-1.8-.1-.4-.4-.7-.9-1h-1.3c-.4.3-.8.6-1 1a2 2 0 0 0 0 1.8 3.7 3.7 0 0 0 2.6 2.5c.5 0 1 .1 1.6 0 .5 0 1 0 1.5-.2l.8-.2a21 21 0 0 0 5-1.8c2.6-1.4 4.9-3.4 6.4-6 .7-1.2 1.3-2.4 1.8-3.8.6-1.3 1-2.8 1.5-4.2.2.9.4 1.7.8 2.5a9.1 9.1 0 0 0 2.4 3.2c1.1 1 2.5 1.4 4 1.4 1.4.1 2.8-.2 4-1 1.1-.5 2.1-1.2 3-2.1 0 0 11.3-10 11.3-29.9s-17.2-33.4-28.8-34.5zm9.5 52.7c.2-3.2.7-6.4 1.7-9.5.7-2.4 1.6-3.8 2.6-4 .7-.3 1.2.1 1.5 1a8 8 0 0 1 .1 3.7c-.7 4-2.9 7.5-6 10l.1-1.2zM79.6 161.3l-.8-.2-3-1-.5-.3c1.1-2.3 2-9.1-6.6-9-1.8 0-3.6.2-5.4.6l-1.1-.8c1.7-2.4 3-5 3.7-7.8.3-1 .3-2.1.3-3.2-.1-1-.3-1.8-.7-2.7a6.5 6.5 0 0 0-6.6-4.1 9.4 9.4 0 0 0-6.3 2.9 10.5 10.5 0 0 0-3 6.7c-.1 2 .5 4 1.7 5.6 1.3 2 3 3.7 4.8 5.2l-.8 1c-6.3 2.9-12.8 5.2-19.5 7-5.2.7-10.6.1-15.6-1.7l-1.6-.6c-4-1.7-7.5-4.2-10.2-7.4-2-3-3.4-6.5-4-10a30.9 30.9 0 0 1 8-26.8c-3.8-6.6-7.7-19.8 0-30.3s24-8.5 24-8.5c-2-18.6 10-35.2 29.7-37A33.8 33.8 0 0 1 96 51.5c3.2-2.6 6.7-4.8 10.4-6.6 9.6-4 20.7-3 29.3 3l-.5-.4c8.2 5.8 11.5 14.2 9 25.2l-.4 1.6v.2l-1.4 3-.3.6s-6.7 13.5-14.8 6.4l-6.4-5.8 3.1-2.8 3-3c1-1 1.8-2 2.5-3 .6-1 1-2 1.3-3 .3-1 .1-2-.4-2.8a5 5 0 0 0-1.9-1.6 4 4 0 0 0-2-.5c-.6 0-.8.2-.7.5.1.6 0 1-.2 1.6l-1 2.4a70.2 70.2 0 0 1-5.8 9.6l-2 2.8c.4-2.7.8-5.4 1-8.2V70.1c.3-1.6.4-3.8.4-5v-2.6c0-1.3-.2-2.5-.8-3.6a3.4 3.4 0 0 0-2.3-1.7 5 5 0 0 0-4.1 1.3c-.4.5-.5.8-.1 1 .3.1.5.8.5 2v3a220.2 220.2 0 0 1-1.6 16.1 40.3 40.3 0 0 1-5 15.2c-.6 1-1.4 1.8-2.3 2.6a5 5 0 0 1-2.4 1.2 2 2 0 0 1-1.9-1c-.6-.9-1-1.8-1.2-2.8-.7-2.4-1-5-.7-7.5.4-3.2 1-6.4 1.8-9.5.3-1 .8-1.9 1.3-2.7.3-.6.9-1 1.5-1.3.4 0 .8 0 1 .4l-.4.9v.8c.2.5.5.9 1 1 .4.2.8.2 1.2 0a1 1 0 0 0 1-.8 2 2 0 0 0 0-1.8c-.1-.6-.5-1.2-1-1.6-.4-.4-.9-.7-1.4-.9-.5-.1-1-.2-1.6-.1-.4 0-1 0-1.4.2-2.8.8-5.2 2.7-6.7 5.2-1.5 2.9-2.6 6-3 9.2 0 .9-.2 1.7-.3 2.6-1 5.2-2.7 10.3-5.2 15-.8.3-1.3 0-1.5-.7a11 11 0 0 1 0-3.3l.8-5 1-5.7c.2-1.7.3-3.5.2-5.2a7 7 0 0 0-1-4 3.4 3.4 0 0 0-2.4-1.6 5 5 0 0 0-4.1 1.3c-.4.5-.4.8-.1 1 .3.2.5.6.6 1.3v2.9l-.4 3.8-.3 4.5c-.1 2.8 0 5.7.3 8.5.2 1 .5 2 .9 2.8.3.7.8 1.4 1.4 2 .4.5 1 .8 1.7 1 .7.1 1.4 0 2-.2a5 5 0 0 0 2.4-1.9c.8-1 1.4-2.2 2-3.4l1.6-4.2.7-2.9.8 2.3a9.3 9.3 0 0 0 2.3 3.3c1.1 1 2.5 1.5 4 1.5 1.4.1 2.9-.2 4.1-.8 1.4-.7 2.5-1.6 3.5-2.8a22.1 22.1 0 0 0 4.8-8.7l.1 4.6c0 1.1.3 2.2.9 3.2a4 4 0 0 0 2.2 1.8c.6.2 1.3.2 2 0 .5-.2 1-.6 1.3-1 .2-.5.3-.8 0-1-.4-.5-.5-1.2-.5-1.8v-3.3a85 85 0 0 1 1-10.1l.7-.9 1.1-1.1c.7 0 1.6.6 2.6 1.9l2 2.3s2 2.6 3.6 5 6.6 5.4 12.6-2.5l.7-.8c1.8-2.2 3.3-4.5 4.7-7l.2-.3.4-.8.5-1.4a36 36 0 0 0 1.8-16.6c-1.5-11.4-13.7-22.8-29-22-15.3.8-21.3 7-21.3 7s-13.3-14.3-33.4-11A35.3 35.3 0 0 0 32 70.5S12.5 71.5 5.5 87a28 28 0 0 0 2.3 27.5 34.5 34.5 0 0 0-7.5 22.8 33 33 0 0 0 4.2 13.3 33 33 0 0 0 5.2 6c2.4 2 5.1 3.5 8 4.6a36.5 36.5 0 0 0 20.1 1.4 68.2 68.2 0 0 0 15.7-5.7l-.2.4a13.4 13.4 0 0 0-2 7.4c0 1 .2 2 .6 3 .8 2 2.6 3.6 4.8 4.1 1.3.4 2.7.4 4 .3a17.8 17.8 0 0 0 12.4-7.6l.5.3 1.3.6 1.5.7 1.2.5h1c.3-.2.7-.4.9-.8.6-.7 1-1.6 1-2.5 0-.4 0-.8-.2-1.2-.1-.4-.4-.6-.7-.8zM55.3 140c.7-1.3 2-2.1 3.4-2.3l.7-.2 1 .1c.3.1.6.3.8.6l.5.9c.3.6.4 1.3.5 2 0 .7 0 1.4-.2 2.1l-.8 2.4-.6 1.5-.5 1.2H60a4 4 0 0 1-.8.9c-4-3.6-5.2-7.1-4-9.2h.1zm11.1 24.9c-.7.7-1.5 1.2-2.5 1.6l-2.4.6c-.7.1-1.4 0-2-.1-.6-.2-1-.4-1.5-.8a4 4 0 0 1-1-1.4 6 6 0 0 1-.3-1.8v-2.2l.7-2.3c.3-.8.7-1.7 1.2-2.4 2.4 1.8 4.8 3.6 7.3 5.2l2.5 1.3a11 11 0 0 1-2 2.3zm5.2-7.5l-.4 1-7-5.2 1.3-.2-.1-.1 1.1-.1h.1c2 0 3.7.3 4.5 1.6.6.9.8 2 .5 3z"/>
</svg>
