<svg viewBox="0 0 100 77" xmlns="http://www.w3.org/2000/svg"><path d="m23.1 48.8c.2-2.3.2-4.6.2-6.8 0-.8-.2-1.5-.4-2.2a1 1 0 0 0 -.6-.6h-1.3l-.6.4c-.2 0-.3.2-.4.4v.2l.3.8v4.4l-.1 3v7.9c0 .4.3.9.5 1.2s.5.6.9.7h.8l.7-.5c.1-.1.2-.3.1-.4-.2-.7-.2-1.3-.2-2 0-2.2 0-4.4.2-6.6zm5.5-3.1a7.7 7.7 0 0 1 -2.4 3.4l-1.7 1c-.2 0-.3.3-.3.4 0 .2 0 .3.2.3h.3c.6 0 1.2 0 1.8-.2l.3-.1.4-.2a9.4 9.4 0 0 0 5-6c.4-1.5.4-3 0-4.5-.4-1-1-2.1-1.9-2.9l-1.1-.8a8.4 8.4 0 0 0 -7.8-.7c-.9.3-1.7.7-2.4 1.3a12.3 12.3 0 0 0 -3.7 4.5c-.8 1.4-1.2 3-1.2 4.6l.3 1.7c.2.6.4 1.1.8 1.6.4.4 1 .9 1.5 1 .2.2.5.2.7 0 .3 0 .6-.1.7-.4l.5-.5-.1-.4c-.6-.4-1-1-1.3-1.6-.4-.7-.6-1.4-.7-2.2-.2-2.7.8-5.3 2.6-7.2a5.7 5.7 0 0 1 8 0 7.6 7.6 0 0 1 2 5.7c0 .8-.3 1.5-.5 2.2zm5.4-14.4-.2 1.2c.2.4.4.7.8 1l1 .2.9-.1c.2 0 .3-.2.3-.3v-.5l.2-1.3v-.5c-.1-.3-.4-.7-.7-.9-.5-.3-1.3-.4-1.9-.2l-.3.3v.4zm31 9c.4-.3 1-.4 1.4-.1.2.1.4.3.5.6l.2.9.2.4c.3 0 .5 0 .6-.2.3 0 .5-.3.7-.5l.6-.7.4-.8v-.7a2 2 0 0 0 -1.1-.7h-1.5c-1 0-1.8.4-2.5.8a8 8 0 0 0 -2.3 2.5c-1.7 2.9-3 6-3.6 9.3l-.6 2.9c-.7 3.1-1.6 6.2-2.7 9.2l-.9 2-1.1 2.1c-.2.2-.4.4-.7.4-.2.1-.4 0-.6-.1-.2-.3-.4-.6-.4-1-.2-1.7-.2-3.5 0-5.2l.2-2.1v-4.3c0-1.4-.4-2.7-.8-4l-1-1.4c-1-1-2.2-1.5-3.6-1.7-2.1-.2-4.4.3-6.2 1.5a13.2 13.2 0 0 0 -4.7 4.7c-1.1 2-1.5 4.3-1.2 6.5 0 .7.2 1.4.6 2 .2.7.6 1.2 1 1.7.9.9 2.2 1.3 3.4 1 .5-.2 1-.5 1.3-1 .3-.2.5-.7.6-1.1v-1c-.1-.4-.2-.4-.5-.3-.7.5-1.4.7-2 .5s-1.1-.6-1.5-1.1c-.4-.7-.7-1.4-.8-2.2-.3-1.4-.2-2.8.2-4.2a9.1 9.1 0 0 1 2.4-3.6c.6-.5 1.3-1 2-1.2 2-.6 4-.1 5.4 1.2.8 1 1.4 2 1.6 3.2a69.2 69.2 0 0 1 0 10.8c0 1.4 0 2.7.2 4 .1.4.3.8.6 1 .4.5 1 .7 1.6.6.2 0 .4 0 .6-.2.8-.2 1.7-1 2.6-2.3a47.7 47.7 0 0 0 5.4-14.1l1.5-5.9 1-3c1-2.7 2.3-4.4 3.5-5.2zm21.8-20.7c-5.1-.4-10.2 1.3-10.2 1.3s-1.1-6.7-6.8-11.4c-5.8-4.7-13.6-4.3-19.4-1.7 0 0-4.1-7.8-15.6-7.8s-16 9.9-16 14c0 0 3.2-12.2 16-12.2 6.2-.2 12 3.3 14.5 9 0 0 8.8-4.6 17-.4 8.4 4.3 8.4 14.6 8.4 14.6s8-5.4 17-1c9.1 4.5 7 19 3 22.4-.2.4-.5.7-.8.9-.3.3-.7.5-1 .6-.3 0-.6 0-.8-.2s-.4-.4-.5-.8l-.4-1-.1-1.4c2-1.3 3.2-3.5 3.5-5.9l-.1-1.6c-.2-.5-.5-.8-.9-1a2 2 0 0 0 -1.4 0c-.6.2-1.1.5-1.6 1-.5.4-1 1-1.3 1.5a11 11 0 0 0 -.9 2.2 24.5 24.5 0 0 1 -2.5 8.8c-.5.7-1 1.3-1.8 1.7.5-.7.8-1.4 1-2.3.5-1.6.6-3.3.4-5l-.5-1.8a4 4 0 0 0 -1-1.4 3 3 0 0 0 -1.8-.7c-1 0-1.8.2-2.5.9-.6.6-1 1.4-1.4 2.2l-.3-.7c-.2-.4-.6-.6-1-.7-.4 0-.8 0-1.1.2-.3 0-.5.2-.7.4-.2.3-.2.4 0 .4 0 0 .2.4.2 1l-.1 4.2v.3c-.5 2.1-1 4.1-1.8 6 0 .3-.2.5-.4.7-.4.1-.6 0-.7-.3v-1.5l.3-2.2.4-2.5v-2.3c0-.6-.2-1.2-.5-1.7-.2-.4-.6-.7-1-.7l-1.1.1-.7.5c-.2.2-.2.3 0 .4l.2.5v2.5l-.2 1.8-.4 3.1-.6 3-.5.9c-.2.3-.5.4-.7.4-.3 0-.7-.3-.9-.5l-.5-1.3c-.4-1-.4-2.2-.4-3.2.2-1.5.4-2.9.8-4.2 0-.5.3-.9.5-1.3l.6-.5c.2-.1.4 0 .5.1l-.1.4v.4c0 .2.2.4.4.5h.5l.5-.5c.1-.2.1-.5 0-.8l-.5-.7-.6-.3h-1.4a5.6 5.6 0 0 0 -2.8 2.4c-.5.7-.7 1.4-1 2.2-.4 1.6-.5 3.2-.3 4.9 0 .6.2 1.3.5 1.9l1 1.4c.6.4 1.2.6 1.8.6s1.1 0 1.6-.2c.4-.2.8-.5 1-.9.4-.4.6-.9.8-1.3.2-.6.4-1.1.4-1.7.2.7.6 1.4 1.1 1.9.4.4 1 .5 1.6.2.5-.2.8-.5 1-.9.6-.7 1-1.5 1.3-2.4a113.8 113.8 0 0 0 -.2 8c0 .4.2 1 .4 1.4.2.3.6.6 1 .7h.9l.6-.4v-.5c-.3-.3-.4-.7-.4-1.1v-2.3c.6-4.2 1-8.5 1.2-12.8l.8-3.1.7-1c.2-.3.4-.5.8-.5.3 0 .7.2.8.5l.6 1.2c.3 1 .5 2.2.4 3.3a27 27 0 0 1 -.8 4.3l-.5 1.2a1 1 0 0 1 -.6.5c-.2.1-.5 0-.6-.1.3-.2.3-.5.2-.8 0-.2-.2-.3-.4-.4h-.6l-.4.4c-.1.2-.1.5 0 .8.2.5.6 1 1.1 1.1h1.4l.4-.2c.7-.2 1.5-.4 2.2-.8a7.1 7.1 0 0 0 2.8-2.6c.3-.6.6-1 .8-1.7l.7-1.9c0 .4.2.8.3 1.1.3.6.6 1 1 1.4.6.5 1.2.7 1.9.7.6 0 1.2-.1 1.7-.5.5-.2 1-.5 1.4-.9 0 0 5-4.4 5-13.2s-7.7-14.8-12.8-15.3zm4.2 23.3c.1-1.4.3-2.8.8-4.2.3-1 .7-1.7 1.1-1.8.3 0 .6 0 .7.5s.1 1 0 1.6a7.3 7.3 0 0 1 -2.6 4.5zm-55.8 28.5-.3-.1-1.4-.5h-.2c.5-1.1.9-4.1-2.9-4-.8 0-1.6 0-2.4.2l-.5-.4c.8-1 1.3-2.2 1.7-3.4v-1.4c0-.5 0-.8-.2-1.2-.5-1.2-1.7-2-3-1.8-1 0-2 .5-2.7 1.2-.8.8-1.3 1.9-1.4 3 0 .9.3 1.8.8 2.5.6.9 1.3 1.6 2.1 2.3l-.3.4a54.2 54.2 0 0 1 -8.7 3.1c-2.3.3-4.6 0-6.9-.7l-.7-.3a12 12 0 0 1 -4.5-3.3c-.9-1.3-1.5-2.8-1.8-4.4-.7-4.3.6-8.7 3.6-11.8-1.7-3-3.4-8.8 0-13.5 3.4-4.6 10.5-3.7 10.5-3.7a14.4 14.4 0 0 1 13.1-16.4c5.1-.5 10.1 1.6 13.3 5.6 1.4-1.2 3-2.1 4.6-3 4.2-1.7 9.1-1.3 13 1.4l-.3-.2c3.7 2.6 5.1 6.3 4 11.2l-.2.7-.6 1.4-.1.3s-3 6-6.6 2.8l-2.8-2.6 1.4-1.2 1.3-1.3 1.1-1.4c.3-.4.4-.9.6-1.3.1-.4 0-.9-.2-1.2s-.5-.6-.8-.7c-.3-.2-.6-.3-1-.3-.2 0-.3.1-.2.3l-.1.7-.5 1a31 31 0 0 1 -2.5 4.3l-1 1.2c.3-1.2.4-2.4.5-3.6v-.3c.2-.7.2-1.7.2-2.2v-1.1c0-.6 0-1.2-.4-1.6-.2-.4-.5-.7-1-.8-.6 0-1.3.1-1.8.6-.2.2-.2.3 0 .4.1 0 .2.4.2 1v1.2l-.7 7.2c-.3 2.3-1 4.6-2.2 6.7a5 5 0 0 1 -1 1.1c-.3.3-.7.5-1.1.6a.9.9 0 0 1 -.8-.5l-.6-1.2c-.3-1-.4-2.2-.3-3.3l.8-4.2c.1-.5.4-.9.6-1.2.1-.3.4-.5.6-.6.2 0 .4 0 .5.2l-.2.4v.3c.1.2.2.4.5.5h.5c.2 0 .4-.2.4-.4.2-.2.2-.5 0-.8l-.4-.7-.6-.4h-1.4a5.1 5.1 0 0 0 -3 2.4c-.6 1.2-1 2.6-1.3 4v1.2c-.5 2.3-1.3 4.5-2.4 6.6-.3.1-.6 0-.7-.3v-1.5l.4-2.2.4-2.5c.1-.7.2-1.5.1-2.3 0-.6 0-1.2-.4-1.8-.2-.3-.6-.6-1-.7-.7 0-1.4.2-1.9.6-.2.2-.2.4 0 .5.1 0 .2.2.2.5v1.3l-.1 1.7-.2 2c0 1.2 0 2.5.2 3.7 0 .5.2 1 .4 1.3 0 .3.3.6.6.9l.7.4h1c.3-.2.7-.5 1-1l.9-1.4.7-1.9.3-1.3.3 1c.3.6.6 1.1 1 1.5.5.5 1.2.7 1.8.7s1.3-.1 1.8-.4c.7-.3 1.1-.7 1.6-1.2 1-1.1 1.7-2.4 2.1-3.9v2c0 .6.2 1 .4 1.5.3.4.6.6 1 .8h1l.5-.5c0-.2.1-.3 0-.4-.2-.2-.2-.5-.2-.8v-1.5c0-1.5.2-3 .4-4.4l.3-.4.5-.5c.3 0 .7.3 1.2.8l.8 1s1 1.2 1.6 2.3c.7 1 3 2.3 5.6-1.2l.3-.3c.8-1 1.5-2 2-3.1l.2-.1.2-.4.2-.6a16 16 0 0 0 .8-7.4c-.7-5-6-10-12.9-9.7-6.7.4-9.4 3.1-9.4 3.1s-5.8-6.3-14.7-4.9c-8 .9-14 7.7-14 15.8 0 0-8.6.4-11.7 7.3-1.8 4-1.4 8.6 1 12.2a15.3 15.3 0 0 0 -3.3 10c.2 2.1.9 4.1 1.9 6a12.3 12.3 0 0 0 5.8 4.7c2.9 1 6 1.2 9 .5 2.3-.5 4.7-1.4 6.9-2.5l-.1.2a6 6 0 0 0 -.9 3.3c0 .4 0 .9.3 1.3a3 3 0 0 0 2 1.8c.7.2 1.3.2 1.9.2a7.9 7.9 0 0 0 5.4-3.4l.3.1.5.3.7.3.5.2h.5l.4-.3c.2-.3.4-.7.4-1.1v-.6c-.1-.2-.2-.2-.4-.3zm-10.7-9.5c.3-.5.9-.9 1.5-1h.7c.2 0 .3.1.4.3l.2.3.2 1v.9l-.4 1-.3.7-.2.5-.4.4c-1.8-1.6-2.3-3.1-1.8-4zm4.9 11c-.3.4-.7.6-1.1.8l-1 .2h-1a2 2 0 0 1 -.6-.4c-.2-.1-.4-.3-.5-.6l-.1-.8v-1l.3-1 .5-1 3.3 2.3 1 .5c-.2.4-.5.8-.8 1zm2.3-3.3-.2.5-3-2.3.5-.1h.4c1 0 1.7 0 2 .6.3.4.4.9.3 1.3z"/></svg>