<svg xmlns="http://www.w3.org/2000/svg" version="1" viewBox="0 0 1000 1000">
  <path d="M323 122l-11 1-29 9c-40 17-73 52-88 94-4 12-8 32-6 31l3-7c14-39 44-75 77-93a159 159 0 0 1 52-18c3-1 38-2 50-1a160 160 0 0 1 119 79c2 6 5 10 6 10l5-2c18-8 48-16 68-18h41a155 155 0 0 1 135 125c3 14 5 27 5 35v4l7-4c20-10 45-19 66-22 9-1 37-1 47 1 22 3 46 11 63 22 11 7 26 23 31 32 12 21 18 40 21 63a412 412 0 0 1-3 59c-3 13-9 32-15 42-10 19-27 37-36 37-7 0-14-13-15-28-1-5-1-5 3-9 16-14 23-25 29-43 2-9 3-20 2-27-1-5-5-10-9-12-11-5-26 2-40 19a90 90 0 0 0-14 41l-11 44c-7 19-13 32-21 40l-8 7 2-6 6-14c3-13 4-18 4-37 0-17-1-22-6-33-4-9-10-16-17-19-6-2-18-3-24 0-7 2-15 10-21 20-4 7-5 8-5 6l-5-6c-6-7-19-6-25 1-2 2-2 2 0 6l1 21v22l-2 8-5 25c-4 16-10 35-13 40 0 2-2 4-4 4-2 1-3 1-4-1-2-2-2-3-2-12a233 233 0 0 1 3-18 2302 2302 0 0 1 5-52c0-11-1-12-4-18-2-5-4-7-7-9-7-4-16-2-22 3l-3 3 2 3a560 560 0 0 1-3 70l-2 11c-1 7-4 24-6 28-6 17-19 15-25-4-5-15-5-33-1-55l2-8c2-17 10-31 16-31 2 0 2 0 2 4 0 7 0 8 3 9 8 2 13-3 11-11-3-8-8-12-17-12-7 0-11 2-19 6-20 13-30 37-31 72 0 19 1 28 6 38 4 8 12 16 19 18 6 2 16 2 23 0 9-3 18-15 22-31l2-7 3 6c3 6 8 12 12 14 3 2 9 1 14-1 5-3 11-10 16-21l5-8v1c-2 3-3 70-2 78 3 15 14 23 24 19 5-3 6-5 4-11-2-4-2-6-2-20a551 551 0 0 1 8-88l3-43c1-19 7-40 15-51 2-3 7-5 10-4 7 1 10 7 15 24v40c-4 21-8 34-13 41-2 4-3 4-7 4-3 0-3 0-2-1l1-5c0-9-14-9-15 0-1 4 3 11 7 14 5 4 15 4 31-2 17-5 27-12 37-25 5-6 12-20 16-32 3-8 3-9 4-7 3 8 7 14 12 20 5 5 7 6 12 7 20 5 38-7 58-36 13-20 26-52 28-74l2-11a266 266 0 0 0-2-53 164 164 0 0 0-119-125c-6-1-46-1-55 1a368 368 0 0 0-52 11l-3-6c-4-17-17-46-28-64-19-29-44-52-71-64-45-21-98-22-150-2l-13 4-4-5c-6-8-18-22-26-29a187 187 0 0 0-98-41c-10-2-45-2-55 0zm616 372c2 3 2 5 2 12-1 16-8 30-20 43l-7 8 1-6c2-28 8-49 14-56 5-5 7-5 10-1z"/>
  <path d="M285 274l-9 1a188 188 0 0 0-59 22c-12 7-33 25-42 36a164 164 0 0 0-34 95v5l-11 1c-35 6-66 21-85 41a120 120 0 0 0-30 114c4 12 8 23 14 33l4 7-6 9A148 148 0 0 0 6 760c15 49 54 79 110 86 10 1 32 0 40-1a322 322 0 0 0 80-26l-2 5c-5 9-6 13-6 25-1 9 1 16 4 21 7 11 16 15 33 15 19 0 39-10 53-26l7-7 9 4 12 5c3 0 6-3 9-7 2-4 2-13 0-15l-8-4c-13-4-13-4-12-7 2-6 2-14 1-19-2-7-8-14-16-16-6-2-19-3-29-2-10 2-11 2-13 0s-2-2 3-10c15-25 16-46 4-60-3-5-13-10-19-10-9-1-23 3-30 9-13 12-19 29-15 44 3 10 7 17 19 30l8 8-2 2c-8 6-52 23-80 31-10 2-12 2-27 2s-19 0-30-2c-28-7-50-18-67-36-12-12-20-30-24-51a137 137 0 0 1 30-112l6-6-5-9c-19-40-19-83-2-115 7-13 15-22 27-30a119 119 0 0 1 74-19h13l-1-16a142 142 0 0 1 43-107c20-20 44-33 75-39 11-2 37-3 50-2a142 142 0 0 1 89 45l9 10 7-5c19-14 45-27 60-30s21-4 33-4c26 0 53 8 74 22 22 15 36 36 42 59 3 14 2 36-1 53-3 13-15 34-25 46-17 17-33 20-49 7l-22-19-8-7 8-8 28-28c6-9 10-21 7-27-1-3-6-8-9-9-4-2-11-3-12-1v2c1 2-5 15-12 29a446 446 0 0 1-27 38l2-16 1-8a271 271 0 0 0-1-58c-5-10-14-13-24-7-6 3-7 5-5 8s2 23 0 47l-1 10-1 10-1 9-1 8-1 8-1 6-1 6c-4 21-17 54-27 64-11 12-19 13-24 2-6-10-7-19-7-34 0-13 1-19 6-43 2-11 8-22 13-25 4-2 5 0 4 6 0 5 0 5 3 7h7c7-2 6-12-2-19-4-4-4-4-10-4-14 0-28 9-37 24a133 133 0 0 0-17 56c-2 13-11 40-17 53-5 9-6 10-7 10l-3-1c-2-1-2-14-1-19l1-8 2-10 1-9 2-9c3-14 3-35 1-43-3-13-15-18-27-12-6 3-7 5-5 10 3 5 3 19 0 32v58c3 16 13 29 22 27 7 0 16-7 19-14l3-5c3-4 10-24 12-31l1-4 1 4c6 13 11 19 19 23 4 2 6 3 14 3s9-1 15-4c13-6 27-23 36-44l2-5v10c0 12 1 19 5 24 3 5 8 7 14 7 4 0 5-1 8-3 3-3 3-5 1-8v-35l1-11v-9l1-6c1-5 7-13 10-13s14 12 27 29l15 18 7 4c17 5 35-7 57-42 12-17 18-32 22-53 2-12 2-38 0-48-6-39-38-75-80-89a172 172 0 0 0-134 17l-9 5c-1 1-3-1-8-5a204 204 0 0 0-92-43h-46zm-15 459c2 3 5 11 5 17s-3 16-7 25c-5 9-5 9-11 3-14-15-18-28-11-37 6-7 18-11 24-8zm39 69c5 2 8 6 8 12 1 5 0 9-2 9l-4-2-14-11c-14-10-14-10 0-10l12 2zm-44 16l5 4c1 2 23 16 28 19l5 2-3 4c-8 9-17 15-29 16-8 0-12-1-16-7-3-3-3-5-4-12 0-7 0-9 3-17 3-9 4-12 6-12l5 3z"/>
  <path d="M345 420l-2 2-3 22c-1 9 14 17 25 14 3-2 3-1 4-5 2-20 2-21 0-25-2-5-8-8-16-8h-8zM237 470h-5c-11 2-29 9-40 17-8 6-23 21-29 29-9 12-18 32-21 45-1 6-1 27 1 33 4 17 19 32 29 31 5-1 14-8 14-12l-5-7c-8-7-12-15-15-28-1-6 0-27 2-36 4-15 14-33 23-42 11-11 23-16 38-16 11-1 18 1 26 5 17 8 28 22 34 44 2 10 2 29-1 41-6 21-20 38-41 48-3 2-4 3-4 5 0 4 3 5 11 4 24-3 48-23 61-48 10-20 13-41 8-60-8-31-40-54-77-54l-9 1zM663 508c-10 4-17 8-25 16-11 11-19 24-30 51-7 16-15 41-17 53l-2 7-2 7a1400 1400 0 0 1-31 113c-12 30-21 44-28 46-2 0-3 0-5-3-4-5-5-10-4-37v-28c3-17 3-64 1-73-6-24-9-32-19-42-7-6-19-13-29-15l-19-1a182 182 0 0 0-18 2c-24 5-51 23-68 45-12 16-20 35-23 53a174 174 0 0 0 2 34c1 10 8 24 15 31 9 8 16 11 27 10 7 0 11-1 16-5 6-5 12-17 11-24-1-6-3-6-7-4-8 4-13 5-18 3-5-1-11-5-14-9-5-5-9-14-10-24v-31c2-21 20-45 40-56 8-4 15-5 25-5 22 1 38 13 47 33 3 8 5 16 7 33 1 12 0 52-2 74v46c3 18 9 25 21 25 17 0 34-17 53-56a363 363 0 0 0 31-94 791 791 0 0 1 33-117c8-18 22-37 31-42 5-2 12-2 16 1 3 2 4 5 6 15 1 2 2 3 4 3 6 0 21-17 21-25 0-10-18-15-36-10z"/>
  <path d="M206 516c-7 4-7 4-5 14v151c1 10 3 16 8 21s15 4 20-2a515 515 0 0 1 3-109l1-31c0-26-1-33-5-41-3-7-12-8-22-3z"/>
</svg>
