<svg viewBox="0 0 22 9" xmlns="http://www.w3.org/2000/svg"><path d="m1.76 5.64v3h-1.76v-8.51h3.33c.64 0 1.2.11 1.69.35.48.23.86.57 1.12 1s.4.92.4 1.47c0 .84-.3 1.5-.87 1.98s-1.36.72-2.37.72h-1.54zm0-1.42h1.57c.46 0 .82-.11 1.06-.33.25-.22.37-.53.37-.94s-.13-.75-.37-1.01c-.25-.26-.59-.4-1.02-.4h-1.61zm5.13 2.13c0-.4.11-.76.34-1.1.22-.33.62-.7 1.21-1.11a5.97 5.97 0 0 1 -.6-.96c-.14-.3-.21-.61-.21-.94 0-.66.2-1.2.63-1.62a2.3 2.3 0 0 1 1.7-.62c.63 0 1.15.19 1.56.57.4.38.61.85.61 1.42 0 .68-.34 1.28-1.03 1.8l-.65.47 1.47 1.71c.23-.45.34-.95.34-1.5h1.44c0 1.11-.25 2-.76 2.7l1.27 1.48h-1.91l-.44-.5c-.63.4-1.35.62-2.17.62-.84 0-1.52-.23-2.02-.67a2.2 2.2 0 0 1 -.77-1.75zm2.88 1.06c.4 0 .79-.12 1.15-.34l-1.68-1.95-.12.09c-.35.3-.53.65-.53 1.05 0 .34.11.61.33.83.22.21.5.32.85.32zm-.63-5.19c0 .3.18.66.52 1.1l.45-.3c.23-.14.4-.28.48-.42.09-.14.13-.31.13-.5a.7.7 0 0 0 -.22-.52.75.75 0 0 0 -.55-.21.76.76 0 0 0 -.59.23.87.87 0 0 0 -.22.62zm8.63 4.31 1.93-6.41h1.96l-2.97 8.53h-1.84l-2.95-8.53h1.96l1.92 6.41z" fill-rule="evenodd"/></svg>