<svg viewBox="0 0 20 40" xmlns="http://www.w3.org/2000/svg"><path d="m2 0h16a2 2 0 0 1 2 2v36a2 2 0 0 1 -2 2h-16a2 2 0 0 1 -2-2v-36c0-1.1.9-2 2-2zm7.4 36a1 1 0 0 0 -.7.3l-.7.7a.6.6 0 0 0 .4 1h3.2a.6.6 0 0 0 .4-1l-.7-.7a1 1 0 0 0 -.7-.3zm5.6-6a1 1 0 0 0 -1 1v2c0 .6.4 1 1 1h2c.6 0 1-.4 1-1v-2c0-.6-.4-1-1-1zm-12 0a1 1 0 0 0 -1 1v2c0 .6.4 1 1 1h2c.6 0 1-.4 1-1v-2c0-.6-.4-1-1-1zm6-18a1 1 0 0 0 -1 1v14c0 .6.4 1 1 1h2c.6 0 1-.4 1-1v-14c0-.6-.4-1-1-1zm0-8a1 1 0 0 0 -1 1v2c0 .6.4 1 1 1h2c.6 0 1-.4 1-1v-2c0-.6-.4-1-1-1z"/></svg>