<svg xmlns="http://www.w3.org/2000/svg" viewBox="0 0 20 40">
  <path d="M0 38V20.9a5 5 0 0 1 2.5-4.3l4-2.4c.3-.1.5-.4.5-.7 0-.3-.2-.5-.5-.5H5a1 1 0 0 1-1-1v-2c0-.6.4-1 1-1h.5C6.3 9 7 8.3 7 7.5V3a3 3 0 0 1 6 0v4.5c0 .8.7 1.5 1.5 1.5h.5c.6 0 1 .4 1 1v2c0 .6-.4 1-1 1h-1.5c-.3 0-.5.2-.5.5s.2.6.4.7l4 2.4a5 5 0 0 1 2.6 4.3V38a2 2 0 0 1-2 2H2a2 2 0 0 1-2-2zm4 0h12a2 2 0 0 0 2-2V22.7a5 5 0 0 0-2.2-4.2L13.6 17a1 1 0 0 0-1.6.9V34a2 2 0 0 1-4 0V17.9a1 1 0 0 0-1.6-.9l-2.2 1.5A5 5 0 0 0 2 22.7V36c0 1.1.9 2 2 2z"/>
</svg>
