<svg xmlns="http://www.w3.org/2000/svg" viewBox="0 0 20 30">
  <path d="M0 26v-3l.3-.3c.4-.4.4-1 0-1.4L0 21v-1.6c0-.3.1-.5.3-.7l.4-.4c.2-.2.3-.4.3-.7v-5.2a1 1 0 0 0-.3-.7l-.4-.4a1 1 0 0 1-.3-.7V9l.3-.3c.4-.4.4-1 0-1.4L0 7V5.6c0-.4.2-.7.6-.9l1-.5.5-.6.7-2.8a1 1 0 0 1 1-.8h12.4c.5 0 .9.3 1 .8l.7 2.8c0 .2.3.5.5.6l1 .5c.4.2.6.5.6 1V7l-.3.3a1 1 0 0 0 0 1.4l.3.3v1.6c0 .3-.1.5-.3.7l-.4.4a1 1 0 0 0-.3.7v5.2c0 .3.1.5.3.7l.4.4c.2.2.3.4.3.7V21l-.3.3a1 1 0 0 0 0 1.4l.3.3v3c0 .6-.4 1-1 1h-6v1c0 .6-.4 1-1 1 0 .6-.4 1-1 1H9a1 1 0 0 1-1-1 1 1 0 0 1-1-1v-1H1a1 1 0 0 1-1-1zm7-2c0 .6.4 1 1 1h4c.6 0 1-.4 1-1s-.4-1-1-1H8a1 1 0 0 0-1 1z"/>
</svg>
