<svg xmlns="http://www.w3.org/2000/svg" viewBox="0 0 20 40">
  <path fill="#000" fill-rule="evenodd" d="M0 36v-1l.3-.3c.4-.4.4-1 0-1.4L0 33V20l.3-.3c.4-.4.4-1 0-1.4L0 18v-8a5 5 0 0 1 5-5V1c0-.6.4-1 1-1h8c.6 0 1 .4 1 1v4a5 5 0 0 1 5 5v8l-.3.3a1 1 0 0 0 0 1.4l.3.3v13l-.3.3a1 1 0 0 0 0 1.4l.3.3v1c0 .6-.4 1-1 1h-6v1c0 .6-.4 1-1 1 0 .6-.4 1-1 1H9a1 1 0 0 1-1-1 1 1 0 0 1-1-1v-1H1a1 1 0 0 1-1-1zm5-21a1 1 0 1 0 0 2h10a1 1 0 1 0 0-2H5zM2 32c0 .6.4 1 1 1h4c.6 0 1-.4 1-1V22c0-.5-.4-1-1-1H3a1 1 0 0 0-1 1v10zm10 0c0 .6.4 1 1 1h4c.6 0 1-.4 1-1V22c0-.5-.4-1-1-1h-4a1 1 0 0 0-1 1v10z"/>
</svg>
