<svg viewBox="0 0 20 40" xmlns="http://www.w3.org/2000/svg"><path d="m0 36v-1l.3-.3c.4-.4.4-1 0-1.4l-.3-.3v-13l.3-.3c.4-.4.4-1 0-1.4l-.3-.3v-8a5 5 0 0 1 5-5v-4c0-.6.4-1 1-1h8c.6 0 1 .4 1 1v4a5 5 0 0 1 5 5v8l-.3.3a1 1 0 0 0 0 1.4l.3.3v13l-.3.3a1 1 0 0 0 0 1.4l.3.3v1c0 .6-.4 1-1 1h-6v1c0 .6-.4 1-1 1 0 .6-.4 1-1 1h-2a1 1 0 0 1 -1-1 1 1 0 0 1 -1-1v-1h-6a1 1 0 0 1 -1-1zm5-21a1 1 0 1 0 0 2h10a1 1 0 1 0 0-2zm-3 17c0 .6.4 1 1 1h4c.6 0 1-.4 1-1v-10c0-.5-.4-1-1-1h-4a1 1 0 0 0 -1 1zm10 0c0 .6.4 1 1 1h4c.6 0 1-.4 1-1v-10c0-.5-.4-1-1-1h-4a1 1 0 0 0 -1 1z" fill-rule="evenodd"/></svg>