<svg viewBox="0 0 18 20" xmlns="http://www.w3.org/2000/svg"><path d="m11.6 1.6-.7.6-.9-.9.5-.4c.3 0 .7.3 1 .5v.2zm.6.6 1 1-.6.7-1-1zm1.8 1.8 1.6 1.6-1.5 1.5 2.5 2.6c0 .4 0 1 .4 1.3l.3.3c.4.4.4 1 0 1.4l-5.9 5.9a2 2 0 0 1 -1.5.6l-2.6-5.3-1 1 1.9 3.1-4.2-4 .3-.4-2.6-5.3.8-.8 2.5 5.4 1-.8-.7-1.3 1.5-1.5 1.3.6.9-.9-5.5-2.5 1.5-1.5 4 4 .9-1-1.5-1.4 1-.9.5-.8.2-.7-.2-.6a2.2 2.2 0 0 0 -1-1 1.6 1.6 0 0 0 -1.4 0h-.2l1.2-1 4 4zm2.3 2.3 1 1-.7.6-.9-1zm1.3 2-.2.3h-.1zm-15.2 4.1-1-1a2 2 0 0 1 -.5-2zm2.5-2.5-.9-1.9 2 1-1 1zm2.9-4-1.3-1.2.7-.7.3-.2.4-.2h.3c.2 0 .3.1.4.3l.3.3v.4l-.2.3-.3.4zm2.8 9.7-1-2 2 1zm-2.4-2.6 2.5 5.6.9-.9-.6-1.2 1.5-1.5 1.2.6 1-1-5.7-2.4-1 1zm5.2-1.4-1.2-1.2.7-.7.3-.3.3-.1h.4l.4.2.2.4v.4l-.1.3-.3.3zm-2.8-1 4 4 1-.9-1.5-1.4 1-1 .5-.7.1-.7c0-.3 0-.5-.2-.7a2.2 2.2 0 0 0 -1-1 1.6 1.6 0 0 0 -1.3 0l-.8.6z"/></svg>