<svg xmlns="http://www.w3.org/2000/svg" viewBox="0 0 20 20">
  <path d="M15.2 0l-2.8 2.9 5 5L20 5.4V15c0 .6-.4 1-1 1h-1a2 2 0 0 0-2 2v1c0 .6-.4 1-1 1H2a2 2 0 0 1-2-2v-1.3l5.8 2.9 1-1-3.3-6.8-1.1 1 2.7 5-5-2.7-.1.1V2C0 .9.9 0 2 0h13.2zM17 0h1a2 2 0 0 1 2 2v1.6L17.6 6l-1.3-1.3 2.4-2.5-.8-.9-2.5 2.5-1.1-1L17 0zM7.8 13.8L6.4 11l2.7 1.4-1.3 1.3zm-3.1-3.3l3.2 7 1.2-1.2-.7-1.4 1.8-1.8 1.4.7 1.2-1.2-7-3.3-1.1 1.2zM12.5 6c.2.3.3.5.3.8 0 .3-.1.5-.4.8l-1 1L10 7l1-1 .8-.5c.2 0 .5.1.8.4zm1-1c-.5-.6-1.1-.9-1.7-.8-.5 0-1 .3-1.6.8L8 7.2l5 5.1 1.1-1-1.8-1.9 1-1c.7-.6 1-1.2 1-1.7 0-.6-.2-1.2-.8-1.8z"/>
</svg>
