<svg xmlns="http://www.w3.org/2000/svg" viewBox="0 0 18 20">
  <path d="M11.6 1.6l-.7.6-.9-.9.5-.4c.3 0 .7.3 1 .5v.2zm.6.6l1 1-.6.7-1-1 .6-.7zM14 4l1.6 1.6-1.5 1.5 2.5 2.6c0 .4 0 1 .4 1.3l.3.3c.4.4.4 1 0 1.4l-5.9 5.9a2 2 0 0 1-1.5.6l-2.6-5.3-1 1L8.2 18 4 14l.3-.4-2.6-5.3.8-.8L5 12.9l1-.8-.7-1.3 1.5-1.5 1.3.6L9 9 3.5 6.5 5 5l4 4 .9-1-1.5-1.4 1-.9.5-.8.2-.7-.2-.6a2.2 2.2 0 0 0-1-1 1.6 1.6 0 0 0-1.4 0h-.2l1.2-1 4 4L14 4zm2.3 2.3l1 1-.7.6-.9-1 .6-.6zm1.3 2l-.2.3h-.1l.3-.3zM2.4 12.4l-1-1a2 2 0 0 1-.5-2l1.5 3zm2.5-2.5L4 8l2 1-1 1zm2.9-4L6.5 4.7l.7-.7.3-.2.4-.2h.3c.2 0 .3.1.4.3l.3.3v.4l-.2.3-.3.4-.6.6zm2.8 9.7l-1-2 2 1-1 1zM8.2 13l2.5 5.6.9-.9-.6-1.2 1.5-1.5 1.2.6 1-1L9 12.2l-1 1zm5.2-1.4l-1.2-1.2.7-.7.3-.3.3-.1h.4l.4.2.2.4v.4l-.1.3-.3.3-.7.7zm-2.8-1l4 4 1-.9-1.5-1.4 1-1 .5-.7.1-.7c0-.3 0-.5-.2-.7a2.2 2.2 0 0 0-1-1 1.6 1.6 0 0 0-1.3 0l-.8.6-1.8 1.8z"/>
</svg>
