<svg xmlns="http://www.w3.org/2000/svg" viewBox="0 0 100 39">
  <path d="M58 38.8c1.2-.3 2-.9 3-1.7 1-1 1.3-1.6 2.2-4.3l.7-1.9.9-.3c1.9-.6 4-1.8 5.3-3l.6-.7.6.5a7 7 0 0 0 3 1.5 10.6 10.6 0 0 0 8.6-1.6l.5.4a6 6 0 0 0 4.4 1.4c3-.2 5.5-2.2 7.2-6 .7-1.6.6-2.2-.3-2.7-.4-.2-1.3-.2-1.7 0-.5.3-.7.6-1.1 1.5-.7 1.8-1.7 3-2.8 3.6-.5.3-.7.3-1.4.3-.8 0-1.2-.1-1.5-.8-.2-.4-.2-.4.8-3.1l1.2-3.6.7-1.9H90c1.2 0 1.8-.2 2.2-.7.5-.5.6-1.4.3-2-.3-.3-.9-.5-1.7-.6h-.7l.8-2.6c1-2.7 1-3.3.8-4-.2-.5-1-1-1.7-1-.5 0-.7.1-1 .4-.3.1-.6.4-.7.6l-1 2.3-1 3.1-.5 1.2h-1c-1.1.1-1.5.3-2 1-.3.4-.3 1 0 1.6.1.4.4.6 1.1.7h.7L83.2 21c-.8 2.3-1 2.8-2.2 3.6a6.6 6.6 0 0 1-5.8 1.1c-1.2-.4-1.9-1.6-1.4-2.7l.2-.4.6.3c3 1.4 6.8-.4 7.6-3.7a6 6 0 0 0 0-2.8c-.5-1.7-2-2.7-3.8-3-.9-.2-1.2-.2-2.3 0a6.1 6.1 0 0 0-4 3 33 33 0 0 0-1.2 2.9l-.9 2.6a9 9 0 0 1-4.5 4.8l.2-.6.6-1.9 1-2.5c.1-.7.5-1.6.6-2 1-2.5 1.5-4 1.5-4.6 0-1-.3-1.4-1.1-1.7-.9-.3-2 0-2.4.8l-.3.3-.3-.3a4 4 0 0 0-1.9-.8c-.8-.2-2.1 0-2.8.1-1 .4-2.1 1.2-2.8 2.2-.4.6-.6 1.3-1.8 4.7-1 3-1.3 3.6-2 4.4-1 1-2 1.5-2.6 1a.8.8 0 0 1-.3-.6l1.5-4.6 1.7-4.7A1188.7 1188.7 0 0 1 57 7.3c0-.3-.2-.9-.5-1.1-.3-.4-.8-.6-1.5-.6-.4 0-.6 0-1 .3-.6.4-.9 1-1.7 3.3a51 51 0 0 1-1.8 5.1v.3l-.4-.3a4.7 4.7 0 0 0-5-.7c-.8.4-1.8 1.3-2 2a86 86 0 0 0-3 7.9c-.9 1.7-2.6 2.8-3.5 2.2-.3-.2-.2-.6.2-1.9a180.1 180.1 0 0 0 2.1-6c1-2.6 1-3 .7-3.7C39 13 37 13 36.4 14c-.3.4-.6 1.2-2 5a42.2 42.2 0 0 1-1.8 4.8c-1.1 1.9-3.3 2.8-3.3 1.4l.4-1.4.8-2.3 2-5.7c.3-.8.1-1.4-.4-2-.4-.4-.8-.6-1.5-.6-1 0-1.7.6-2 1.8a286.3 286.3 0 0 1-3 7.9 3 3 0 0 1-1.8 1h-.3l.2-.5a7 7 0 0 0 .6-4.5c-.2-1-.4-1.6-1-2.3L23 16l.8-.8c2.8-2.9 2.8-7 0-8.8a6.9 6.9 0 0 0-5.4-.5l-.6.2-.1-.4c-.2-.6-.9-1-1.7-1-1 0-1.9.6-2.3 1.8l-2 5.4-1.2 3.6-1.2 3.2-1 3.2A4778 4778 0 0 0 6 27.8c-.3.5-.9 1-1.4 1.4a7 7 0 0 1-2.6.6 2 2 0 0 0-1.7.8c-.2.3-.3.5-.3 1s0 .6.3 1c.4.8 1 1 2.2 1a8 8 0 0 0 7.6-5.4l.3-.8.5.4a7 7 0 0 0 2.7 1.4c.8.2 2.8.3 3.7.1a8 8 0 0 0 3.6-1.7l.8-.5c.5.2 2.1.2 2.7 0 1.2-.2 1-.2 1.5.4a4 4 0 0 0 3 1.6c1.3.1 2.6-.3 3.7-1.2l.5-.6.5.5c1 1 2.3 1.4 3.8 1.3l1.3-.2c.5-.1 1.5-.6 2-1l.2-.1.5.3c.6.5 1 .7 1.8 1a6 6 0 0 0 4.5-1.1l.3-.4.4.4c.7.6 2 1.2 3.2 1.2 1.1 0 3.1-.7 3.7-1.3.1-.2.2-.2.6.2l1.1.7.6.4-.6.2a9.6 9.6 0 0 0-4.4 2 4 4 0 0 0-1.3 2.2c-.5 2.5 1 4.5 3.7 5.2a7 7 0 0 0 3 0zM96.3 18c.6-.4.6-.5 1.7-3.7 1.8-5 2-6 2-7.6 0-3.7-2.4-6-7-6.7a3551.3 3551.3 0 0 0-72.6 0 3 3 0 0 0-.9 1l-.1.7c0 .7.3 1.3.8 1.6l.3.2h35.8l35.7.1.8.3c2 .5 3 1.4 3.2 3 .2 1 0 1.7-1.8 6.8-.8 2.4-.9 2.8-.6 3.4.2.5.6.9 1 1 .5.2 1.3.1 1.7-.1zm-37 19.2c-.3 0-.2-.3.6-1 .6-.7.9-1 1.2-1.7l.6-.9.3.2c.1.4-1 2.3-1.9 3-.6.5-.7.5-.9.4zm-3.6-1.9c-.6-.2-.5-1.3.2-2 .5-.4 2.7-1.3 2.9-1.1 0 0-.6 2-1 2.4-.5.7-1.4 1-2 .7zm-1-4c-.4-.4 0-.6 1.4-1 1.5-.5 2.1-.6 2.3-.4v.3l-.3.2c-.3 0-1.9.4-2.6.7-.8.3-.7.3-.9.1zm-53-.5c-.2-.3 0-.4.9-.5 1.5 0 2.6-.6 3.6-1.7.6-.6 1-.7 1-.4 0 .5-1.3 1.7-2.2 2.1-1.3.6-3.2.9-3.4.5zm63.9-3c-.2-.3 0-.4.8-1 1-.5 2-1.3 2.7-2.1.6-.7.9-.9 1-.6.2.5-1.9 2.5-3.7 3.5-.5.3-.7.3-.8.1zm-36-.9c0-.2.2-.4.6-.4.9 0 2.3-1.2 3-2.6.5-.7.6-.8.9-.6.2.1 0 .5-.6 1.4-1 1.4-2.3 2.4-3.3 2.4-.3 0-.5 0-.5-.2zm7.5.1c-.2-.2 0-.5.2-.5h.6c.7-.3 1.4-.8 2-1.4.4-.5.7-.7.8-.4.2.4-1 1.6-1.9 2-.5.3-1.6.5-1.7.3zm16-.5l.3-.4a6 6 0 0 0 1.6-1.6l.6-.9c.2-.3.2-.3.4 0 .2 0 .2.1 0 .6l-.9 1.1c-.9 1.1-1.8 1.7-2 1.2zm27.4-.4c-.3-.1 0-.4.8-1l1.9-2c.2-.3.5-.2.5 0 0 .8-2.6 3.2-3.2 3zm-66-.3l-.5-.4c-.3-.2-.3-.3-.2-.7 0-.9.8-1.5 2-1.5a3 3 0 0 1 2 1c.5.4.5.5-.3 1s-2 .8-3 .6zm44.4-.3c-.4-.4-.4-.6.1-2l1-2.9 1-2.5c.3-1.3.8-1.8 1.7-1.8.8 0 1.5.7 1.5 1.5l-.3 1.3-.7 1.8c-1 2.7-1.2 3.3-1.5 3.7-.5.8-1.3 1.2-2 1.2-.4 0-.6 0-.8-.3zm32.3-.6v-.3l.4-.7.8-1.6c.5-1 .8-1.4 1.2-1.5.3 0 .5.1.5.4l-.3.3c-.3 0-.4.2-.6.6a9.5 9.5 0 0 1-1.7 2.9h-.3zm-46.5-.2c-.4-.1-.5-.7-.4-1.4a78 78 0 0 1 1.9-5.4c.6-1.5 1.8-1.8 2.4-.6.1.4.2.6.1 1 0 .6-1.3 4.1-1.7 5-.3.6-.8 1.1-1.3 1.4-.5.2-.7.2-1 0zm-26.3-1a4 4 0 0 0-2.2-1.1c-.7-.1-1-.3-.6-.6 0-.1.2-.1.8 0 .9.1 1.6.5 2.4 1.2.5.5.5.6.4.7-.1.3-.3.3-.8-.2zm1.1-2.5c-.3-.3-1.4-1-2-1.1l-.7-.2a9 9 0 0 0-3.6.3c-.2 0-.2.2 1.2-4l1.3-3.4c.6-1.7.7-2 1.4-2.6.9-.8 2.6-1.2 3.5-.7l.6.5c.5.9 0 2.5-1 3.1l-.4.2-.5-.2a4 4 0 0 0-1.4-.2c-1.2 0-1.8.5-2.4 1.6-.3.8-.3 2 0 2.6a3.1 3.1 0 0 0 3.2 1.3c.5-.2 1 0 1.2.5.3.4.3 1.5.1 2.1-.1.5-.2.5-.5.2zm3.7-1l-.1-.8c0-.8-.3-1.5-1.2-2.7-.1-.2-.1-.2 0-.4.3-.2.4 0 1 .7.5.8.8 1.8.8 2.6 0 .6 0 .7-.2.7-.1 0-.3 0-.3-.2zm53-.7c-.5 0-1-.2-1-.3 0 0 0-.5.3-1 .5-1.4 1-1.9 1.8-1.9 1.4 0 1.6 2.4.3 3-.4.2-1 .3-1.4.2zM30 19.4c-.2 0-.2-.3.4-2 .8-2.4.8-2.3.7-2.5 0-.3-.3-.4-.8-.5V14c.3 0 1 .1 1.1.4.4.4.5.8.3 1.4l-.8 2c-.6 1.8-.6 1.9-1 1.7zm34.8-.5v-.8c0-.8-.2-1.3-.6-1.7-.3-.4-1-.7-1.4-.7-.5 0-.8-.5-.3-.6.4-.2 1.5.3 2 .8.6.6.9 1.2 1 2l-.2 1c-.2.1-.3.2-.5 0zm-15.5-1.1c-.1-1.1-.6-1.7-1.8-2-.2 0-.3 0-.2-.2 0-.5 1.3-.2 2 .5.3.3.6 1.3.6 1.7 0 .4 0 .5-.3.5-.2 0-.2 0-.3-.5zm31.8-.8l-.4-.6a2 2 0 0 0-.8-1c-.7-.6-1.2-.8-2-.8-.8-.1-1-.3-.9-.6.1-.2.2-.2.7-.1 1.2.1 2.2.5 2.9 1.2.4.5.9 1.3.9 1.7 0 .2-.2.3-.4.2zm-37.6-.2v-.5a3.8 3.8 0 0 1 3-2.4c.7 0 1 0 1 .2 0 .3-.2.4-.9.5-1 0-1.9.7-2.4 1.7-.4.6-.5.7-.7.5zm-7-1.5c0-.4.5-1.1 1-1.4.9-.3 2 .8 1.4 1.3-.1.2-.4 0-.4-.3l-.3-.3c-.4-.2-.7 0-1 .4-.2.4-.5.6-.6.3zm31.5-.2v-.3l-.2-.3h-.4c-.2-.2-.2-.5 0-.6.2-.1.9.1 1 .4.2.3.2.8-.1.8H68zm-49.6-.7h-.8c-.5 0-.7 0-.7-.3s.3-.4 1-.4c.8 0 1.4.3 1.4.6 0 .2-.3.2-.9.1zm71 0c-.4-.3-.7-.8-.7-1.2l.9-3a49 49 0 0 0 1-3c0-.2-.3-.3-.5-.3-.1 0-.3 0-.3-.2-.4-.3 0-.6.6-.4.5.1.8.6.7 1.1 0 .2-.4 1.6-1 3-1 3.1-1 3.2-.3 3.4.5.2.6.4.3.6-.1.2-.2.2-.6 0zm-35-2.9l.6-2 .6-2.2c0-.3-.2-.4-.5-.4s-.4-.4-.2-.6c.1-.1.2-.1.8 0 .3.2.5.6.5 1 0 .3-.6 2.4-1.2 3.8-.2.5-.5.7-.6.4zm-29.8-1.1l-.1-.6c0-1-.9-2.1-2-2.6-.5-.3-.6-.3-2-.3-1.2 0-1.4 0-2 .2-.4.2-.5.2-.6.1-.2-.2 0-.4.7-.7.6-.2.8-.3 1.9-.3a4.5 4.5 0 0 1 3.7 1.4c.9 1 1.3 3 .6 3l-.2-.2zM14.4 7c-.3-.4.5-1.4 1.3-1.6.4 0 1 .1 1.2.4.3.5 0 .8-.4.4s-1-.2-1.5.5c-.3.5-.4.5-.6.3zm84.3-1.2l-.2-.6c-.5-1.7-1.9-2.8-4.2-3.4l-1.7-.4-32-.1-31.3-.1V.9c0-.2 1.7-.2 31.4-.2L93 .8c3.3.6 5.3 2 6 4.1.2.6.2.7.1.8-.1.2-.2.2-.4 0zm-4.4-2L93 3.2c-.8-.2-1-.4-.8-.6.1-.2.2-.2.6-.1 1 .2 2.3.8 2.3 1 0 .2-.2.4-.3.4l-.5-.3z"/>
</svg>
