<svg xmlns="http://www.w3.org/2000/svg" viewBox="0 0 100 23">
  <path d="M96.56 3.37a11.44 11.44 0 0 1 3.36 8.12c0 3.17-1.28 6.05-3.36 8.13A11.44 11.44 0 0 1 88.44 23a11.4 11.4 0 0 1-8.11-3.37 11.44 11.44 0 0 1-3.37-8.13c0-3.16 1.29-6.05 3.37-8.12A11.43 11.43 0 0 1 88.44 0c3.17 0 6.04 1.3 8.12 3.37zm-22.3-.92H62.78A8.96 8.96 0 0 0 56.4 5.1a8.99 8.99 0 0 0-2.64 6.4 8.99 8.99 0 0 0 2.64 6.4 8.99 8.99 0 0 0 6.4 2.65h11.47V23H62.78a11.41 11.41 0 0 1-8.11-3.37 11.47 11.47 0 0 1-3.36-8.13c0-3.16 1.29-6.05 3.36-8.12A11.47 11.47 0 0 1 62.78 0h11.48v2.45zm-29 .92a11.49 11.49 0 0 1 3.36 8.12c0 3.18-1.3 6.05-3.37 8.13A11.41 11.41 0 0 1 37.14 23a11.4 11.4 0 0 1-8.12-3.37 11.44 11.44 0 0 1-3.36-8.13c0-3.16 1.28-6.05 3.36-8.12A11.43 11.43 0 0 1 37.14 0c3.16 0 6.03 1.3 8.11 3.37zm43.18-.92a8.96 8.96 0 0 0-6.39 2.65 9 9 0 0 0-2.65 6.4 9.09 9.09 0 0 0 2.64 6.4 9.05 9.05 0 0 0 12.8 0 9.05 9.05 0 0 0 2.65-6.4 9 9 0 0 0-2.65-6.4 8.97 8.97 0 0 0-6.4-2.65zm-51.3 0a9 9 0 0 0-6.4 2.65 9.04 9.04 0 0 0-2.65 6.4 9.09 9.09 0 0 0 2.65 6.4 9.05 9.05 0 0 0 6.4 2.65 8.99 8.99 0 0 0 6.39-2.66 8.99 8.99 0 0 0 2.64-6.4 8.99 8.99 0 0 0-2.64-6.4 8.96 8.96 0 0 0-6.4-2.64zM7.57 0v15.41h15.4v2.44H5.12V0h2.44zm66.7 7.58H62.78a3.9 3.9 0 0 0-2.77 1.15 3.88 3.88 0 0 0-1.14 2.76c0 1.08.43 2.07 1.14 2.78a3.92 3.92 0 0 0 2.76 1.14h11.48v2.44H62.78a6.34 6.34 0 0 1-6.34-6.35c0-1.75.7-3.34 1.86-4.5a6.31 6.31 0 0 1 4.48-1.86h11.48v2.44zM41.63 7a6.33 6.33 0 0 1 1.86 4.5 6.34 6.34 0 0 1-1.87 4.5 6.32 6.32 0 0 1-4.48 1.85A6.32 6.32 0 0 1 32.65 16l-.01-.02a6.37 6.37 0 0 1 0-8.98h.01a6.28 6.28 0 0 1 4.49-1.86c1.74 0 3.33.7 4.48 1.86zm51.3 0a6.33 6.33 0 0 1 1.86 4.5 6.33 6.33 0 0 1-1.86 4.48V16a6.36 6.36 0 0 1-8.97 0v-.01a6.31 6.31 0 0 1-1.86-4.5c0-1.75.7-3.34 1.86-4.49a6.27 6.27 0 0 1 4.48-1.86A6.32 6.32 0 0 1 92.94 7zm-4.49.57c-1.08 0-2.06.45-2.76 1.16a3.91 3.91 0 0 0-1.15 2.76 3.96 3.96 0 0 0 1.14 2.78 3.95 3.95 0 0 0 2.77 1.14 3.87 3.87 0 0 0 2.77-1.14 3.92 3.92 0 0 0 1.15-2.78 3.92 3.92 0 0 0-3.92-3.92zm-51.3 0c-1.08 0-2.07.45-2.78 1.16a3.88 3.88 0 0 0-1.14 2.76c0 1.08.44 2.07 1.14 2.78a3.95 3.95 0 0 0 2.78 1.14 3.92 3.92 0 0 0 2.76-1.14 3.91 3.91 0 0 0 1.14-2.78 3.88 3.88 0 0 0-1.14-2.76 3.88 3.88 0 0 0-2.76-1.16zM0 0v22.99h22.96v-2.44H2.44V0H0z"/>
</svg>
