<svg viewBox="0 0 100 100" xmlns="http://www.w3.org/2000/svg"><g fill="none"><path d="m0 0h100v100h-100z" fill="#fff480"/><path d="m64.6 79.9v-3.2l1.6 1.6 1.7 1.6 1.6-1.6 1.7-1.6v6.3h4.2v-7.8c0-9.3 0-9.3-4.5-4.5l-3 3.1-3-3.2c-4.5-4.8-4.6-4.7-4.6 4.6v7.8h4.3v-3zm-17-1.5c-2.6-2-1.2-6.7 2.1-6.7 2.4 0 3.8 1.4 3.8 3.8 0 1.5-.3 2.2-1.2 2.8a3.8 3.8 0 0 1 -4.7.1zm6.2 4a8.2 8.2 0 0 0 4.2-7c0-2.5-1.8-5.6-4-6.9-5.4-3-12 1-12 7 0 2.8 1.7 5.7 4.2 7 2.6 1.3 5 1.3 7.6-.1zm-23.8-2.7v-3.4l3.8 3.4c2 1.8 4 3.3 4.4 3.3.7 0 .8-.9.8-7.5v-7.6h-4.2v7.3l-3.8-3.9a23.7 23.7 0 0 0 -4.5-3.9c-.4 0-.5 2-.5 7.8v7.8h4zm34.5-25.3v-3.2l1.6 1.6 1.7 1.6 1.6-1.6 1.7-1.6v6.3h4.2v-7.7c0-9.4 0-9.5-4.6-4.7l-3 3.2-2.9-3.2c-4.4-4.8-4.6-4.7-4.6 4.7v7.7h4.4v-3.1zm-17-1.4c-2.7-2.2-1.2-6.8 2.3-6.8 2.8 0 4.2 2.2 3.3 5-.8 2.6-3.5 3.4-5.6 1.8zm4.8 4.5c2.2-.6 5-3.6 5.4-5.8 1-5.6-3-10.1-8.7-9.6-3 .2-4.6 1.3-6.1 4a8 8 0 0 0 3.3 10.9 7.4 7.4 0 0 0 6.2.5zm-22.3-3.5v-3.7l3.7 3.7c5.3 5.2 5.3 5.2 5.3-3.9v-7.6h-4.2v6.9l-3.6-3.7c-5.3-5.3-5.3-5.3-5.3 4.2v7.7h4.1zm34.5-25.7v-3.3l1.6 1.8 1.7 1.8 1.6-1.9 1.7-1.8v6.8h4.2v-7.8c0-7.3 0-7.8-.9-7.8-.5 0-2.1 1.4-3.7 3.1l-2.7 3.1-3-3.2c-4.5-4.8-4.7-4.6-4.7 4.7v7.8h4.3v-3.4zm-17 .3v-3h4.2v6.1h4.4v-15.2h-4.2v5.2h-4.4v-5.2h-4.2v15.1h4.2zm-10 1.7c2.3-1.8 2.9-3 2.9-6.4 0-2.2-.2-3.3-1-4.5-2.3-3.2-7-4.3-10.8-2.3-3.4 1.7-4.7 6.6-2.9 10.6 1 2.2 1.8 3 4.2 3.8 2.5 1 5.6.4 7.7-1.2zm-6.5-3c-.8-.4-1.4-1.2-1.6-2.3-.7-2.5.7-4.3 3.4-4.5 1.5-.1 2 0 2.6 1 1.2 1.6 1 4.3-.5 5.4-1.4 1.2-2.3 1.3-4 .4z" fill="#000"/></g></svg>