<svg viewBox="0 0 100 25" xmlns="http://www.w3.org/2000/svg"><path d="m4.8 24.2a6 6 0 0 1 -4.8-5.3c-.1-1.1-.1-1.3.2-1.6.1-.2.4-.2 1.2-.2 1.3 0 1.6.1 1.6.8l.3 1.1c.7 2.3 3.7 3.2 5.7 1.8.8-.7 1.4-1.5 1.2-2.6 0-.7 0-1.1-.4-1.8-.7-1.2-1.5-1.9-3.7-3.1-3.2-1.7-4.3-2.7-5.1-4.3-.4-1-.4-1-.4-2.7 0-1.8 0-2 .2-2.7.9-1.6 2.4-2.9 4.2-3.3 1-.3 2.6-.3 3.5-.3 2.4.6 4.5 2.8 4.8 5 .1 1.2-.2 1.3-1.6 1.3-1 0-1.5-.1-1.5-.7 0-.8-1.1-2-2.2-2.5-2-.8-4.2.6-4.5 2.5-.1 1.7 1 3 4 4.5l2.4 1.4c2 1.3 3.1 3 3.5 4.9a6.6 6.6 0 0 1 -4 7.6c-.9.2-3.8.2-4.6.1zm17-.4-.3-.2v-11.4c0-11.2 0-11.4.3-11.6.3-.3.4-.3 3.7-.3 3.9 0 3.7 0 3.7 1.5 0 1.4 0 1.4-2.5 1.4h-2v18h2c2.5 0 2.5 0 2.5 1.5s.2 1.4-3.7 1.4c-2.8 0-3.4 0-3.7-.3zm17.4 0c-.3-.3-.3-.4-.3-11.8l.3-11.6 3.3-.1c3.4 0 4.4.1 5.3.5 1 .5 2.1 1.6 2.5 2.6.3.7.5 1 .5 2.9 0 2.7-.2 3.2-1 4.5l-.7.8.6.4.8 1.4.5 1v5.6l-.4.8a6.3 6.3 0 0 1 -4.2 3.1c-2.4.2-4.8.2-7.2-.1zm7-3c.7-.2 1.5-1 1.6-1.5.3-.6.2-3.8 0-4.3a4.3 4.3 0 0 0 -1.6-1.9h-4.3v8h2c1.6 0 2 0 2.4-.3zm-.2-10.7 1-.6c.8-.7 1-1.1 1-2.8s-.2-2.4-1.2-3c-.5-.3-.7-.3-2.6-.5h-2.2v7h1.6l2.3-.1zm14.7 13.8c-.3-.1-.3-.3-.3-1.2 0-1.6 0-1.6 2.5-1.6h2.1v-17.9h-2.1l-2.2-.1c-.3-.2-.3-.3-.3-1.3 0-.8 0-1.1.3-1.2.1-.3.7-.3 3.5-.3 3.2 0 3.3 0 3.6.3.3.2.3.4.3 11.6s0 11.3-.3 11.6-.4.3-3.6.3zm16.7 0c-.2-.1-.2-1-.2-11.7s-.2-11.6.1-11.8h7.7c1.1.3 2 .9 2.8 1.8 1 1.3 1.2 1.8 1.2 5.8 0 3 0 3.3-.3 4.2-.4 1-1 1.8-2 2.3l-.7.5 1 2 2.5 6.6v.5h-1.4c-1.1 0-1.4 0-1.5-.3l-2-4.2-1.7-4h-2.9v4c0 4 0 4.2-.3 4.3h-2.4zm7-11.5a4 4 0 0 0 1.6-1.4v-6.2l-.4-.5c-.7-1-1.3-1-3.5-1h-2v9.3h2zm11.2-4.7c-.8-.3-1-.4-1-.8a35 35 0 0 1 2.7-6.5h1.7c1 .2 1.1.2 1.1.4l-2.8 7c-.3.3-1 .2-1.7-.1z" fill-rule="evenodd"/></svg>