<svg xmlns="http://www.w3.org/2000/svg" viewBox="0 0 100 56">
  <g fill="none" fill-rule="evenodd">
    <path fill="#000" fill-rule="nonzero" d="M8 7.7A11 11 0 0 1 13 9a2.2 2.2 0 0 1 .4 3.3c-.3.5-.9.7-1.4.7h-1l-1-.5-1-.3-1.2-.1a3 3 0 0 0-1.7.6c-.5.3-.7.8-.7 1.4 0 .6.5 1.2 1.7 1.6l3.7 1.3c1.2.3 2.5 1.1 3.4 2 1 1.2 1.5 2.7 1.4 4.2a7 7 0 0 1-3.9 6.3c-1.3.5-2.5.8-4 .8-1.6 0-3.3-.3-5-.8C1.2 29 .4 28 .4 26.8c0-.6.2-1.1.5-1.5.4-.5 1-.7 1.5-.7l1 .2 2.9.9a4 4 0 0 0 3-.2c.8-.4 1.4-1.3 1.4-2.3 0-.6-.3-1.2-.8-1.5L6 20.4a12 12 0 0 1-4.3-2.1c-1-1-1.4-2.3-1.3-3.6a7 7 0 0 1 1-3.8 7 7 0 0 1 2.8-2.4c1.2-.6 2.5-.8 3.8-.8zm9 19.6l2.8-17a3.2 3.2 0 0 1 3-2.5c.7 0 1.4.3 2 .7.5.4.9 1 1 1.6l3.7 12L33.3 10a3.4 3.4 0 0 1 3-2.2c.8 0 1.5.2 2 .7.6.4 1 1 1 1.6l2.9 17.1v.6a2 2 0 0 1-.6 1.6 2 2 0 0 1-1.6.6c-.7 0-1.2-.1-1.7-.5a3 3 0 0 1-.7-1.7l-1.7-12.4h-.1L32 28.2a2.3 2.3 0 0 1-2.5 1.8c-1 .1-2.2-.6-2.4-1.8l-3.7-12.8L21.5 28c0 .6-.2 1.2-.6 1.7-.5.3-1.2.6-1.8.5-.6 0-1.1-.2-1.6-.7A2 2 0 0 1 17 28v-.6zm51.2.5V10.1c0-.6.2-1.2.7-1.6.4-.4 1-.7 1.6-.7.6 0 1.3.2 1.7.7.4.4.6 1 .6 1.6v6.7l7.6-8c.4-.6 1-.9 1.8-.9.6 0 1 .2 1.5.6.5.4.7 1 .7 1.6 0 .4-.1.8-.3 1.1-.4.5-.7 1-1.2 1.3l-5.8 5.7 7 7.4c.8.7 1.3 1.4 1.3 2.4 0 .6-.2 1.1-.6 1.5a3 3 0 0 1-1.7.6c-.4 0-.8 0-1-.3-.5-.4-1-.7-1.3-1.1l-8-8.6v7.7c0 .7-.2 1.3-.6 1.6-.5.5-1 .7-1.7.7-.6 0-1.2-.2-1.6-.7a2 2 0 0 1-.7-1.6zm18.8-.2V10.8c0-.7.2-1.4.6-2 .4-.5 1-.8 1.8-.8H97a2 2 0 0 1 1.5.7c.7.7.8 1.7.4 2.5a2 2 0 0 1-.8.8c-.3.2-.8.3-1.1.3h-5.5v4.5h5c.7 0 1.3.2 1.8.6.8.8.8 2.1 0 3-.5.4-1 .6-1.7.6h-5v4.6h5.7c.5 0 1.1.2 1.6.7.6.7.7 1.7.3 2.5l-.8.8a2 2 0 0 1-1.2.3h-7.9c-.6 0-1.3-.2-1.7-.6-.5-.4-.7-1-.6-1.7zM.2 53V37.5c0-.5.2-1 .6-1.4.4-.4 1-.7 1.4-.6.6 0 1 .2 1.5.6.4.4.6.9.5 1.4v5.8l6.7-7a2 2 0 0 1 1.5-.8c.5 0 1 .2 1.4.6.4.3.6.8.6 1.4l-.3 1-1 1.1-5.1 5 6.2 6.5c.6.5 1 1.2 1.1 2 0 .6-.2 1-.6 1.4a2 2 0 0 1-1.5.4c-.4 0-.6 0-1-.2l-1-1-7-7.6v7c0 .5-.2 1-.5 1.3-.4.4-1 .6-1.5.6s-1-.2-1.4-.5c-.4-.4-.6-1-.6-1.5zm16.4 0V37.5c0-.6.2-1.1.6-1.6.8-.7 2-.7 3 0 .3.5.5 1 .4 1.6v15.3c0 .6 0 1.2-.5 1.6-.8.7-2 .7-2.9 0-.4-.4-.6-1-.6-1.6zm9.7 0V39.3h-2.9c-.5 0-1-.2-1.4-.5-.3-.4-.4-.8-.4-1.3 0-.4 0-.7.2-1l.6-.7a2 2 0 0 1 1-.3h9.9c.7 0 1.3.4 1.6 1 .2.3.2.6.2 1s-.2.9-.5 1.2c-.3.4-.8.6-1.3.6h-3V53c0 .6-.1 1.2-.6 1.6-.8.7-2 .7-2.8 0-.4-.4-.6-1-.6-1.6zm25.5 0V37.5c0-.6.2-1.1.6-1.6.8-.7 2-.7 2.9 0 .3.5.6 1 .6 1.6v5.7h8.4v-5.7c0-.6.2-1.1.6-1.5.4-.4.9-.7 1.4-.6.5 0 1.1.2 1.5.6.4.4.6 1 .5 1.5v15.3c0 .6-.1 1.2-.6 1.6a2.3 2.3 0 0 1-2.9 0c-.4-.4-.6-1-.6-1.6V47h-8.4v6c0 .5-.2 1-.5 1.5-.9.7-2.1.7-3 0-.3-.4-.6-1-.5-1.6zm18.9-.2V38c0-.7.2-1.3.6-1.7.4-.5 1-.7 1.5-.7h6.7c.5 0 1 .2 1.4.5.6.7.6 1.6.3 2.3-.3.6-1 1-1.7.9h-4.8v4h4.5c.5-.1 1 .1 1.4.5.7.7.7 1.9 0 2.6-.3.4-.9.6-1.4.6h-4.5v4h5c.6 0 1 .1 1.4.5a1.9 1.9 0 0 1-.3 3l-1 .2h-7c-.5 0-1-.2-1.5-.6-.4-.3-.6-.8-.6-1.4zm12.3.1V37.6c0-.6.2-1.1.5-1.6a2 2 0 0 1 2.4-.2c.4 0 .6.3.8.6l8.5 11.4V37.7c0-.7.2-1.2.6-1.6.4-.4 1-.7 1.5-.6.5 0 1 .2 1.4.6.4.4.7 1 .6 1.5v15.3c0 .6-.2 1.2-.6 1.6-.6.6-1.5.6-2.3.2a2 2 0 0 1-.8-.6L87 43v10c0 .6-.2 1-.5 1.5a2 2 0 0 1-1.5.6c-.5 0-1-.2-1.4-.5-.4-.4-.6-1-.6-1.6z"/>
    <path fill="#4BB649" fill-rule="nonzero" d="M54.7 30a11 11 0 1 1 0-22 11 11 0 0 1 0 22zm0-17.3a6.3 6.3 0 1 0 0 12.6 6.3 6.3 0 0 0 0-12.6zM58.5 0c-1.8.1-3.4.8-4.8 1.8-.5.5-.7 1.1-.7 1.8.1 1 .9 1.7 1.8 1.8.6 0 1.3-.2 1.8-.7 1-1.3 1.6-3 1.8-4.7z"/>
    <path fill="#000" d="M47.7 50.3H46.8a4 4 0 0 1-1.7.4 5.5 5.5 0 1 1 2-10.6h.6a2 2 0 0 0 .7-4 9.7 9.7 0 1 0 0 18.3 2 2 0 1 0-.7-4.1z"/>
  </g>
</svg>
