<svg xmlns="http://www.w3.org/2000/svg" viewBox="0 0 100 26">
  <path fill="#000" fill-rule="nonzero" d="M0 13V.6h6.6l3.3 4.7 3.3 4.6V.6H21v24.8h-6.6l-3.3-4.7-3.3-4.6v9.3H0V13zm23.5 0V.6h8.4v24.8h-8.4V13zm22 13a14 14 0 0 1-4.8-1.5c-3.6-1.7-6-5-6.7-9a20 20 0 0 1 0-5.1C35 6 37.6 2.7 41.5 1c2-.8 3.5-1 6-1 2 0 2.9.2 4.6.8 1 .3 3 1.3 3.5 1.6l.2.2L54 6l-2 3.5-.5-.2A7.2 7.2 0 0 0 45.8 8c-1.2.3-2.3 1-3 2-.6.9-.8 1.6-.9 2.6a5.1 5.1 0 0 0 4.3 5.3c.8.2 2 .1 2.9 0a9.3 9.3 0 0 0 3.2-1.7L56 23c0 .1-.8.7-1.6 1.1a16.5 16.5 0 0 1-9 1.7zm15.9-.7l1-1.1a37.5 37.5 0 0 0 4-5.6s-.2-.2-.7-.3a9 9 0 0 1-6.2-6.5c-.2-.6-.2-1-.2-2.4 0-2 .1-2.7.8-4A8.6 8.6 0 0 1 64.2 1a10 10 0 0 1 11.2 1.7c2.9 3 3.5 7.2 1.9 12.1-1 3.1-3.4 6.8-6 9.6l-1 1h-8.9zm8.3-14c.4-.1.6-.4.8-.7.2-.4.3-.5.3-1 0-.6 0-.8-.3-1.2l-.7-.7c-.4-.2-.5-.3-1.1-.3-.6 0-.7 0-1 .3-.7.3-1 1-1.1 1.6 0 .8 0 1.2.5 1.7.4.5 1 .7 1.6.7.5 0 .6 0 1-.3zm19 14.6c-4.7-.5-7.6-4-8.4-9.8-.2-1.3-.2-4.5 0-5.8.5-5 2.6-8.3 6-9.6 2-.8 5.1-.8 7.2-.1 3.2 1 5.4 4 6.2 8.3.4 2.3.4 5.7 0 8-.6 3.6-2.2 6.4-4.6 7.8-2 1.1-4.2 1.5-6.5 1.2zm1.7-7.2c.5-.1 1-.6 1.3-1.1.5-1.1.8-3.6.6-5.9-.2-3-.8-4.3-2-4.4-1.2 0-1.9.8-2.3 2.6-.2 1.1-.2 5.1 0 6.2.3 1.4.8 2.3 1.6 2.6.4.1.4.1.8 0z"/>
</svg>
