<svg xmlns="http://www.w3.org/2000/svg" viewBox="0 0 100 100">
  <g fill="none" fill-rule="evenodd">
    <path d="M25 50a25 25 0 1 1 0-50 25 25 0 0 1 0 50z"/>
    <path fill="#0d111a" d="M42.7 83.3l-.4 1.2c-.4 1.1-1 2-1.7 2.6-.7.7-1.8 1.2-3.4 1.7-1.4.4-2.4.9-3 1.3-.6.4-1 .9-1.2 1.5-.2.8-.2 1.4.2 2s1.1 1 2.1 1.4c1.7.6 3.8.7 6.3.3l.6 4.4c-3 .6-5.9.3-8.7-.7a9 9 0 0 1-5-3.6 5.9 5.9 0 0 1-.4-5.2c.4-1.2 1-2.2 2-3 .8-.6 2.2-1.3 4.2-1.9l2.6-1a3 3 0 0 0 1-1.6l.4-1zm2.6-5.7c-.4 1-.9 1.6-1.5 2-.7.2-1.5.2-2.5-.1-1-.4-1.5-.9-1.9-1.5s-.3-1.5 0-2.5c.3-.8.8-1.5 1.5-1.8s1.5-.3 2.4 0c1 .3 1.6.8 2 1.5a3 3 0 0 1 0 2.4zm-26.9-17l-1.3.4c-1.1.2-2.1.2-3-.2-1-.3-2-1-3.2-2-1.1-1.1-2-1.8-2.6-2-.7-.3-1.3-.4-2-.3a2 2 0 0 0-1.6 1.3c-.2.6-.3 1.4 0 2.4A14 14 0 0 0 7.5 66l-3.4 2.7c-2-2.3-3.3-4.9-4-7.8-.4-2.5-.2-4.5.6-6.2A5.8 5.8 0 0 1 5 51.5c1.3-.3 2.4-.2 3.5.2 1 .4 2.3 1.3 3.8 2.7 1 1 1.8 1.5 2.3 1.7.5.2 1.1.3 1.8.1l1-.2zm6-.6c-.9.2-1.7.1-2.3-.3-.6-.4-1-1.2-1.2-2.2-.2-1-.1-1.8.3-2.4.4-.7 1-1 2-1.3 1-.2 1.7 0 2.4.4s1 1.1 1.2 2c.2 1 .1 1.9-.3 2.5-.4.7-1 1.1-2 1.3zm.6-32l-.9-1a6 6 0 0 1-1.5-2.7c-.2-1-.1-2.2.2-3.8.3-1.6.4-2.7.3-3.3 0-.7-.3-1.3-.8-1.8a2 2 0 0 0-1.8-.8 4 4 0 0 0-2.2 1.2c-1.3 1.2-2.4 3-3.3 5.5l-4-1.6c.9-2.9 2.4-5.4 4.6-7.4a9 9 0 0 1 5.5-2.7c1.9-.1 3.4.6 4.8 2 .9 1 1.4 2 1.6 3.1a13 13 0 0 1-.3 4.7c-.3 1.5-.4 2.4-.3 3 0 .5.4 1 .9 1.6l.7.8zm3.7 5c-.7-.8-1-1.6-1-2.3.1-.8.5-1.5 1.3-2.2.7-.7 1.4-1 2.2-1 .7 0 1.4.4 2.1 1.1.6.7 1 1.5.9 2.2s-.4 1.5-1.1 2.2c-.8.7-1.5 1-2.3 1-.7 0-1.4-.4-2-1zm27.4-16l.4-1.4A6 6 0 0 1 58 13c.7-.7 1.8-1.3 3.4-1.9 1.4-.5 2.4-1 3-1.4.5-.4.8-1 1-1.6a2 2 0 0 0-.3-2A4 4 0 0 0 63 4.8c-1.7-.5-3.8-.5-6.3 0L55.9.5c3-.7 5.9-.6 8.7.2a9 9 0 0 1 5.1 3.4c1 1.5 1.3 3.3.8 5.2-.4 1.2-1 2.2-1.9 3-.8.7-2.2 1.5-4.1 2.1-1.3.5-2.2 1-2.6 1.3a3 3 0 0 0-1 1.5l-.2 1zM54 22.6c.2-1 .7-1.6 1.4-2 .6-.3 1.4-.4 2.4 0 1 .2 1.6.7 2 1.4s.4 1.4.1 2.4a3 3 0 0 1-1.4 1.9 3 3 0 0 1-2.4.1c-1-.3-1.6-.7-2-1.4a3 3 0 0 1-.1-2.4zm27.6 15.6l1.3-.3c1-.3 2-.3 3 0 1 .2 2 .8 3.3 1.9 1.2 1 2 1.6 2.7 1.8.7.3 1.3.3 2 .2a2 2 0 0 0 1.5-1.3c.2-.7.2-1.5 0-2.5a14 14 0 0 0-3.2-5.6l3.2-2.8c2.1 2.2 3.6 4.7 4.3 7.7.6 2.4.5 4.4-.3 6.1a5.8 5.8 0 0 1-4 3.3c-1.2.4-2.4.4-3.5 0-1-.3-2.3-1.2-4-2.5-1-.9-1.8-1.4-2.3-1.6a3 3 0 0 0-1.8 0l-1 .2zm-6 1c1-.3 1.7-.2 2.3.2s1.1 1 1.4 2c.2 1 .1 1.9-.2 2.5-.4.7-1 1.1-2 1.4a3 3 0 0 1-2.3-.3c-.7-.4-1.2-1-1.4-2-.2-1-.2-1.8.2-2.5a3 3 0 0 1 2-1.3zm1 32l.9 1a6 6 0 0 1 1.6 2.6c.2.9.2 2.2 0 3.8-.2 1.5-.3 2.6-.2 3.3.1.7.4 1.3 1 1.8.5.5 1.1.7 1.8.6s1.4-.5 2-1.3a14 14 0 0 0 3.1-5.6l4.2 1.4c-.8 3-2.3 5.5-4.4 7.6a9 9 0 0 1-5.3 3c-1.9.2-3.5-.4-4.9-1.8-1-1-1.5-2-1.8-3a13 13 0 0 1 .1-4.8c.2-1.4.3-2.4.2-3a3 3 0 0 0-1-1.5l-.7-.7zm-4-4.8c.7.7 1 1.5 1 2.2s-.3 1.5-1 2.2c-.7.8-1.5 1.1-2.2 1.1s-1.5-.3-2.2-1a3 3 0 0 1-1-2.1c0-.8.4-1.6 1-2.3.7-.7 1.5-1 2.2-1 .8 0 1.5.3 2.2 1z"/>
  </g>
</svg>
