<svg viewBox="0 0 422 415" xmlns="http://www.w3.org/2000/svg"><path d="m286 346-6-7-3-7 2-8 2-1 2 5 3 1 4 9 6 4-5 9z"/><path d="m196 286 18-5 2-12 11-2 6-4 10-2 3 9-6 3v10l-9 4-4 4-4-1-7-1-9-3-9 3z"/><path d="m142 258-5-7-6-2 5-6 4 1 5-1 7 1 5 4v8l-2 7z"/><path d="m260 323-15-10-5-8 8-3 13-1 4 1 5 7 1 6-7 9z"/><path d="m305 323-5-1 2-9-2-11 13-2 12-7 12-5 7 1v4l-2 6v7l-8 13-21 8z"/><path d="m245 322-8-7 1-1-4-4-2-4-3 2-4-1v-4l5-2 2 1 4-1 2-6 5-8 3 1 6 4 4 1 6-3v6l2 5-3-1-13 1-9 3v2l5 8 15 10h-4l-6-4z"/><path d="m407 379 7 3 8-8-5 2h-7z"/><path d="m216 268-7-11-1-7 16-12 19 8 14 3-8 7-6 4-10 2-6 4z"/><path d="m173 204-4-11v-11l10-8 4 1-1 10 2 3-4 4-2 10 2 4zm7-5 2-4 3 4-2 4zm10 4-1-4h-2l-1-5 2-3 1 3h1l1-3 3-2 1 7-3 3v3zm18-5 4 1-2 2-3-1zm-132-76v-2h4l-2 3z"/><path d="m246 145 5-4 4 2-4 3zm14 1v-3l-7-5 1-7 10-7 12-1 4 14 3 4-4 3zm-14-9 2-1 2 3-4 1z"/><path d="m232 115-7-16 11-29-11-22-16-13-5-2 2-2 7 1 7-4 1-14 6-1 13 17 22 40 12 11-4 23-10 13-15 10z"/><path d="m187 346 5-7 2 7-1 8zm-58 0-6-4h-12l-10-8 5-27-10-16-14-5-1-3v-5l4-2 12 2 7-3-1-8 8 3 10-6 9-14 6 2 5 7 10 4 11 4 14 4-4 15-8 8-2 5 1 3 8 2-2 5 2 12 5 7-1 1-2-1-3 3 1 2-13 3-9-2-8 4v8z"/><path d="m174 286 3-16-15-4-4-11v-9l5-13v-11l2-4 7 4 4-8-2-4-1-5 14 4 21 2 4 6v4l11 16-16 12 1 8 7 11-2 12-22 6z"/><path d="m332 395 4-3 22-3-6 4-16 3zm-21-13-3-8-5-3 3-3 8-1 6-2-15 2-13-15 9-16 13-8 20-8 3 13-6-5-13 6 3 4-12 6 10 8-4 6 7 3 6 2v6l-4-3-4 3 3 3-5 1 4 10zm46-3 4-4v4l-3 3zm-40-21 3-4 10 5 3 5-2 1-3-3z"/><path d="m252 291-5-4-3-1-3-2v-10l6-3 10-2 1-4 14-10 6 2 3-2 6 3-5 10-5 13-6 1-15 10z"/><path d="m16 94-8-8h-4l-1-9-3-5h10l-1-5-7-3 4-1v-3l5 3-1-3 3-1 1 13 6-5 10 3 1-2 10-3v2l5 12-1 8-11 5-11 3z"/><path d="m49 241-4-5h-2l5-3-3-1 3-5 1-8v-9l10-2 2-2 1-5 6-1-5 6 3 6 3-2 3 5-1 17-10 4-9 6z"/><path d="m256 379 2-7-9-11-48-27-6-11-8-3-10 7-5-6-2-12 2-5 10-5 2 2h4l1-2h7l2-9 9-3 9 3 6 1-1 8-8 4 1 9 10 12 6 9 12 8 6-1 3 4 17 5 7 7-3 1-6-4-7 6 5 9-3 10-4 5zm-40-57 2 3 3-2-2-2zm8 24 2 1 2-2-2-1zm-34 34-3-14v-4l4-3 8 12-2 7zm52 16-15-9 18-2 6-3v5l1 10z" fill-rule="evenodd"/><path d="m282 323 2 4 3 1 7-3 1-6-4 1-6-4z"/><path d="m245 170v-7l5-10 7 5 5-2-2-9 19-2 4-3 9 14-4 4-23 2z"/><path d="m194 289h3l-2-3-2 1z"/><path d="m268 189-5 1-1-7h-10l-7-12 20-8 23-2-7 16-8 18z"/><path d="m156 263 2-6 2 8z"/><path d="m291 337-4-8 13-6 5 1 7 4-12 7-4 6z"/><path d="m247 412-2-3 4-1 2 4zm-3-3-2 1-1-2 2-1z"/><path d="m334 269 3-15-15-15-8 8 14 9z"/><path d="m171 331 1 1 2-2-1-1z"/><path d="m265 325 7-9 4 3 4 1 1 2-3 2-2 8-5-5z"/><path d="m145 242-5 1-3-1 4-5 4-12 2-1v6l5-1 1-9 6-2 3 4v11l-5 14-5-4z"/><path d="m149 160 2-5-2-4-3 1 3-10-4-2 11-3-11-1-1-6 2-5 4-1v-8l8-5 1-5 14-9-6 1 4-7 5-9v-16l7-17 5-6-10 1 3-5 8-2-3-4 8-6 4 1 3-16 3 6 6-13 2 2 1 8 2-11 4-4h7l7 3-5 5 7 3-2 8-6-7-7 1-1 14-6 4-8-1-8 10-6 3-5 12-3 29 1 8-4 3-3 15 7 25-4 22-4-16-1 8-12 17z"/><path d="m243 245-19-8-10-17v-13l20-15 9 5 25-7 8 12 6 32-1 10-22 4z"/><path d="m37 401-2-3 1-7-4-13 9-32 10 5 10 3-11 22v19l-2 8z"/><path d="m300 301-5-8-10-1-7-5-6-4 6-1 5-14 6-11 8-1 16-8 14 9 7 16 11-5 1 7-4 1 2 12-7-1-12 5-12 7z"/><path d="m217 322 1 2 2-1-1-1z"/><path d="m282 321-2-2-4-1-4-3-1-6-5-7-3-6v-7l8-5 14 9 9 1 5 8 2 11-2 9-4 2 1-6-5 1-6-4z"/><path d="m247 270-3-9 6-4 9-8 22-4v9l-3 2-6-2-15 10-1 4z"/><path d="m224 302-2-3 1-8 4 1 4-4 9-4 2 2-5 9-2 5-3 1-2-1z"/><path d="m58 414-9-11 2-8v-18l12-24-12-3-10-5-3-8 10-6 10 1 42 2 11 9h11l6 4h13l-2 8-21 15-4 20-8 12-6 2-3 5-18 1-14 5zm84-36-4 4-3-1v-2h-3l6-4v2z"/><path d="m196 184 2-4-13-20-4-2 4-23-7-25 3-14 4-4-1-8 3-29 5-11 6-3 5-7 4 2 17 13v14l-5 2v15l-9 21v22l13 11-7 21v13l-9 19-6 6zm29-19-1-5 4-2 2 3-3 8z"/><path d="m171 303-7-2-1-2 2-4 8-8h19l1 3h4l-1 5-1 3h-7l-1 2h-3l-2-2z"/><path d="m75 259v-2l8-6 12-6-8-2-8-4 6-4v-6l-2-3 3-3h8l1-6-3-12-5 1-4-4 2-9h-5l-1-3 2-20 10-7 5 1-4 4-3 7 8-1 4 7-4 6-3 5 7 3 12 21 3 12 10 5-4 8v5h2l-2 4-10 3h-15l-9 4zm-6-50-3 2-2-5 5-6 8 5v6l-4 4zm14 5 1-2 1 1-1 1zm-9-38 1-2 2 2-2 1zm-2-7 1-2 2-2h2l-2 3zm23-10 1-3 3-1 1 2-2 1-1 2zm11-14 2-6 2 1-3 7z"/><path d="m225 346h1l1-1h-1z"/></svg>