<svg viewBox="0 0 104 54" xmlns="http://www.w3.org/2000/svg"><g fill="none" fill-rule="evenodd"><path d="m35.7 39v-5h.6v4.5h2.2v.5zm5.6 0v-5h.6v5zm8.3-2.5a3 3 0 0 1 -.4 1.6 2 2 0 0 1 -1 .9l1.1 1.2h-.8l-1-1.1h-.2c-.7 0-1.3-.3-1.7-.7-.4-.5-.6-1-.6-2 0-.7.2-1.4.6-1.8.4-.5 1-.7 1.7-.7s1.3.3 1.7.7c.4.5.6 1 .6 1.9zm-4 0c0 .7.2 1.2.5 1.5.2.4.7.6 1.2.6.6 0 1-.2 1.3-.6.3-.3.4-.8.4-1.5s-.1-1.2-.4-1.5c-.3-.4-.7-.6-1.3-.6-.5 0-1 .2-1.2.6-.3.3-.5.8-.5 1.5zm10.9-2.5v3.2c0 .6-.2 1-.5 1.4a2 2 0 0 1 -1.4.5 2 2 0 0 1 -1.4-.5c-.4-.4-.5-.8-.5-1.4v-3.2h.6v3.3c0 .4 0 .7.3 1 .2.1.6.3 1 .3s.7-.2 1-.4c.2-.2.3-.5.3-1v-3.2zm3.3 5v-5h.6v5zm8-2.5c0 .8-.3 1.4-.7 1.8-.5.5-1.1.7-2 .7h-1.3v-5h1.5c.8 0 1.4.2 1.8.6.4.5.7 1 .7 1.9zm-.7 0c0-.7-.1-1.2-.4-1.5-.4-.3-.9-.5-1.5-.5h-.8v4h.7c.7 0 1.2-.2 1.5-.5.4-.4.5-.9.5-1.5z" fill="#26394d"/><path d="m42 30.5h20" stroke="#26394d" stroke-width=".5"/><path d="m32.4 21.1h3.1v4.6a10.1 10.1 0 0 1 -3.3.4c-1.4 0-2.4-.4-3.2-1.2a5 5 0 0 1 -1.2-3.5c0-1 .2-1.9.6-2.6a4 4 0 0 1 1.6-1.6c.8-.4 1.6-.6 2.6-.6s2 .2 2.8.5l-.4 1c-.9-.4-1.7-.5-2.5-.5-1 0-2 .3-2.6 1a4 4 0 0 0 -1 2.8c0 1.2.3 2.2 1 2.8.6.7 1.5 1 2.6 1a8 8 0 0 0 2-.2v-3h-2.1v-1zm7.4 1v3.9h-1v-9.3h2.5c1.1 0 2 .2 2.5.7.6.4.8 1 .8 2 0 1.2-.6 2-1.8 2.4l2.5 4.2h-1.3l-2.2-3.9zm0-.9h1.5c.8 0 1.3-.1 1.7-.4.3-.3.5-.8.5-1.4s-.2-1-.5-1.3c-.4-.3-1-.4-1.8-.4h-1.4zm13.8 4.8-1.1-3h-3.8l-1.1 3h-1.1l3.7-9.3h.9l3.6 9.3h-1zm-1.5-4-1-2.8-.5-1.3c0 .4-.2.8-.4 1.3l-1 2.9h3zm12.2 4h-1.3l-5-7.8h-.1l.1 2.5v5.3h-1v-9.3h1.2l5 7.8h.1a70.5 70.5 0 0 1 0-2.5v-5.3h1zm11-4.7c0 1.5-.5 2.7-1.3 3.5a5 5 0 0 1 -3.6 1.2h-2.6v-9.3h2.8c1.5 0 2.6.4 3.4 1.2s1.2 2 1.2 3.4zm-1.2 0c0-1.2-.3-2.1-1-2.7-.5-.6-1.5-1-2.6-1h-1.6v7.5h1.3c1.3 0 2.3-.3 2.9-1a4 4 0 0 0 1-2.8z" fill="#26394d"/><g stroke="#26394d"><path d="m7 7h90v40h-90z" stroke-width=".5"/><path d="m2 2h100v50h-100z" stroke-width="4"/></g></g></svg>