<svg xmlns="http://www.w3.org/2000/svg" viewBox="0 0 100 77">
  <path fill-rule="evenodd" d="M23.2 48.8c.3-5 1-11.3-2.6-9.1-1.1.6-.3.6-.3 3.3l-.1 5.6c0 2-.3 8.4.6 9.3.8 1 2.7 0 2.4-.5-.4-1-.2-4.3 0-8.6zm5.4-2.9c-1.2 2.4-1.4 2.8-4.3 4.5-.2 1.3 1.5.7 2.4.4 3-1.1 5.3-4.4 5.7-7.5.6-4-2-7.2-5.7-8.1-4.1-1-8.1 1.1-10.4 4.4-1.8 2.6-3.8 8.4.5 10.8.7.4 2.5-1.1 1.7-1.5-.6-.4-1.8-.8-1.8-5.3 0-3.4 2.5-7.2 6.3-7.3 4.9-.1 7.3 4.6 5.6 9.6zm6.7 25.9l-2-.7a3 3 0 0 0-.2-3c-1.5-1.9-4.3.1-5.6-1 1.7-2.3 3.2-8-1.5-8-2 0-3.5 1.6-4 3.4-.5 2.3 1 4.3 2.8 5.7C2.9 79.2-2.5 59 5.3 51-1.5 35.7 11.7 33 16 33.7 14.4 19.1 33.2 11.2 42.6 23c1.4-1.2 3-2.2 4.6-3 4.3-1.8 9.2-1.3 13 1.4A10 10 0 0 1 64 33c-1 2.9-4.2 7.4-7.4 4.6L53.7 35c1.1-1 6.9-5.9 3.3-7.2-1.5-.6-1.8 2-2.5 3-.8 1.5-1.8 2.9-2.7 4.3.3-2 .6-4.1.7-6.2 0-1.4 0-3.6-2-3.4-1.9.1-1.1 1.7-1.1 3.2-.3 3.6 0 13.3-4.2 15.2-2.4 1.1-2.6-2.6-2.6-4.2 0-.7 1.5-7.7 2.6-6.3-.5.7.4 1.8 1 1 1-1-.6-2-1.5-2.1-3-.2-4.4 3.6-4.9 5.9-.4 2.2-.7 4.8-1.7 7-1.7 3.7-1.4-1-1.2-2.5.4-1.8 1.7-6.8-1-7.4-1.9-.4-1.5.9-1.5 2l-.3 3.6c-.1 1.9-.8 6 1.5 7.1 2.6 1.2 3.8-3.7 4.2-5.3.5 2.2 2.3 3.6 4.6 2.9 2.2-.7 3.4-3.3 4.1-5.3 0 1.2-.2 4 1.4 4.3 2.2.5 1.3-2 1.3-3.2 0-1-.1-4 .8-4.8 1-1 1.7.4 2.5 1.3.8 1.2 1.6 3 3.2 3.4 1.8.4 3.3-1.3 4.3-2.6l2.6-4.2c2.5-7-.3-14.3-7.6-16.7-4.2-1.3-10.7-.6-14 2.5-10-10-29-3.8-29 11C4.4 32.1-2.8 42 3.3 51-7.3 67 10 78.1 23.6 70c-1.2 2.1-1.6 5.3 1.1 6.5 2.7 1 6.3-.9 7.6-3.2.5.3 1.7 1 2.2 1 .8-.2 1.9-2 .8-2.4zM34 31.5c-.4 2.3 2.7 3.4 3 .8.1-2.3-2.5-3.3-3-.8zm-8 29.8c2.3-.7 1.3 3.2.8 4.2a2 2 0 0 1-.6.9c-1.8-1.6-2.4-3.2-1.8-4.1.5-.8 1-1 1.5-1zm-.1 8.2a27 27 0 0 0 4.4 2.9l-1 1c-3.2 3-5.2-1-3.4-4zm5.6 1l-3.1-2.3.5-.1c1.3-.2 3.3.2 2.8 2l-.2.4zm36.1-28.2c.9.4 2.4-2 2.2-2.5-.6-2.6-4.9-.5-6 .6-4.6 4.2-5 12.2-6.5 17.8-.6 2.8-1.6 5.5-2.8 8-2.2 4-2.9 0-2.7-2.4.2-5.5 2-15.5-6.2-15.6-6.2 0-11.8 6.2-11.3 12.3.3 2.5 2.6 7.1 5.9 5 .7-.5 1.9-2.4 1-3-.5-.3-2.4 1.3-3.9-.8-3-4 .5-11.5 5.5-11.5 7.6 0 5.5 11 5.4 15.7-.1 2.7.6 7.6 4.3 4.6 3-2.4 4.4-7.4 5.4-11 1-3.5 1.5-7.3 2.7-10.8.9-2.8 2-6.7 4.5-8.3 2.2-1.4 1.6 1.6 2.5 2zM77 21C74.5 8.6 61.8 2.7 50.5 7.8 47.2 2 39.8-.4 33.5 0c-7 .5-14.7 6.3-14.8 14C20 9.5 23 5.7 27.1 3.5c7.8-4.2 18.7-1.1 22.4 7.2 6.2-3.2 14.7-3.2 20.1 1.7 3.5 3.1 5.3 8 5.4 12.6a17.5 17.5 0 0 1 18.4-.2c5.3 3.6 6.1 11.1 4.5 16.9-.6 1.9-1.9 5-3.8 6-1.6.8-2.9-1.2-2.6-2.7.2-1.4 2.7-3 3.2-4.7.6-1.8.7-4.4-1.8-4.2-2 0-3.4 2.6-4 4.3-1 3.6-.6 8.7-4.4 11 1.5-2.4 2.2-6.6.9-9.2-1.8-3.5-5.7-2-6.7 1-.3-1.2-2.3-2.2-3.2-.7-.2.3.2 1.8.3 2.2 0 2.5-.3 5-1 7.4-.7 2.3-2.4 4.5-2 .6.3-2.2 1.8-6.8 0-8.5-1-.7-2.4-.5-2.8.6-.1.7.3 2.6.2 3.5-.2 2.2 0 5.5-1.1 7.5-1.8 3.2-3-1.2-3-3 0-.8 1.3-8 2.4-6.6-.5.7.4 1.7 1 1 1-1-.6-2.2-1.5-2.2-2.8 0-4.3 3.6-4.7 5.8-.4 2.3-.6 6.1 1.8 7.4 3 1.7 4.8-1.3 5.3-3.7.2 1.3 1.2 2.5 2.6 2.1 1.3-.3 2-2.2 2.3-3.3-.3 2.4-.3 4.8-.2 7.2 0 .8 1.4 5 2.9 2.5.2-.4-.2-1.2-.3-1.6 0-1.4 0-2.8.2-4.1l.7-7.4c0-1 1.1-11.4 3.7-7.2 1 1.5.7 4 .5 5.6-.1.6-1.2 5.5-2.2 4.3 1-1-1.8-2.1-1.3 0 .3 1.3 1.8 1 2.8 1 3.7-.8 5.5-3.6 6.6-7.1 1 4.4 5.1 3.3 7.3.7 2.3-2.7 3.5-6.2 3.9-9.7.9-7.7-4.2-17.1-12.7-18C82 19.3 77 21 77 21zm14.4 22.1c.1-1 .7-7 2.5-5.7 1.7 1.2-1.6 5.6-2.5 6.3v-.6z" />
</svg>
