<svg xmlns="http://www.w3.org/2000/svg" viewBox="0 0 100 105">
  <path fill="#000D1A" d="M50.5 104.5h1.3a4 4 0 0 0 1.3 0c.1-.1.4-.2.7-.1l2-.2a29.5 29.5 0 0 0 2.4-.4h.5l.3-.1h.4c0-.1.2-.2.3-.1h.3l.2-.1c.5 0 1.6-.3 1.7-.4 0 0 .2-.1.2 0l.2-.1h.1l.2-.1h.4c0-.1 0-.2.2-.1h.1l.2-.2h.2l.7-.2c.4 0 .8-.2 1-.3l.7-.2.5-.2.6-.2.5-.2a14.2 14.2 0 0 1 1.4-.6l.4-.1.3-.1.6-.3 2-1c.5-.3.5-.3.8-.1l.4.1.4.2.5.2.5.2c.3.2.5.2 1 .2.8 0 1.4 0 1.8-.3h.5c.2 0 .3 0 .5-.2l.8-.4.5-.3.3-.3 1-1c.7-.6 1-1 1.3-1.4.1-.4.4-.7.5-.8l.3-.3.3-.6.4-.6v-.3l.2-.4V93c.2-.1.3-.5.3-.8l.3-.7v-.3l.2-.3v-.7a8.5 8.5 0 0 1 2.6-2.4l.3-.3.4-.4.1-.2.3-.4.4-.5.1-.3.2-.3.4-.7v-.1l.3-.4.2-.3.1-.1.4-.5c0-.2.2-.4.3-.4l.1-.2.5-.8a29 29 0 0 0 1.8-3l.6-1 .2-.4.4-.8a55.4 55.4 0 0 1 1.2-2.7l.6-1.4c0-.3.2-.7.3-.7v-.4l.2-.3V71l.2-.4.2-.7.3-.9.2-.6.1-.4.2-.5V67s.1-.2 0-.2l.1-.3s.1 0 0-.1l.1-.2V66l.1-.2v-.2l.1-.1v-.2l.1-.3a11.3 11.3 0 0 0 .4-2.3s.1-.1 0-.2l.1-.3v-.4a36.7 36.7 0 0 0 .5-7.5 39.4 39.4 0 0 0-1.5-12.9l-.2-.5-.1-.5v-.3c-.2-.1-.5-1-.4-1V39l-.1-.2-.2-.6-.2-.4-.1-.4-.2-.4v-.2l-.1-.2-.2-.6-.3-.7-.1-.2c-.1 0-.2-.2-.1-.3l-.1-.2-.1-.2-.6-1.1-.7-1.6c0-.3-.4-.8-.6-1.1l-.6-1a5 5 0 0 0-.6-1.2 1 1 0 0 1-.2-.3l-.2-.3-1-1.5-.1-.2-.3-.4-.3-.4-.2-.2s0-.2-.2-.3l-.2-.4-.2-.2-.1-.1s0-.2-.2-.2l-.2-.3-.1-.2-.1-.1-.3-.3-.2-.3-.1-.2-.1-.1-.4-.4-.4-.4-.3-.4-.4-.4-.4-.5-.6-.6c0-.1-.1-.3-.3-.3a1 1 0 0 1-.4-.4c0-.2-.2-.3-.3-.4-.2 0-.6-.4-1-.8l-1-1.1-.4-.3-.4-.3-.3-.3-.7-.5-.1-.2-.3-.2-.2-.2-.2-.1-.3-.3-.4-.2-.2-.2-.3-.2-.7-.5-.5-.3-1-.8-.3-.1-.6-.4-.3-.2c-.1 0-.2 0-.3-.2l-.3-.1-.4-.2-.3-.2-.5-.3-.6-.3-.6-.3-.5-.2-.9-.4-.8-.4-.8-.4-1.4-.6a15 15 0 0 0-2.9-1 14.2 14.2 0 0 1-1.7-.5l-.4-.1s0-.1-.1 0L63 6s-.1-.1-.2 0l-.3-.1a1 1 0 0 0-.3-.1H62c0-.1-.1-.2-.2-.1h-.2l-.1-.1h-.2l-.1-.1h-.4l-1-.3h-.6l-.2-.1h-.5l-.3-.2a25 25 0 0 1-2.2-.3l-2-.2h-1.7l-1-.1h-4.6l-.6.1A43.8 43.8 0 0 0 37 6c-.1.1-.2.2-.3.1h-.2c0 .1 0 .2-.1.1l-.8.2-1.8.6-.8.3-.3.1-.3.1-.4.2c-.2.1-.3 0-.3-.2l.2-1.8v-1l.1-.5.1-1V1c0-.2-.4-.6-1-.8-.7-.4-1.6-.4-1.9 0l-.1.2-.6.4-.6.5c-.3.2-.8 1-.8 1.4l-.2.6-.2.5-.2.2v.2l-.3.5-.2.4-.6 1.6-.2.7-.3.9-.1.5a8 8 0 0 1-.6 1.7v.4c-.1.4-.3.7-.5.8h-.2l-1 .7h-.1l-.4.4-.4.2-1 .7-.2.1-.1.2-.4.3-.4.2-.3.3-.2.2-.5.3a2 2 0 0 1-.4.4s-.2 0-.2.2l-.3.2s-.2 0-.3.2l-.3.3-.4.4a829.4 829.4 0 0 1-5.4 5.5l-.3.5-.4.5-.1.2-.2.2-.3.4-.3.3v.2l-.3.3-.4.5-.2.3v.1c-.2 0-.2.2-.3.2L8 27.4a14.1 14.1 0 0 0-.8 1.3l-.1.1-.3.6-.4.5s0 .3-.2.5l-.3.5-.3.5-.2.5A19 19 0 0 1 4 34.6l-.2.4-.2.6-.2.6-.1.3-.3.6a48.7 48.7 0 0 0-3 14.2v6.3l.1.7v1l.1.6.3 2a19.4 19.4 0 0 1 .3 1.8s.1.2 0 .2l.1.2v.3l.1.2v.3c0 .4.2 1.2.4 1.4v.3l.1.3.1.4.1.1v.4l.3.7.2.8.1.4.2.6.1.4v.1l.3.5a12.1 12.1 0 0 0 .3 1l.2.4.3.7.2.6.2.5.1.3.2.2a25.2 25.2 0 0 0 1.2 2.6l.3.5.2.4.4.7.1.3v.1c.2 0 .8 1 .8 1.2 0 0 0 .2.2.2v.1l.3.4.2.4.1.1 1.2 1.7.2.3.1.2.2.2.3.4.3.4.2.2.4.5.3.5.2.2.2.2.3.4c.2 0 .3.2.3.3l.4.4.4.5a30.8 30.8 0 0 0 4.1 4l.4.3c.1 0 .2 0 .2.2l.2.1s.2 0 .3.2l.2.2-.4.1a6.7 6.7 0 0 1-1.7.6l-.4.1-.3.1-.4.2-.3.2-.2.1-.5.3-.4.4h-.2l-.2.3-.3.2-.3.2-.2.4c-.3.5 0 .8.7 1.2l.8.4c.6.6.8.6 2.2.6 1.1 0 1.2 0 1.4.2.2.2.5.3 1 .2a5 5 0 0 1 1.8 0c.3.1.5.2 1.8.2 1 0 1.4 0 1.7-.2h.5l.3.1.2.2h.2l1.3-.6a16.3 16.3 0 0 1 3 1.3c.1 0 .2 0 .3.2h.3l.5.3 1 .4.4.1 1.1.5h.2l.3.1.3.1c.1 0 .3 0 .4.2h.4l.6.3.6.2h.5l.6.2.4.1h.1c0 .1.1.2.2.1h.2l.1.1h.2l.2.1h.2l.1.1h.4c.2.1.4.2.5.1l.2.1h.3l.3.1h.2l.2.1h.5l.3.2a24.6 24.6 0 0 1 2.3.3l2.1.2h2l1.3.1h1zm-1.6-2.9l-.9-.5-.2-.2-.2-.1-.2-.2-.3-.2s-.2 0-.3-.2l-.2-.2-.2-.1-.2-.4-.2-.3-.2-.2-.3-.3-.1-.3-.3-.5c0-.2 0-.3-.2-.3s-.2 0-.6-1.1c-.1-.5-.3-.9-.2-1-.1 0-.2-.2-.1-.3V95l-.1-.3v-.3l-.1-.6c0-.8 0-1-.2-.6a3 3 0 0 1-.4.6 1 1 0 0 0-.3.3v.2c-.2 0-.2 0-.2.2l-.4.4-.7.6c-.3.3-1 .5-1.4.5-.4 0-.9-.3-1.5-.9a3.8 3.8 0 0 1-.8-1l-.7-1.1-.3-.5-.2-.3s0-.2-.2-.3l-.1-.3-.1-.3-.3-.7-.2-.8c-.1-.2-.2-.3-.1-.4v-.1c-.1 0-.2-.1-.1-.2V89l-.1-.6v-.7l-.1-.3v-.7l-.2-1-.2-2c0-.3-.2-.4-.4 0l-.2.4-.2.4-.4.7a6.3 6.3 0 0 1-.6 1.2c-.3.5-.6.7-1 .8h-.3l.3.4a5 5 0 0 1 1 2.5v2.5c0 .3 0 .5-.2.6l-.3.5-.3.5c-.1.1-.3.3-.3.5-.2.3-1.3 1.4-1.7 1.5a1 1 0 0 0-.4.4l-.5.3a8 8 0 0 0-1 .4 6 6 0 0 1-.8.3c-.2 0-.5.3-.8.5l-.8.4-.5.1h-.2c-.3-.2-.7-.3-1-.2-.3.2-.7.2-1.9.3-.9 0-1 0-1.4-.2-.4-.2-1.7-.2-2.2 0l-.7-.1c-.5-.3-.5-.3-2-.3-1 0-1.1-.1-1.2-.2 0-.2-.2-.3-.6-.4-.8-.3-.9-.5-.5-.9l.5-.3.2-.2.4-.3a5.9 5.9 0 0 1 2.3-1l.3-.1.5-.2.5-.1.6-.3a8 8 0 0 1 1-.5l1-.5h.2l.2-.1.4-.2a7 7 0 0 0 1.3-.6l.7-.3c.1 0 .3 0 .5-.2l.4-.2.8-.5.7-.4c.2 0 1.6-1.5 1.6-1.7v-.5c0-.3-.3-.7-.6-.7H27l-.3-.1h-.3c0-.2-.7-.4-.8-.3 0 0-.3 0-.5-.2l-.5-.3h-.3l-.2-.2-.3-.1a2 2 0 0 1-.6-.2l-.7-.3-.8-.5-.8-.3-2.1-1-.5-.2-.5-.3-.3-.2h-.2c0-.2-.2-.2-.2-.2l-.5-.3-.6-.3a.9.9 0 0 1-.3-.3l-.2-.2-.3-.3-.3-.2a5 5 0 0 1-1.2-1.3l-.2-.1-.2-.3-.1-.1-.4-.6-.5-.8-.1-.4-.1-.3-.1-.2v-.2l-.2-.4-.2-.5-.2-.7-.2-.2V71.5l.1-.2s.1-.1 0-.1l.5-1.3.2-.3c0-.2.1-.6.4-1V68l.2-.3.2-.2a71.9 71.9 0 0 0 1-1.4 27.4 27.4 0 0 1 4.8-4l.7-.5A6 6 0 0 1 21 61l.6-.2.5-.1.3-.1h.2l.1-.1h.4l.4-.1c.2-.2.7-.2.8 0h.5l.6.3.3.2.2.1.3.1.2.2.3.1c.1 0 .3.1.9.7a5.2 5.2 0 0 1 1.1 1.5c.2.1.6.9.6 1.1v.2l.2.2v.8c0 .5 0 .6-.2 1-.3.6-.5.7-.8.6h-.2c0 .1-.2.2-.3.1l-.6.2c-.5.3-.8.3-.5 0l.2-.2c0-.2 0-.3-.2-.3l-.2-.1v-1l-.1-1.4-.5-.6c-.4-.2-.9-.3-1 0l-.6.2c-.5 0-1 .3-1.1.5l-.7.7a6 6 0 0 0-.8.5l-.6.3-.2.2-.2.2h-.2c0 .2-1 1-1.2 1l-.6.5-.5.5c-.2 0-.9.7-.9.9l-.3.3-.2.3-.2.3-.3.3-.2.4-.3.5-.3.4-.4 1-.2.1-.1.4-.1.5-.2 1.4v.8l.6.5.6.6.2.1.4.3a214.3 214.3 0 0 1 5 2.2l.5.2.6.2.8.4a33.7 33.7 0 0 0 3.2 1.6c1 .4 1.2.5 1.7 1l.4.4.4.3.4.3.1.1.1.1c.2 0 1.6 1.5 1.7 1.8l.2.4v-.5c0-.5.1-.7.4-1.2a10 10 0 0 0 .9-1.9l.5-1.2.3-.9.2-.5.1-.2.2-.5.3-.9a13.3 13.3 0 0 1 .2-.9l.1-.2.1-1.1a21 21 0 0 1 .2-4.1 75.2 75.2 0 0 0 .4-5.1v-1l.1-.3v-.7l.2-.2a25.1 25.1 0 0 1 .2-1.7l.2-1.4v-.2l.1-.3v-.2c.1 0 .1 0 0-.1l.5-1.2.3-1.3V59s.1-.2 0-.2l.1-.2.1-.2.3-.7a94.8 94.8 0 0 0 1.2-2.3 9.8 9.8 0 0 1 1.3-2l.3-.3c.2-.2.3-.3.6-.3h.4l.4-.3c.2 0 .3-.2.3-.2l1.3-.6.2-.1 1-.1a8.2 8.2 0 0 1 1.5.1 2 2 0 0 1 .4.1c.1 0 .7.3.8.5.1 0 .2.2.1.4v.4c.2 0 .2.2.1.4v.4c.2 0 .2.6 0 .7v.7c0 .2 0 .4-.2.7-.2.4-.2.6-.2 1 0 1-.2 1.9-.5 2l-.1.6c0 .4 0 .6-.2 1a2 2 0 0 0-.2.6l-.1.4-.5 1.2a8.2 8.2 0 0 1-.5 1.5l-.1.2a15 15 0 0 0-1.4 3.1c0 .3-.2.5-.3.5v.3l-.2.3-.2.6-.3.8-.2.4-.2.5a30 30 0 0 0-.7 1.6l-.3.5v.3l-.6 1.3-.2.7c0 .2-.2.4-.3.5v.2l-.2.4c-.4.6-.5 1.7-.3 3v2.8l.2 2.2c0 .2.1.4 0 .4l.1.1s.1.1 0 .2l.1.2v.2l.1.1v.2l.1.2v.3l.2.2v.3l.4 1.4v.1s.1.1 0 .2l.1.2v.4l.3.7.3.6.1.2c0 .2.5.4.8.4h.1l.2-.5.3-.5.1-.3.4-.9.4-.7v-.7c.1 0 .1-.1 0-.2l.1-.3s.1-.1 0-.2l.1-.3V86.1c.2-.2.4-1.3.5-1.8V84l.1-.2v-.2l.1-.3c0-.1 0-.4.2-.5l.6-1.3v-.3l.7-1.2.5-1 .5-.7.3-.3 1-1c.8-.9 1.7-1.5 2.1-1.5h.2c0-.1.2-.2.3-.1h.4l.3.1h.5c.3.2 0 1.2-.3 1.5l-.1.3-.2.4v.4l-.4.7-.5 1-.2.6a6 6 0 0 0-.4 1.9v.7l-.1.2v.2l-.1.2v.6c-.1 0-.2.1-.1.2v.2l-.1.1v.2l-.1.2-.1.4c-.2.5-.2 1-.2 1.3l-.1.3v.2l-.1.2v.2l-.1.3v.4c-.1 0-.2 0-.1.1v.3l-.2.4v.4c-.2.1-.2.8-.2 1.7l-.1 1v.1l-.1.2v.6c-.2.1-.2 2 0 2v1.2c.1.1.2.2.1.3v.2l.2.2.3 1h.2c.1.2 1.1.2 1.3 0h.2l.2-.2.2-.2c.2 0 1-.8 1-1l.5-1.2.2-.6c0-.3.2-.7.3-.8V94s0-.3.2-.4l.4-1.1.2-.7.1-.4V91l.3-.6c.2-1.3.3-1.6 0-1.7l-.5-.3-.6-.3-.2-.3-.4-.4-.3-.6-.2-.3-.6-1.7v-.9a7.5 7.5 0 0 1 0-2.3 2.9 2.9 0 0 1 .1-1 7.3 7.3 0 0 1 .5-1.6s0-.2.2-.3l.3-.6.7-1c.5-.5.5-.5 1-.5h.4l.2-.3c.4-.1.7 0 1.2.5l.9.6.4.1.4.3c.2 0 .4.3.6.4l.4.6.2.3.4.5.4 1 .1.4v.2l.1.1v.4l.2.2v.3c.2.4.2.8.2.9l-.1.7v1.3l-.2.8c0 .4 0 .8.2.8.3 0 .4-.3.5-1.7a143.8 143.8 0 0 1 .8-8.7l.2-1c0-.4.3-1 .4-1.3a4 4 0 0 1 1.6-.9l.5-.2h.8l.3.1.4.1.7.3c.3 0 .4.2.6.6l.2.5-.1.5-.2 1.2v1.1l-.1.3-.1.3v.3l-.1.2v.4l-.1.2v.2l-.1.1v.4c-.2.3-.2.5-.3 1.4l-.2 1.8c-.1 1 0 3.1.1 3.5v1.2a20.3 20.3 0 0 0 .2 4.6l.1.7.1.9.1.3.1.4a2.6 2.6 0 0 0 .1.4c0 .4.2.7.3.8 0 0 .7-.7.8-1.1l.4-.8.3-.6.1-.4.3-.6.2-.5.2-.3v-.3l.2-.5.1-.3v-1.9a25.6 25.6 0 0 1 0-2.4v-.6l-.1-.5v-2l.1-.3.1-2.4.2-2.2.2-1.3a12.2 12.2 0 0 1 .2-2 7 7 0 0 1 1.5-1.4c.4-.2 1.4-.2 2.4 0l1.4.6.7 1.5v.2l.1.6v.4c.2.2.2 1.9 0 2v1.1l-.1.4c-.1.8-.2 1-.3 1v.3l-.1.3s-.1.1 0 .1c0 0 0 .3-.2.5l-.5 1.2-.2.6-.6 1.2c-.2.3-.2.5-.2.7l.1.5.2 1 .2.9v.4l.1.1v.3l.1.2v.5l.2.2c0 .3 0 .8.2 1.1 0 .2.1.3 0 .4l.1.1s.1.1 0 .2l.1.2v.2l.1.2v.5c.1 0 .2 0 .1.1v.2l.2.2s0 .3.2.4l.2.6c0 .5 0 .7.3 1l.2.2.3-.4.5-1 .5-1c0-.3.3-.7.4-1a9.1 9.1 0 0 1 .4-1.2l.2-.8V90c0-.2.1-.3.2-.3v-.4l.2-.3s0-.3.2-.5l.2-1v-.8c.1 0 .2-.1.2-.3V86c.1-.2.2-.3.1-.4l.1-.1c.2-.2 0-1-.4-2a12 12 0 0 1-1.1-3.6l-.1-.3v-.4l-.1-.3v-.3l-.1-.4v-1a30.5 30.5 0 0 1 .1-4.8l.1-.5.1-.7.2-.4.3-.5.3-.6.8-.5.4-.1.3-.1.4-.1h.3c.2.2.3.2.4.1h.2l.2-.1.5.1.8.2c.6 0 .8.2 1 .6l.3.4c.2 0 .5.5.4.6l.1.3c.1 0 .2.3.2 1l.1 1.1a15.6 15.6 0 0 1-.1 5.4l-.2 2v1.9l-.1.7v1.3l-.2.4v.6c0 .2 0 .2.2.2h.5c.1-.2.3-.2.3-.2l.6-.6.3-.4.3-.4.1-.3c.2-.2.3-.2.7-.2l.5.1c.2.1.2 1 0 1.2l-.1.4-.3.4a11 11 0 0 1-1.7 1.8c-.6.4-1.2.6-1.6.6-.2 0-.3 0-.2.4l-.1.2v.1l-.1.2v.2l-.2.9-.1.3-.1.3-.1.3-.1.3s-.1.1 0 .2l-.2.5-.2.5c0 .2 0 .3-.4 1.1a3 3 0 0 0-.2.6l-.2.2-.2.2-.2.2-.7 1c0 .3-.4.6-.6.9l-.5.5-.1.2-.4.2c0 .2-.2.3-.2.3l-.4.2c0 .2-.4.3-.6.4l-.6.2a1 1 0 0 1-.4.2 2 2 0 0 0-.5.2h-.4l-.9.1-1.2-.1a2 2 0 0 0-.4-.2l-.6-.2a72.2 72.2 0 0 0-1.6-1 4 4 0 0 1-1-1.5c0-.1 0-.3-.2-.5l-.2-.6v-.3l-.1-.2-.1-.3-.1-.2-.1-.3c-.1 0-.2 0-.6 1l-.3.7-.1.3-.2.2a10.3 10.3 0 0 1-1.7 1.5l-.5.2c-.2.2-.5.2-.8.2-.7 0-1.4 0-1.6-.2l-.6-.1-.7-.3a1 1 0 0 0-.3-.2c-.2 0-1-.9-1-1.1l-.2-.4c-.2 0-.4-.8-.4-1v-.3l-.3-.6-.2-.6v-.3l-.1-.2v-.2l-.1-.2v-.4c-.2-.5-.2-.8-.3-2.5l-.1-.9-.3.1c-.5.1-.6.3-.8 1.2a5 5 0 0 0-.2 1.2l-.1.4s-.1.1 0 .2v.2l-.2.3-.1.3-.3.5-.2.4-.2.1-.1.2-.1.4-.3 1.2-.1.4c0 .3-.1.4-.3.4-.2 0-.5.3-.4.6l-.1.2c-.3.1-.4.2-.3.4.1.2.1.2 0 .4-.2 0-.3.2-.3.2l-.1.4-.2.5-.4.4-.6.6-.4.3-.7.6-.7.7-.4.3-.6.2-.7.2c-1 .2-1.6.2-2.5-.3zm5.8-15.1v-.6l.1-1 .1-1.5v-2.3c0-.5-.2-1.2-.4-1.4-.1-.2-.1-.2-.4 0-.2.2-.7 1-.7 1.3l-.1.4c-.2.3-.2.5-.2 1.8a7.1 7.1 0 0 0 .1 1.8l.2.3v.4l.2.4.2.3.2.2.2.2c0 .1.2.2.4.1l.1-.4zm19.5-4.8a1.8 1.8 0 0 0 .1-.5l.1-.4.1-.4V80l.2-.4V77l-.2-.4v-.2s0-.2-.2-.3c0-.2-.1-.3-.1-.1v.4l-.1.2v.2l-.1.3v.2l-.1.2a22 22 0 0 0 0 4.3c.1.1.1.2.2.1l.1-.3zm7-1V80l.1-.8a132.7 132.7 0 0 1 .4-7.2l-.4-.4-.5 1.1v.4l-.1.3v.4l-.2.4v.8a22.7 22.7 0 0 0 .2 5.1v.4l.2.2v.3c.1.4.3.2.3-.3zM40.4 67.6l.2-.4.5-1 .2-.3v-.2l.4-.8.3-.8.6-1.2.2-.7.2-.4.3-.4.2-.4a15 15 0 0 0 1.1-3c.2-.1.5-1 .5-1.2v-.4l.2-.5.1-.3c.1-.1.2-.5.1-.8 0-.1 0-.3-.2-.4l-.2-.3-.4.3-.4.3-.1.4a1 1 0 0 0-.2.4s0 .2-.2.3l-.3.6-.4.9-.7 1.8-.3 1-.4 1.3v.7l-.1.2v.5l-.1.2v.2c-.1 0-.2.1-.1.2l-.2.5a2 2 0 0 0-.1.5l-.1.3s-.1 0 0 .1l-.3 1-.1.4-.2.6c-.2.3-.3 1.1-.2 1.1l.2-.3zm18.6 7c-.4-.2-.8-.6-1-1.1-.2-.4-.3-.5-.6-.7l-1-.1h-3.8s-.1-.1-.2 0l-.1-.1s-.1-.1-.2 0l-.2-.1-.3-.2-.5-.2-.4-.3-.4-.3-.4-.3-.5-.5-.2-.1-.2-.1-.1-.2c-.2 0-.7-.5-.7-.7h-.1l-.5-1.2-.1-.3s-.1 0 0-.1v-.2a10 10 0 0 1-.1-3.3v-.4l.1-.1v-.2l.1-.2v-.2c.1 0 .1 0 0-.2l.1-.2.1-.3.2-.5.4-.7c0-.2.2-.4.3-.5l.2-.3.5-.7.4-.5s.2-.1.3-.4l.2-.4c.2 0 .3-.4.4-1l.1-1.6v-.5l.1-.5c.1-.1.2-.3.1-.5l.1-.4v-.3l.1-.3v-.2l.1-.2V52.9l.2-.2a5.5 5.5 0 0 1 .6-1.8 12.8 12.8 0 0 1 2.6-4.4l.4-.4.6-.3c.2 0 .3-.1.3-.2l.3-.2.6-.3a6.4 6.4 0 0 1 2-.8s.2-.1.2 0l.2-.1h.5c.1-.2 1-.2 1-.1h.2c.3 0 1.3.7 1.5 1l.4.4.2.4s0 .3.2.5l.2.5.1.2c.1 0 0 .7 0 .8l-.2.9v.2s-.1.2 0 .2v.3l-.2.4-.1.3-.1.3-.4 1-.2.4c0 .2 0 .3-.2.4v.2l-.2.3-.5.7c0 .4-.3.7-.4.8l-.1.1-1.5 1.6-1.2 1c-.2.3-.5.5-.6.5l-.2.1-.2.1-.7.4-.6.3h-.4c-.2.2-.2.2-.2.7v.9l.2.4v.3l.2.3c0 .2.2.4.3.5l.2.4s0 .2.2.3a47.4 47.4 0 0 1 3.5 6c.1-.2.4-.3.6-.4l.5-.5.4-.4c.2 0 .3-.1.3-.2l.4-.5c.3-.2.4-.5.4-.5l.4-.4.4-.4.2-.4.3-.4.1-.4.2-.5v-.4l.1-.2c.2 0 .2-.6 0-.7v-.2c0-.2-.4-1-.8-1.3-.5-.4-.8-.7-1.4-1-.3 0-.4-.2-.4-.2s0-.1-.1 0l-.4-.2c-.4-.2-1.3-.3-1.6 0h-1v-.4c0-.2.2-.3.6-.5.2 0 .5-.2.6-.1h.2a8.5 8.5 0 0 1 2.5 0c.1.1.2.2.3.1l.3.1.7.4c.9.4 1 .4 1 .6l.3.2h.2l.2.3.3.2.3.5c.3.2.6 1 .5 1.1v.1l.1.2v.2c.2.1.2 1.5.1 2.4 0 .5-.2 1-.3 1.2l-.2.2v.2l-.2.4-.6.7-.6.7-.3.4-.2.2-.6.5-.4.4-.4.4-1 .5-.8.5-.3.3h-.1l-.3.3-.4.2v2.2c0 .1-.1.5-.3.7-.2.2-.5.3-1 .1zm-4.8-4h.2l.3-.1h.3c0-.1.2-.2.3-.1h.3l.4-.2c.4 0 .4 0 .2-.4l-.1-.3-.3-.3-.2-.2-.2-.4a3 3 0 0 1-.4-.5l-.3-.4-.4-.6-.2-.3a21.6 21.6 0 0 1-2.2-3.7c0-.2-.5-.8-.6-.8l-.8.7-.4.8-.4.8v.1a5 5 0 0 0 0 1.8v.7l.2.3s0 .3.2.5l.2.4.2.2.2.3.2.2.2.2.8.8.6.2.4.2h.6c0 .2.7.2.7 0zm2.1-17l.2-.2c.1 0 .4-.2.6-.5l.6-.6a10 10 0 0 0 2-2.3l.1-.1c0-.1 0-.2.2-.3.2-.1.3-.4.3-.7 0-.1 0-.4.2-.5.1-.3.1-.4-.1-.8-.2-.5-.5-.7-.7-.6a7 7 0 0 0-1.2.7 3 3 0 0 1-.5.3l-.2.2-.4.7-.5.8c0 .4-.4 1.3-.5 1.4v.6l-.1.2-.4 1.4c-.1.3-.1.3 0 .4.3.2.3.2.4-.1zm-16.3-7l-1.3-.7v-.1c-.2 0-1-.6-1-.7-.2 0-.6-.4-.6-.5l-.5-.7-.6-1s0-.2-.2-.3l-.2-.2-.1-.3-.1-.3-.2-.4a5.1 5.1 0 0 1-.5-2.4v-.8l-.1-.3v-.4l-.1-.2c0-.2 0-.2-.2 0l-.3.1-.2.2-.2.2h-.1l-1 .5-.3.1-.6.3c-.3 0-.6.2-.8.3l-.5.2-.4.2h-.3l-.6.3-.7.3-.3.1-.4.2h-.3c-.1.2-.3.2-.4.2h-.2l-.6.2c-.3 0-.6 0-.7.2l-.3.1-.6.2c-.4.2-.4.2-1 0L23 41l-.2-.1-.2-.2-.3-.3-.5-.5c-.5-.5-1.1-1.5-1-1.7v-.1l-.1-.4v-.5l-.1-.3v-.2a3 3 0 0 1-.2-1.7v-1.4c0-.7 0-1 .2-1.2v-1.7l.1-.4V30A47 47 0 0 1 23 18.5v-.2s.1-.2 0-.2l.1-.2s.1-.1 0-.2l.1-.2.1-.2v-.4l.3-.7c0-.3.1-.5.2-.5v-.4s.1 0 0-.1l.1-.2.2-.5v-.4l.2-.4.2-.6a2.2 2.2 0 0 0 .1-.5l.1-.3.1-.4.1-.3c0-.4.4-1.3.5-1.4v-.1l.4-1.3.4-1.4v-.2c.1 0 .1-.1 0-.2l.1-.2s.1 0 0-.1l.1-.2.2-.3.2-.6.4-.8a18.2 18.2 0 0 1 .9-1.6v-.5c0-.2 0-.3.2-.4l.3-.2.5-.4c.7-.7.8-.8 1.4-.8.5 0 .6 0 .9.2.3.4.4.6.2.8l-.1 1.4a21.4 21.4 0 0 1-.4 4.1v.9l-.1.2v.3l-.1.2v.5l-.2.3v.5a17.7 17.7 0 0 0-.3 2.6l-.1 1-.1.3v.2l-.1.3v.4l-.2.5-.2 1-.1.4a12.2 12.2 0 0 1-.1 1l-.1.3v.3l-.1.3v.7l-.2.4a6.8 6.8 0 0 1 0 1.2l-.2.3-.1 1a23.8 23.8 0 0 1-.4 3.6v.6l-.1.4a23.8 23.8 0 0 0-.6 3.7v.6l-.2.3-.1 1-.1.6-.1.5-.1 1.6.1 1.5c.2 0 .7 0 1-.3l.3-.2s.2 0 .3-.2l1.3-.7c.8-.5 1-.6 1.1-.8l.3-.2h.3l.4-.2.3-.1.3-.1.3-.1h.4c.1-.1.3-.2.4-.1.3 0 .7 0 .7-.3v-.2c.1 0 .1-.2 0-.4l.1-.4s.1-.1 0-.2l.1-.3.1-.7.1-.2v-.1l.1-.3.1-.3v-.3l.2-.7v-.4s.1-.2 0-.2l.2-.4.2-.7c0-.3.4-1 .7-1.6l.4-.9a14.5 14.5 0 0 1 1-1.7c.1-.3.4-.6.6-.7l.3-.3a6.5 6.5 0 0 1 2.6-2.1l.3-.1c.2-.1.7-.1.8 0h.4c.5 0 .8.7.4 1.1l-.5.7-.1.3v.3c0 .1-.2.8-.4.8l-.1.1-.2.4-.2.4-.4 1.2-.2 1.2v.7c-.1.2-.2.4-.1.5l-.1.2v.3l-.1.3v.4l-.1.1-.1.6-.2.7-.1.5-.1.7-.1.3v.2l-.1.3v.4l-.2.3c0 .8-.3 1.6-.4 1.6v1.1l-.1 1.2v.5a14.8 14.8 0 0 0 .1 4l.2.6.3.5h.3c.2.2.8.2 1 0 .4 0 .6-.2 1.1-.7l.5-.5v-.2c.2 0 .2 0 .2-.2 0 0 0-.2.2-.3l.2-.7.3-.6.1-.4.2-.6c.2-.4.3-.5.5-1.3l.2-.6.1-.3c0-.4.2-.8.3-1l.2-1v-.3c.2-.2 0-.5-.3-.6l-.6-.3a.9.9 0 0 0-.3-.2l-.4-.5-.1-.1c-.2 0-.7-1-.8-1.4a6 6 0 0 0-.2-.6l-.2-1a25.7 25.7 0 0 1 .1-3.8v-.4l.2-.3.1-.4c0-.5.8-2 1.2-2.3l.4-.4c.2 0 .2 0 .2-.2h.4c.5 0 .5 0 .7-.2.3-.4.6-.3 1.2.2l1 .7a5 5 0 0 1 1.4.9l.3.4.8 1.1.3 1 .1.4v.4c.1 0 .2 0 .2.2v.6c.2.4.2 1.1.1 2-.2 2.3-.2 2.5 0 2.4l.4-.3c.2-.2.2-.3.2-1.7l.1-2.9.1-.7V26l.1-.7v-.5c.1 0 .1-.2 0-.4l.1-.3v-.4l.3-2.1c.2-.3.3-1 .3-1.3V20l.1-.2c-.1-.2.5-1.1.8-1.1l.2-.2.3-.1s.3 0 .4-.2c.4-.3 1.5-.4 1.8-.2h.2l.5.3c.4 0 .5.2.7.5.2.3.4 1 .3 1.2l-.1.7-.2 1.8-.2.9-.1.2v.2l-.1.4a2.5 2.5 0 0 0-.2.4l-.1 1.2-.2 1.8-.2 1.9c0 .6.1 1.3.3 1.6v5.2l.1.4c.1.1.2.4.1.8l.1 1c.1 0 .2.3.1.4v.2c.2.1.3.5.3 1s.1.6.3.6l.5-.8.3-.4v-.1l.3-.6.3-.8.3-.5.5-1.2.3-1c.1 0 .2-1 0-2v-.9a42.8 42.8 0 0 0 0-4.8c.2-.8.2-1 .2-2.6s.1-2.2.2-2.4c.1-.1.2-.5.2-1.3v-.8c.1 0 .1-.2 0-.2l.1-.2v-.3c.1-.4.8-1.2 1.5-1.6a4 4 0 0 1 2.1 0c.2 0 .5 0 .7.2l.8.3.4.3.1.4c.3.3.5 1 .5 1v.7a18.8 18.8 0 0 1-.3 4.8 8 8 0 0 1-.8 2.4l-.1.4a9 9 0 0 1-.8 1.5c-.2.3-.1.8 0 1.9l.2.4v.5l.1.3v.1l.1.2v.5c.1 0 .2.1.1.2v.3c.1 0 .2.1.1.2v.2l.2.4c0 .2 0 .5.2.7v.5l.1.1v.3l.1.2v.4c.1 0 .2.1.1.2v.3l.2.2.1.4.3.7c0 .3.3 1 .5 1.2.1 0 .4-.3.7-1l.4-.9.5-1.3.3-.7.2-.5v-.4l.2-.6.2-.4v-.2s0-.4.3-.8c.2-.5.3-.8.3-1.3 0-.8.2-1.3.3-1.3V30.6l.2-.3V30c.1-.3 0-.4-.1-.8l-.2-.5-.2-.5c-.4-.7-.7-1.5-.6-1.6v-.3c-.2-.2-.2-.4-.2-.6l-.1-.2v-.2l-.1-.2V25l-.1-.4-.1-.4-.1-.3v-.6l-.2-2.8a13.4 13.4 0 0 1 .1-2.5s.1-.1 0-.1l.1-.2V17l.1-.4.1-.2.1-.3.1-.4.3-.5c0-.3.8-1.1 1-1.1l.4-.1c.4-.2 1.2-.3 1.4-.2h1l.3.2h.7c.2 0 .3 0 .6.3l.3.5.3.2c.1 0 .2 0 .2.2v.2c.3.2.4 1 .5 1.7v1.1a26.2 26.2 0 0 1-.1 5.5c-.1 1-.2 2-.1 2.7l-.1 1v.7l-.1.8v.5l-.2 1.1.1.1h.3l.3-.2c.3 0 1.2-.8 1.2-.9l.3-.6c.3-.5.3-.5.7-.5.3 0 .8.1.8.3v1l-.2.3-.4.6-.4.6-.2.2-.7.6-.2.2-.2.2-.3.1c0 .2-.7.4-1.3.4-.1 0-.3.3-.2.6l-.1.2v.2l-.1.2v.4l-.2.2-.3 1-.1.5-.1.4s-.1.1 0 .2l-.4 1-.2.4c-.2.6-.3 1-.6 1.2a6 6 0 0 0-1 1.3l-.1.3-.2.3a8 8 0 0 1-1.8 1.6s-.3.3-1.1.6a3 3 0 0 1-.5.2l-.3.1-.5.1H68l-.8.1c-.7 0-1 0-1.4-.3h-.3a6 6 0 0 1-1.2-.6c-.5-.2-1.2-.8-1.3-1.1l-.2-.3-.1-.2s0-.2-.2-.3a4.4 4.4 0 0 1-.5-1.7l-.3-.6c-.1-.5-.2-.6-.2-.3l-.5 1-.1.5-.1.2-.1.2-.1.3-.4.4-.7.6-.4.4-.3.1-.4.2c-.2.2-.3.2-1.1.2-1 0-1.3 0-1.4-.2H55.6l-.2-.1-.7-.3-.6-.3c-.2 0-.5-.5-.8-.8l-.7-1.7a11.9 11.9 0 0 0-.5-1.4v-.3l-.1-.4v-.1l-.1-.3v-.6l-.2-.6v-2.5l-.2.1-.2.1-.2.1-.3.1-.1.3-.2.3-.2 1v.5l-.2.4a18.4 18.4 0 0 0-.1.9l-.7 1.1c-.2 0-.5.8-.5 1.3l-.1.6-.2.5s0 .2-.2.3l-.4.4s0 .3-.2.4l-.2.5v.2l-.2.1-.3.7c-.3.6-.6 1-.8 1l-.5.4-.5.5-.7.7c-.2 0-.3.1-.3.2l-.3.3-1 .4-.4.1a3 3 0 0 1-1 .2c-.9 0-1 0-1.5-.3zm5.6-15v-.5l.1-.5.2-3.5c0-1.5 0-1.7-.3-2.4-.2-.3-.5-.3-.7 0 0 .2-.1.3-.2.3 0 0-.5 1-.4 1.1l-.1.2v.2l-.1.2v.6c-.2.1-.2 1.4 0 1.5v1.1l.2.2c0 .3.4 1.2.6 1.3l.2.2c0 .2.2.3.3.4l.2-.4zm19.6-5.2v-.1s.1-.1 0-.2l.1-.2s.1 0 0-.1v-.2l.2-.3V25c.2-.6.2-.9.2-1.6 0-1 0-1.5-.3-2-.2-.2-.2-.2-.3 0v.2l-.1.3v.3l-.1.3V27l.3-.7zm7-.3v-1a55.4 55.4 0 0 0 .2-7.5c.2-.4.1-1 0-1l-.5.6-.1.4-.1.6-.1.4v.3l-.1.2v.7a22.2 22.2 0 0 0 .3 6l.1.4.2.2v-.3z"/>
</svg>
