<svg viewBox="0 0 100 13" xmlns="http://www.w3.org/2000/svg"><path d="m.4 8.3c0 1.2 0 2.4-.4 4.2h1.9c-.8-.9-1.3-2.7-1.4-4.2zm3.3-7.5h-3.3l5.3 12.2 1.6-4.3zm6.8 0v11.7h3v-11.7zm6.6 7.5a12 12 0 0 1 -2.7 4.2h2.2c-.3-.8-.4-1.5.6-4.2zm3.5-8-1.6 3.7 4.2 8.5h3.4l-6-12v-.2zm13.5 3.4h.1c1.6-1.9 2-2.3 2.8-3h-2c.2 1-.2 2-.8 3zm-3.3 4.6h-.1c-1 1.6-2.2 3-3.7 4.2h2.4c-.2-.6.2-2 1.4-4.2zm-.1-7.5h-3.5l7.7 11.7h3.6zm23.3 2.9c.8-1.7 1.3-2.2 2-3h-2.2c.3.7.5 1.6 0 3zm-3.5 9.1 1.8-4.2-3.3-7.8h-3.4l5 12zm-6.7 0 1.8-4.2-3.6-7.8h-3.4l5 12zm17.4-12v.2c1.7 0 3.2.5 4.5 1.5v-1.7zm0 11.6h4.5v-1.6c-1 .8-2.1 1.5-4.5 1.6zm0-5.8v.2c1.6 0 2.2.2 3.2.8v-1.7c-1 .5-2 .8-3.2.7zm-4.4-5.8v11.7h3v-11.7zm15.3 11.6h4.5v-1.6c-1 .8-2 1.5-4.5 1.6zm-4.3-11.6v11.7h3v-11.7zm15.1 11.6h4.6v-1.6c-1.1.8-2.2 1.5-4.6 1.6zm-4.3-11.6v11.7h3v-11.7zm8.8 3.2c.3-1.6.6-2.4 1.6-3.3h-1.7c0 1 .1 1.7-.1 3.3zm5.6 9c-.8 0-2.4-.3-2.9-.5v-2c.7 1.1 1.6 2 2.9 2.3zm.6-.1v.2c4.3 0 6.1-1.8 6.1-4.2 0-4.7-7.8-3.1-7.8-6.2 0-1.2 1-2 3-2v-.1c-3.7 0-5.2 1.7-5.2 3.9 0 4.5 7.8 3 7.8 6.2 0 1-.8 2.1-3.9 2.1zm2.1-12.4v.2c1.3.3 2.2 1.1 2.6 2.3v-2a10 10 0 0 0 -2.6-.7z" fill-rule="evenodd"/></svg>