<svg xmlns="http://www.w3.org/2000/svg" viewBox="0 0 100 98">
  <path d="M93.7 82.8s2.7-3.6 3.9-6.7a23.8 23.8 0 0 0-2.7-21.7 24.8 24.8 0 0 0-9.4-8.2A25 25 0 0 0 96 37.4l-.5.5a29.2 29.2 0 0 1-19.8 6.6H53.5V5h15.1v27.1h7.6c4.3 0 7.7-.5 10.2-3.5a19 19 0 0 0 3.7-12.1c0-4.8-1.2-9.2-3.7-12-.6-.8-1.4-1.5-2.3-2l-.2-.2-.3-.2-.4-.1-.2-.2-.4-.2h-.1A23 23 0 0 0 73.2 0H22.6l-2.4 5L19 7.7 18 5l-2.4-5H.4v97.5h71.9V91l4.6 6.6h23v-5.5l-6.2-9.3zM5.4 5h8L19 16.8 24.7 5h23.8v39.4H33.2V16.9l-10 20.7H15L5.4 18V5.1zM36 77.4H20.6V62.2l3.7 3.7L37 53.3l-3.8-3.8h15.3v15.3L44.8 61 32 73.7l3.8 3.7zM5.4 92.6H5h.5V28.7l10.2 20.8v33h25.3l10.1 10H5.4zm89.5 0H78.6l-4.8-7h-5.4v7H53.5v-43h23.9A17.1 17.1 0 0 1 90 55.2a20 20 0 0 1 3.5 5.7c1 2.1 1.4 4.3 1.4 6.5 0 3-.7 5.8-2 8.4a15.6 15.6 0 0 1-4.8 6.4l6.8 10.3zm-17.2-31h-9.3v11.9h9.7c1 0 1.9-.6 2.7-1.7.8-1 1.2-2.5 1.2-4.3 0-1.8-.5-3.2-1.4-4.3-.9-1.1-1.8-1.7-2.9-1.7z"/>
</svg>
