<svg xmlns="http://www.w3.org/2000/svg" viewBox="0 0 20 60">
  <path fill="#000" fill-rule="evenodd" d="M2 0h16a2 2 0 0 1 2 2v7.2c0 .5-.2 1-.6 1.4l-.4.4c-.6.6-.6 1.4 0 2l.4.4c.4.4.6.9.6 1.4v12.4c0 .5-.2 1-.6 1.4l-.4.4c-.6.6-.6 1.4 0 2l.4.4c.4.4.6.9.6 1.4v12.4c0 .5-.2 1-.6 1.4l-.4.4c-.6.6-.6 1.4 0 2l.4.4c.4.4.6.9.6 1.4V58a2 2 0 0 1-2 2H2a2 2 0 0 1-2-2v-7.2c0-.5.2-1 .6-1.4L1 49c.6-.6.6-1.4 0-2l-.4-.4a2 2 0 0 1-.6-1.4V32.8c0-.5.2-1 .6-1.4L1 31c.6-.6.6-1.4 0-2l-.4-.4a2 2 0 0 1-.6-1.4V14.8c0-.5.2-1 .6-1.4L1 13c.6-.6.6-1.4 0-2l-.4-.4A2 2 0 0 1 0 9.2V2C0 .9.9 0 2 0z"/>
</svg>
