<svg xmlns="http://www.w3.org/2000/svg" viewBox="0 0 20 70">
  <path d="M2 0h16a2 2 0 0 1 2 2v24.6c0 .3-.1.5-.3.7l-.4.4a1 1 0 0 0-.3.7V30l.3.3c.4.4.4 1 0 1.4l-.3.3v2l.3.3c.4.4.4 1 0 1.4l-.3.3v2l.3.3c.4.4.4 1 0 1.4l-.3.3v1.6c0 .3.1.5.3.7l.4.4c.2.2.3.4.3.7V53l-.3.3a1 1 0 0 0 0 1.4l.3.3v13a2 2 0 0 1-2 2H2a2 2 0 0 1-2-2V55l.3-.3c.4-.4.4-1 0-1.4L0 53v-9.6c0-.3.1-.5.3-.7l.4-.4c.2-.2.3-.4.3-.7V40l-.3-.3a1 1 0 0 1 0-1.4L1 38v-2l-.3-.3a1 1 0 0 1 0-1.4L1 34v-2l-.3-.3a1 1 0 0 1 0-1.4L1 30v-1.6a1 1 0 0 0-.3-.7l-.4-.4a1 1 0 0 1-.3-.7V2C0 .9.9 0 2 0z"/>
</svg>
