<svg xmlns="http://www.w3.org/2000/svg" viewBox="0 0 100 31">
  <path fill-rule="evenodd" d="M.51 24.86h.64v.61h.02c.3-.47.75-.7 1.33-.7.26 0 .5.05.7.16.2.1.35.29.44.54.14-.22.32-.4.55-.52.23-.12.47-.18.75-.18.2 0 .4.02.56.07a.96.96 0 0 1 .71.58c.07.15.1.34.1.55V29h-.68v-2.71c0-.13 0-.25-.03-.36a.73.73 0 0 0-.12-.3.6.6 0 0 0-.24-.19.97.97 0 0 0-.4-.07c-.34 0-.6.1-.8.29-.2.19-.29.44-.29.76V29h-.68v-2.71c0-.13-.01-.26-.03-.37a.78.78 0 0 0-.13-.3.58.58 0 0 0-.23-.18.91.91 0 0 0-.38-.07c-.2 0-.37.04-.51.12a1.15 1.15 0 0 0-.6.93V29H.51v-4.14zm13.19 4.12a.95.95 0 0 1-.49.1.58.58 0 0 1-.42-.14c-.1-.1-.15-.26-.15-.48a1.63 1.63 0 0 1-.66.48 2.15 2.15 0 0 1-.8.15c-.19 0-.36-.02-.53-.07a1.24 1.24 0 0 1-.44-.2.96.96 0 0 1-.29-.35 1.2 1.2 0 0 1-.1-.53c0-.24.03-.43.11-.58.08-.15.19-.27.32-.36.13-.1.28-.17.45-.22a5.38 5.38 0 0 1 .51-.12l.53-.08c.17-.02.32-.04.45-.08a.74.74 0 0 0 .3-.15c.08-.07.11-.17.11-.3a.68.68 0 0 0-.08-.35.58.58 0 0 0-.22-.21.88.88 0 0 0-.3-.1 2.23 2.23 0 0 0-.32-.02c-.28 0-.52.05-.72.16-.19.11-.3.32-.3.62h-.69c.01-.25.07-.47.16-.65.1-.17.23-.31.39-.42.16-.11.34-.2.54-.24a3.82 3.82 0 0 1 1.22-.03c.18.03.35.08.5.16.15.09.27.2.36.35.09.15.14.34.14.58v2.13c0 .16 0 .28.02.35.02.08.09.12.2.12a.67.67 0 0 0 .2-.04v.52zm-1.1-2.12a.85.85 0 0 1-.34.14l-.44.08-.46.06a1.7 1.7 0 0 0-.41.12.76.76 0 0 0-.3.22.64.64 0 0 0-.12.4c0 .12.02.22.07.3.04.07.1.13.18.18a.74.74 0 0 0 .25.1 1.6 1.6 0 0 0 .88-.06c.16-.06.29-.13.39-.23a.92.92 0 0 0 .22-.3.77.77 0 0 0 .08-.31v-.7zm4.47-3.57h.68V29h-.68v-5.71zm8.1 5.7a.95.95 0 0 1-.49.1.58.58 0 0 1-.42-.15c-.1-.1-.15-.26-.15-.48a1.63 1.63 0 0 1-.65.48 2.15 2.15 0 0 1-.8.15c-.2 0-.37-.02-.54-.07a1.24 1.24 0 0 1-.44-.2.96.96 0 0 1-.29-.35 1.2 1.2 0 0 1-.1-.53c0-.24.03-.43.11-.58.08-.15.19-.27.32-.36.13-.1.28-.17.45-.22a5.38 5.38 0 0 1 .51-.12l.54-.08c.16-.02.31-.04.44-.08a.74.74 0 0 0 .3-.15c.08-.07.12-.17.12-.3a.68.68 0 0 0-.09-.35.58.58 0 0 0-.21-.21.88.88 0 0 0-.3-.1 2.23 2.23 0 0 0-.32-.02c-.3 0-.53.05-.72.16-.2.11-.3.32-.32.62h-.68c.01-.25.07-.47.16-.65.1-.17.23-.31.39-.42.16-.11.34-.2.55-.24a3.82 3.82 0 0 1 1.22-.03c.18.03.34.08.5.16.14.09.26.2.35.35.1.15.14.34.14.58v2.13c0 .16 0 .28.03.35.01.08.08.12.18.12a.67.67 0 0 0 .21-.04v.52zm-1.1-2.13a.85.85 0 0 1-.34.14l-.43.08-.46.06a1.7 1.7 0 0 0-.42.12.76.76 0 0 0-.3.22.64.64 0 0 0-.12.4c0 .12.03.22.07.3.05.07.1.13.18.18a.74.74 0 0 0 .25.1 1.6 1.6 0 0 0 .88-.06c.16-.06.29-.13.4-.23a.92.92 0 0 0 .22-.3.77.77 0 0 0 .07-.31v-.7zm6.06 2.7c-.08.2-.16.37-.24.5a1.4 1.4 0 0 1-.25.34.87.87 0 0 1-.32.2 1.2 1.2 0 0 1-.4.06 1.76 1.76 0 0 1-.46-.08v-.62a1.14 1.14 0 0 0 .4.1.58.58 0 0 0 .34-.1.61.61 0 0 0 .22-.29l.28-.7-1.64-4.1h.76l1.21 3.38h.02l1.16-3.39h.72l-1.8 4.7zm5.49-1.86c0 .15.04.27.1.38a.72.72 0 0 0 .26.24c.1.06.22.1.35.14a1.98 1.98 0 0 0 1.06-.08.6.6 0 0 0 .25-.18.5.5 0 0 0 .1-.32.45.45 0 0 0-.2-.4c-.14-.09-.3-.16-.5-.22a8.18 8.18 0 0 0-.66-.15 3.38 3.38 0 0 1-.65-.2 1.35 1.35 0 0 1-.5-.34.9.9 0 0 1-.2-.63.99.99 0 0 1 .14-.53c.1-.15.21-.27.36-.37a2.3 2.3 0 0 1 1.04-.28c.24 0 .45.03.65.07.2.04.37.1.52.2.16.1.28.24.37.4.09.17.14.38.16.63h-.68a.69.69 0 0 0-.1-.33.68.68 0 0 0-.23-.21 1.02 1.02 0 0 0-.3-.12 1.54 1.54 0 0 0-.33-.03c-.1 0-.2 0-.31.02a1.04 1.04 0 0 0-.28.09.57.57 0 0 0-.21.16.4.4 0 0 0-.08.26c0 .11.04.21.12.29a.99.99 0 0 0 .32.19c.13.05.27.1.43.13l.48.1.5.14c.16.05.3.13.43.21s.23.2.3.34a.97.97 0 0 1 .12.5c0 .24-.05.45-.15.62a1.22 1.22 0 0 1-.41.4 1.7 1.7 0 0 1-.57.2c-.21.05-.42.07-.63.07a2.91 2.91 0 0 1-.65-.07 1.61 1.61 0 0 1-.56-.24 1.2 1.2 0 0 1-.38-.43 1.5 1.5 0 0 1-.16-.65h.68zm7-3.58h-.68v-.83h.68v.83zm-.68.74h.68V29h-.68v-4.14zm8.1 4.12a.95.95 0 0 1-.48.1.58.58 0 0 1-.42-.14c-.1-.1-.16-.26-.16-.48a1.63 1.63 0 0 1-.65.48 2.15 2.15 0 0 1-.8.15c-.2 0-.37-.02-.54-.07a1.24 1.24 0 0 1-.43-.2.96.96 0 0 1-.3-.35 1.2 1.2 0 0 1-.1-.53c0-.24.04-.43.12-.58.08-.15.18-.27.31-.36.13-.1.28-.17.45-.22a5.38 5.38 0 0 1 .52-.12l.53-.08c.17-.02.31-.05.44-.08a.74.74 0 0 0 .3-.15c.08-.07.12-.17.12-.3a.68.68 0 0 0-.09-.35.58.58 0 0 0-.21-.21.88.88 0 0 0-.3-.1 2.23 2.23 0 0 0-.32-.02c-.29 0-.53.05-.72.16-.2.11-.3.32-.31.62h-.68c0-.25.06-.47.16-.65.1-.17.22-.32.38-.42.16-.11.34-.2.55-.24a3.82 3.82 0 0 1 1.22-.03c.18.02.34.08.5.16.14.08.26.2.35.35.1.15.14.34.14.58v2.13c0 .16.01.28.03.35.02.08.08.12.19.12a.67.67 0 0 0 .2-.04v.52zm-1.1-2.12a.85.85 0 0 1-.34.14l-.43.08-.46.06a1.7 1.7 0 0 0-.42.12.76.76 0 0 0-.3.22.64.64 0 0 0-.11.4c0 .12.02.21.06.3.05.07.1.13.18.18a.74.74 0 0 0 .25.1 1.6 1.6 0 0 0 .88-.06c.16-.06.3-.14.4-.23a.92.92 0 0 0 .22-.3.77.77 0 0 0 .07-.31v-.7zm4.44-2h.64v.66h.01c.28-.5.73-.75 1.35-.75.27 0 .5.03.68.11.18.07.32.18.44.31.1.13.19.3.23.48.05.18.07.39.07.61V29h-.68v-2.8a.82.82 0 0 0-.22-.6.83.83 0 0 0-.62-.23c-.2 0-.39.03-.54.1a1.01 1.01 0 0 0-.38.27 1.17 1.17 0 0 0-.23.4 1.7 1.7 0 0 0-.07.52V29h-.68v-4.14zm12.48 2.84c0 .15.04.27.1.38a.72.72 0 0 0 .26.24c.1.06.22.1.35.14a1.98 1.98 0 0 0 1.07-.08.6.6 0 0 0 .24-.18.5.5 0 0 0 .1-.32.45.45 0 0 0-.2-.4c-.14-.09-.3-.16-.5-.22a8.18 8.18 0 0 0-.66-.15 3.38 3.38 0 0 1-.65-.2 1.35 1.35 0 0 1-.5-.34.9.9 0 0 1-.2-.63.99.99 0 0 1 .14-.53c.1-.15.21-.27.36-.37a2.3 2.3 0 0 1 1.04-.28c.24 0 .46.03.65.07.2.04.38.1.53.2.15.1.27.24.36.4.1.17.15.38.16.63h-.68a.69.69 0 0 0-.1-.33.68.68 0 0 0-.23-.21 1.02 1.02 0 0 0-.3-.12 1.54 1.54 0 0 0-.33-.03c-.1 0-.2 0-.3.02a1.04 1.04 0 0 0-.29.09.57.57 0 0 0-.2.16.4.4 0 0 0-.09.26c0 .11.04.21.13.29a.99.99 0 0 0 .31.19c.13.05.27.1.43.13l.48.1.5.14c.17.05.31.13.44.21s.22.2.3.34a.97.97 0 0 1 .12.5c0 .24-.06.45-.16.62a1.22 1.22 0 0 1-.4.4 1.7 1.7 0 0 1-.58.2c-.2.05-.42.07-.62.07a2.91 2.91 0 0 1-.66-.07 1.61 1.61 0 0 1-.55-.24 1.2 1.2 0 0 1-.39-.43 1.5 1.5 0 0 1-.16-.65h.68zm9.16-1.16a1.4 1.4 0 0 0-.1-.46 1.17 1.17 0 0 0-.62-.62 1.16 1.16 0 0 0-.47-.1c-.18 0-.34.04-.48.1a1.1 1.1 0 0 0-.36.25c-.1.1-.18.23-.24.37a1.42 1.42 0 0 0-.1.46h2.37zm.66 1.15c-.1.46-.3.81-.6 1.05-.31.23-.7.35-1.17.35-.33 0-.62-.06-.86-.16a1.7 1.7 0 0 1-.61-.45 1.9 1.9 0 0 1-.38-.69 3.31 3.31 0 0 1-.14-.87c0-.32.05-.6.15-.86.1-.27.23-.5.4-.68a1.83 1.83 0 0 1 1.4-.61c.37 0 .67.07.91.23.25.15.44.34.59.58.15.23.25.49.3.76.06.28.08.54.07.8h-3.1c0 .18.02.35.07.51a1.15 1.15 0 0 0 .64.73c.16.08.36.12.58.12.29 0 .53-.07.71-.2.18-.14.3-.34.36-.61h.68zm3.44-2.83h.64v.88h.02c.16-.34.36-.59.6-.75.24-.16.55-.23.92-.22v.72c-.28 0-.5.03-.7.11a1.1 1.1 0 0 0-.46.33 1.36 1.36 0 0 0-.26.52c-.05.2-.08.44-.08.71V29h-.68v-4.14zm6.1-.74h-.67v-.83h.68v.83zm-.67.74h.68V29h-.68v-4.14zm7.3 1.68a1.4 1.4 0 0 0-.1-.46 1.17 1.17 0 0 0-.62-.62 1.16 1.16 0 0 0-.47-.1c-.17 0-.33.04-.47.1a1.1 1.1 0 0 0-.37.25c-.1.1-.18.23-.24.37a1.42 1.42 0 0 0-.1.46h2.38zm.66 1.15c-.09.46-.29.81-.6 1.05-.3.23-.7.35-1.17.35-.33 0-.61-.06-.86-.16a1.7 1.7 0 0 1-.6-.45 1.9 1.9 0 0 1-.38-.69 3.31 3.31 0 0 1-.14-.87c0-.32.05-.6.14-.86.1-.27.23-.5.4-.68a1.83 1.83 0 0 1 1.4-.61c.37 0 .68.07.92.23.24.15.44.34.58.58.15.23.25.49.3.76.06.28.09.54.08.8h-3.1c0 .18.02.35.06.51a1.15 1.15 0 0 0 .64.73c.17.08.36.12.59.12.29 0 .52-.07.7-.2.19-.14.31-.34.37-.61h.67zm3.89 0c0 .16.04.28.1.39a.72.72 0 0 0 .25.24c.1.06.22.1.35.14a1.98 1.98 0 0 0 1.07-.08.6.6 0 0 0 .24-.18.5.5 0 0 0 .1-.32.45.45 0 0 0-.2-.4c-.13-.09-.3-.16-.5-.22a8.18 8.18 0 0 0-.65-.15 3.38 3.38 0 0 1-.66-.2 1.35 1.35 0 0 1-.5-.34.9.9 0 0 1-.2-.63.99.99 0 0 1 .14-.53c.1-.15.22-.27.36-.37a2.3 2.3 0 0 1 1.04-.28c.24 0 .46.03.66.07.2.04.37.1.52.2.15.1.27.24.36.4.1.17.15.38.16.63h-.68a.69.69 0 0 0-.1-.33.68.68 0 0 0-.22-.21 1.02 1.02 0 0 0-.3-.12 1.54 1.54 0 0 0-.34-.03c-.1 0-.2 0-.3.02a1.04 1.04 0 0 0-.29.09.57.57 0 0 0-.2.16.4.4 0 0 0-.09.26c0 .11.05.21.13.29a.99.99 0 0 0 .31.19c.13.05.28.1.44.13l.48.1.5.14c.16.05.3.13.43.21s.23.2.3.34a.97.97 0 0 1 .12.5c0 .24-.05.45-.16.62a1.22 1.22 0 0 1-.4.4 1.7 1.7 0 0 1-.57.2c-.21.05-.42.07-.63.07a2.91 2.91 0 0 1-.66-.07 1.61 1.61 0 0 1-.55-.24 1.2 1.2 0 0 1-.38-.43 1.5 1.5 0 0 1-.16-.65h.68zM0 1v20a1 1 0 0 0 1 1h3a1 1 0 0 0 1-1v-8.48a.1.1 0 0 1 .2-.04l3.77 9.46a.1.1 0 0 0 .1.06h1.86a.1.1 0 0 0 .1-.06l3.78-9.46a.1.1 0 0 1 .19.04V21a1 1 0 0 0 1 1h3a1 1 0 0 0 1-1V1a1 1 0 0 0-1-1h-3.33a1 1 0 0 0-.93.61L10.1 11.79a.1.1 0 0 1-.18 0L5.26.62A1 1 0 0 0 4.33 0H1a1 1 0 0 0-1 1zm23 0v20a1 1 0 0 0 1 1h2a1 1 0 0 0 1-1V1a1 1 0 0 0-1-1h-2a1 1 0 0 0-1 1zm6 0v3.8a1 1 0 0 0 .08.39l2.9 6.77a.1.1 0 0 1 0 .08l-2.9 6.77a1 1 0 0 0-.08.4V21a1 1 0 0 0 1 1h1.38a1 1 0 0 0 .9-.55l2.63-5.27a.1.1 0 0 1 .18 0l2.63 5.27a1 1 0 0 0 .9.55H40a1 1 0 0 0 1-1v-1.8a1 1 0 0 0-.08-.39l-2.9-6.77a.1.1 0 0 1 0-.08l2.9-6.77a1 1 0 0 0 .08-.4V1a1 1 0 0 0-1-1h-1.38a1 1 0 0 0-.9.55L35.1 5.82a.1.1 0 0 1-.18 0L32.28.55a1 1 0 0 0-.9-.55H30a1 1 0 0 0-1 1zm16 4h-1a1 1 0 0 1-1-1V1a1 1 0 0 1 1-1h8a1 1 0 0 1 1 1v3a1 1 0 0 1-1 1h-1a1 1 0 0 0-1 1v15a1 1 0 0 1-1 1h-2a1 1 0 0 1-1-1V6a1 1 0 0 0-1-1zm10-4v17c0 2.67 2.33 4 7 4s7-1.33 7-4V1a1 1 0 0 0-1-1h-2a1 1 0 0 0-1 1v13a3 3 0 1 1-6 0V1a1 1 0 0 0-1-1h-2a1 1 0 0 0-1 1zm16 0v20a1 1 0 0 0 1 1h3a1 1 0 0 0 1-1v-5a1 1 0 0 1 1-1h.25a1 1 0 0 1 .96.72l1.58 5.55a1 1 0 0 0 .96.73h2.8a1 1 0 0 0 .94-1.35l-2.28-6.09a1 1 0 0 1 .15-.97C83.46 12.21 84 10.02 84 7c0-3.24-1.26-5.53-3.77-6.88a1 1 0 0 0-.47-.12H72a1 1 0 0 0-1 1zm4 4v6c3.33.67 5-.33 5-3s-1.67-3.67-5-3zm12 16V1a1 1 0 0 1 1-1h10a1 1 0 0 1 1 1v2.8a1 1 0 0 1-1 1h-5a1 1 0 0 0-1 1V7a1 1 0 0 0 1 1h3a1 1 0 0 1 1 1v3a1 1 0 0 1-1 1h-3a1 1 0 0 0-1 1v2a1 1 0 0 0 1 1h5.78a1 1 0 0 1 .98 1.2l-.6 3a1 1 0 0 1-.98.8H88a1 1 0 0 1-1-1z"/>
</svg>
