<svg xmlns="http://www.w3.org/2000/svg" viewBox="0 0 20 30">
  <path d="M0 26v-4.6c0-.3.1-.5.3-.7l.4-.4c.2-.2.3-.4.3-.7v-4.2a1 1 0 0 0-.3-.7l-.4-.4a1 1 0 0 1-.3-.7V9l.3-.3c.4-.4.4-1 0-1.4L0 7V5.6c0-.4.2-.7.6-.9l1-.5.5-.6.7-2.8a1 1 0 0 1 1-.8h12.4c.5 0 .9.3 1 .8l.7 2.8c0 .2.3.5.5.6l1 .5c.4.2.6.5.6 1V7l-.3.3a1 1 0 0 0 0 1.4l.3.3v4.6c0 .3-.1.5-.3.7l-.4.4a1 1 0 0 0-.3.7v4.2c0 .3.1.5.3.7l.4.4c.2.2.3.4.3.7V26c0 .6-.4 1-1 1h-6v1c0 .6-.4 1-1 1 0 .6-.4 1-1 1H9a1 1 0 0 1-1-1 1 1 0 0 1-1-1v-1H1a1 1 0 0 1-1-1zm10.6-10H9.4a1 1 0 0 0-.7.3l-.4.4a1 1 0 0 1-.7.3H6.5c-.3 0-.5.2-.5.5s.2.5.5.5h1c.4 0 .6.1.8.3l.4.4c.2.2.4.3.7.3h1.2c.3 0 .5-.1.7-.3l.4-.4c.2-.2.4-.3.7-.3h1.1c.3 0 .5-.2.5-.5s-.2-.5-.5-.5h-1a1 1 0 0 1-.8-.3l-.4-.4a1 1 0 0 0-.7-.3z"/>
</svg>
