<svg xmlns="http://www.w3.org/2000/svg" viewBox="0 0 20 30">
  <path fill="#000" fill-rule="evenodd" d="M0 26v-1l.3-.3c.4-.4.4-1 0-1.4L0 23V11l.3-.3c.4-.4.4-1 0-1.4L0 9V7.7c0-.4.2-.8.6-1L5 5V1c0-.6.4-1 1-1h8c.6 0 1 .4 1 1v4l4.4 1.7c.4.2.6.6.6 1V9l-.3.3a1 1 0 0 0 0 1.4l.3.3v12l-.3.3a1 1 0 0 0 0 1.4l.3.3v1c0 .6-.4 1-1 1h-6v1c0 .6-.4 1-1 1 0 .6-.4 1-1 1H9a1 1 0 0 1-1-1 1 1 0 0 1-1-1v-1H1a1 1 0 0 1-1-1zm5-11a2 2 0 1 1 0 4 2 2 0 1 1 0-4zm5 0a2 2 0 1 1 0 4 2 2 0 1 1 0-4zm5 0a2 2 0 1 1 0 4 2 2 0 1 1 0-4z"/>
</svg>
