<svg viewBox="0 0 20 40" xmlns="http://www.w3.org/2000/svg"><path d="m0 36v-1l.3-.3c.4-.4.4-1 0-1.4l-.3-.3v-22l.3-.3c.4-.4.4-1 0-1.4l-.3-.3v-3c0-.6.4-1 1-1h4v-4c0-.6.4-1 1-1h8c.6 0 1 .4 1 1v4h4c.6 0 1 .4 1 1v3l-.3.3a1 1 0 0 0 0 1.4l.3.3v22l-.3.3a1 1 0 0 0 0 1.4l.3.3v1c0 .6-.4 1-1 1h-6v1c0 .6-.4 1-1 1 0 .6-.4 1-1 1h-2a1 1 0 0 1 -1-1 1 1 0 0 1 -1-1v-1h-6a1 1 0 0 1 -1-1zm8-29a1 1 0 0 0 0 2h4a1 1 0 0 0 0-2zm-6 23c0 .6.4 1 1 1h1c.6 0 1-.4 1-1v-6c0-.6.4-1 1-1h1c.6 0 1-.4 1-1v-9c0-.6-.4-1-1-1h-4a1 1 0 0 0 -1 1zm16 0v-17c0-.6-.4-1-1-1h-4a1 1 0 0 0 -1 1v9c0 .6.4 1 1 1h1c.6 0 1 .4 1 1v6c0 .6.4 1 1 1h1c.6 0 1-.4 1-1zm-10-1c.6 0 1 .4 1 1s-.4 1-1 1a1 1 0 0 1 0-2zm4 0c.6 0 1 .4 1 1s-.4 1-1 1a1 1 0 0 1 0-2z" fill-rule="evenodd"/></svg>