<svg viewBox="0 0 100 36" xmlns="http://www.w3.org/2000/svg"><path d="m14.2 35c-1.1.6-2 .8-5 .8-5 0-7-.5-8.4-2.5-.5-.8-.5-1.4-.8-5v-4.1h3.3l3.4.2v2.6c0 3.1.2 3.7 2 3.7 1.6 0 1.9-.6 1.9-5l-.3-4.5c-.3-.5-1.1-.5-3.6-.8s-3-.3-4.2-.9c-2.2-1.4-2.2-1.4-2.5-8.9 0-6.4 0-6.7.6-7.8.5-.9 1-1.4 2.2-2 1-.5 1.4-.5 5.5-.5 4 0 4.5 0 5.6.5 1.4.9 2.8 2.3 3 4l.3 3.8v2.8h-6.6v-2.5c0-3.3-.6-3.9-2.8-3.6-.9 0-1.4 1.4-1.4 5l.3 3.9.5 1h2.8l3.9.6c1.4.6 2.8 2 3 3.4v13c-.2 1.4-1 2.2-2.7 2.8zm11.6-5.3v6.1h-6.4v-35.8h6.4v6.4l.3 6.1 2-6.1 1.9-6.1 3-.3c3.1 0 3.4 0 3.4.6l-2.8 8.8-2.5 8.7 2.5 8.3 2.8 8.9c0 .5-.3.5-3.3.5h-3.1l-.8-3-2-6.4-1-3zm19.5-11.6v17.7h-6.4v-35.8h6.4v18zm17.7 15.2v2.5h-7.8l-7.5-.2-.3-17.8.3-17.5 3-.3h3.4v30.6h4.4l4.5.2zm17.5 0v2.5h-15.2v-35.8h6.4v30.6h4.3l4.5.2zm15.2 2.3-4.4.2c-4.7 0-6.7-.8-7.8-2.5-.5-.8-.5-1.4-.5-5v-4.1h6.3v2.5c0 3.3.3 3.9 2 3.9s2-.6 2.2-4.2c.3-5.6 0-5.8-4.2-6.1-2.5 0-3-.3-4.1-.9-2.2-1-2.2-1.6-2.5-8.6 0-7 0-7.7 1.6-9.1 1.5-1.1 3.5-1.7 6.8-1.7 5 0 7 .8 8.3 3.3.6 1.4.6 2 .6 4.8v3.3h-6.7v-2.5c0-2.8-.2-3.3-1.4-3.6-.5-.3-1.9.3-2.2.5l-.3 4.5c0 5 0 5 3.7 5 3 .3 4.1.5 5.2 1.6 1.7 1.2 1.7 2 1.7 8.7 0 5.5 0 6.3-.6 7.2-.8 1.6-1.3 2.2-3.6 2.8z"/></svg>