<svg viewBox="0 0 101 38" xmlns="http://www.w3.org/2000/svg" xmlns:xlink="http://www.w3.org/1999/xlink"><defs><path id="a" d="m10.4 36.6c-6-.7-8.5-1.7-9.6-4-.7-1.2-1-7-.6-7.7.4-.6 1.8-.8 5-.8 2.5 0 2.8.2 3 2 .2 1.7.7 2.8 1.3 2.8.4 0 1.4-1 1.4-1.5 0-.8-1.5-2.8-3.9-5.2-4.1-4.3-5.6-6.5-6-9.2a16 16 0 0 1 3.5-10.6c2.3-2.4 6.7-3 13.1-1.4 3.5.8 5 2 5.7 4.4.6 2.2.3 7.5-.5 8.3-.2.2-.6.5-.9.5-.6.1-5-.2-6.1-.4-1-.2-1.3-1-1.5-3-.2-1.6-.4-2-1.1-2.1-.5 0-1.4 1.1-1.7 2.1-.4 1.6 0 2.2 4.5 6.7 3.8 3.9 4.1 4.3 4.6 5.6 1.4 4 .4 9-2.6 12-1.7 1.8-3.3 2-7.6 1.6zm43.8 0c-1-.5-1.1-1.2-.7-3.1.2-.8.4-2.3.4-3.3.1-1.6 0-1.7-.5-2l-1.4-.2c-1.4 0-1.6.4-1.8 3.8 0 1.6-.3 3-.4 3.2-.2.3-1.1.4-4.2.7-4.3.5-5 .4-5.3-.6-.4-1-.2-2.7 1-12.8l1.5-13c.3-3.7.5-4.4 1.5-5.9a8.6 8.6 0 0 1 4.2-2.9c3-1 9.7-.5 12.6.8 1.2.6 3 2.5 3.2 3.2l.4 1.6c1 3.7 1 8.6-.3 17-.4 2.5-.7 6-.8 7.7-.2 3.7-.5 5-1.1 5.5-.8.4-7.4.6-8.3.2zm.6-16.7c.2-.3.9-4.9 1-7.8l.2-2-1-1c-1.2-1.3-1.7-1.4-2.5-.6-.5.5-.5.4-1.1 8-.2 1.7-.2 3.2 0 3.3 0 .1.5.2 2.6.4.3 0 .6-.1.8-.3zm-31 16c-.1-.2.2-4.2 1.6-20.1l1-12c0-1.8.2-3.1.7-3.4.1-.1 1.9-.2 3.9-.2 3.5 0 3.5 0 3.5.5a1851.6 1851.6 0 0 1 -.9 25v1.9l2.1-.1 2.1-.1.1 3.3v3.8c-.3 1.2-.9 1.3-7.6 1.4a68 68 0 0 1 -6.4 0zm66.2 0c-.4-.3-.4-.5 0-3.6l.4-5 .2-1.6 3.2-.1 3.7-.1c.4 0 .5.3.4 4.3-.1 4.7-.3 5.6-1.1 6l-3.5.3c-2.3 0-3 0-3.3-.2zm-22-.9-.5-.4.6-7.8.8-12.2a48 48 0 0 1 1.3-13.2c.3-.3 1.5-.3 7.6-.3 7.8 0 8.6 0 9.6 1.2 1 1 1.2 2.4 1.2 6.3 0 3.7-.6 11-1 12.7a5.9 5.9 0 0 1 -3.1 3.4c-.6.3-2.7.8-4.5 1.2-1.9.4-3.5.8-3.7 1s-.5 2.8-.5 5c0 1.8-.3 3.1-.8 3.4l-3.4.2c-2.7 0-3.2 0-3.6-.5zm11.6-16c1.5-.8 1.7-1.5 1.7-5.3l-.1-4c-.3-.7-1.4-1.5-2.3-1.5-1.2 0-1.5 1.1-2 7.2-.3 2.9-.3 3.1.1 3.6.5.5 1.5.5 2.6 0zm11.5 4c-.5-.2-.4-3 .5-10.1l1-8.4c.2-3.2.3-3.3 3.8-3 3.2.4 3.4.4 3.6.8.1.5-1 15.6-1.2 17.4-.3 1.4-.6 2-1.2 2.3-.2.2-1.7.5-3.2.7-3 .5-3 .5-3.3.3z"/><filter id="b" height="105.4%" width="102%" x="-.5%" y="-1.4%"><feOffset dx="1" dy="1" in="SourceAlpha" result="shadowOffsetOuter1"/><feColorMatrix in="shadowOffsetOuter1" values="0 0 0 0 0.9 0 0 0 0 0.18 0 0 0 0 0.3 0 0 0 1 0"/></filter></defs><g fill="none" fill-rule="evenodd"><use fill="#000" filter="url(#b)" xlink:href="#a"/><use fill="#e6a82e" xlink:href="#a"/></g></svg>