<svg xmlns="http://www.w3.org/2000/svg" viewBox="0 0 20 20">
  <path d="M20 11.4l-2.2 2.2-1.5-1.5 3-3-1-1.2-3.1 3-1.4-1.3 3.4-3.3L16 5.1 11.3 10l6.3 6.3 2.3-2.3a7.5 7.5 0 0 1-6.8 6l-2-1.8 1.5-1.5.9-1.2.2-1.1c0-.4-.1-.7-.3-1a3.4 3.4 0 0 0-1.5-1.5 2.5 2.5 0 0 0-2.1 0c-.4 0-.8.4-1.2.8l-2.9 2.8 4.6 4.6H5a1 1 0 0 1-1-1v-1a2 2 0 0 0-2-2H1a1 1 0 0 1-1-1v-5l6.4 3.3 1.5-1.6-4.2-8.4-1.4 1.4 3 5.9L0 8v-.4C0 3.4 3.4 0 7.5 0h5C16.6 0 20 3.4 20 7.5v4zM9 5.8L7.3 2.7l3.2 1.5-1.7 1.6zm-3.8-4l4 8.7 1.3-1.4-.9-1.9L12 4.8l1.9 1 1.4-1.5-8.7-4-1.4 1.5zM10.1 17l-1.9-2 1-1 .6-.4.5-.3h.6l.6.4.3.6v.6c0 .2 0 .3-.2.5l-.4.5-1.1 1z"/>
</svg>
