<svg viewBox="0 0 20 20" xmlns="http://www.w3.org/2000/svg"><path d="m15.2 0-2.8 2.9 5 5 2.6-2.5v9.6c0 .6-.4 1-1 1h-1a2 2 0 0 0 -2 2v1c0 .6-.4 1-1 1h-13a2 2 0 0 1 -2-2v-1.3l5.8 2.9 1-1-3.3-6.8-1.1 1 2.7 5-5-2.7-.1.1v-13.2c0-1.1.9-2 2-2zm1.8 0h1a2 2 0 0 1 2 2v1.6l-2.4 2.4-1.3-1.3 2.4-2.5-.8-.9-2.5 2.5-1.1-1zm-9.2 13.8-1.4-2.8 2.7 1.4-1.3 1.3zm-3.1-3.3 3.2 7 1.2-1.2-.7-1.4 1.8-1.8 1.4.7 1.2-1.2-7-3.3zm7.8-4.5c.2.3.3.5.3.8s-.1.5-.4.8l-1 1-1.4-1.6 1-1 .8-.5c.2 0 .5.1.8.4zm1-1c-.5-.6-1.1-.9-1.7-.8-.5 0-1 .3-1.6.8l-2.2 2.2 5 5.1 1.1-1-1.8-1.9 1-1c.7-.6 1-1.2 1-1.7 0-.6-.2-1.2-.8-1.8z"/></svg>