<svg viewBox="0 0 28 60" xmlns="http://www.w3.org/2000/svg"><g fill="none"><path d="m5 59h18v-39c-5 1-13-1-18 0z" fill="#fa0"/><path d="m4 57v-39.59a1 1 0 0 1 .3-.7l.2-.21a.7.7 0 0 0 0-1l-.2-.2a1 1 0 0 1 -.3-.71v-6.61a2 2 0 0 1 .77-1.58l7.69-5.98a2 2 0 0 1 1.23-.42h.62a2 2 0 0 1 1.23.42l7.69 5.98a2 2 0 0 1 .77 1.58v6.6a1 1 0 0 1 -.3.71l-.2.21a.7.7 0 0 0 0 1l.2.2a1 1 0 0 1 .3.71v39.59a3 3 0 0 1 -3 3h-14a3 3 0 0 1 -3-3zm3 2h14a2 2 0 0 0 2-2v-37a2 2 0 0 0 -2-2h-14a2 2 0 0 0 -2 2v37c0 1.1.9 2 2 2z" fill="#000"/><path d="m15.3 29.6-.95.95a.5.5 0 0 1 -.7 0l-.95-.95c-1.3-1.3-2.6-2.6-5.2-2.6-2.54 0-6.5 2.6-6.5 6.5 0 5.2 10.4 16.25 13 16.25s13-11.05 13-16.25c0-3.9-3.9-6.5-6.5-6.5s-3.9 1.3-5.2 2.6z" fill="#f05" stroke="#000"/></g></svg>