<svg viewBox="0 0 28 52" xmlns="http://www.w3.org/2000/svg"><g fill="none" fill-rule="evenodd"><path d="m5 51.29h18v-27.29l-2-3c-5-1-9 1-14 0l-2 2z" fill="#fa0"/><path d="m4 49v-23.43a5 5 0 0 1 2.1-4.07l4.06-2.9a2 2 0 0 0 .84-1.63v-1.97h-2a1 1 0 0 1 -1-1v-4a1 1 0 0 1 1-1h.5c.83 0 1.5-.67 1.5-1.5v-4.5a3 3 0 0 1 6 0v4.5c0 .83.67 1.5 1.5 1.5h.5a1 1 0 0 1 1 1v4a1 1 0 0 1 -1 1h-2v1.97a2 2 0 0 0 .84 1.63l4.07 2.9a5 5 0 0 1 2.09 4.07v23.43a3 3 0 0 1 -3 3h-14a3 3 0 0 1 -3-3zm3 2h14a2 2 0 0 0 2-2v-23.32a5 5 0 0 0 -2.23-4.16l-3.72-2.48a1 1 0 0 0 -1.55.83v26.63a1.5 1.5 0 0 1 -3 0v-26.63a1 1 0 0 0 -1.55-.83l-3.72 2.48a5 5 0 0 0 -2.23 4.16v23.32c0 1.1.9 2 2 2z" fill="#000"/><g fill="#0af" stroke="#000"><path d="m14 28.5c4 0 7-4 11-4 2 0 2 4.5 2 6.5s0 6.5-2 6.5c-4 0-7-4-11-4s-7 4-11 4c-2 0-2-4.5-2-6.5s0-6.5 2-6.5c4 0 7 4 11 4z"/><path d="m14 34c3 0 3 0 3-3s0-3-3-3-3 0-3 3 0 3 3 3z"/></g></g></svg>