<svg xmlns="http://www.w3.org/2000/svg" viewBox="0 0 28 52">
  <g fill="none" fill-rule="evenodd">
    <path fill="#FA0" d="M5 51.3h18V24l-2-3c-5-2-9 2-14 0l-2 2v28.3z"/>
    <path fill="#000" d="M4 49V25.6a5 5 0 0 1 2-4.1l4.2-2.9c.5-.4.8-1 .8-1.6v-2H9a1 1 0 0 1-1-1v-4c0-.6.4-1 1-1h.5c.8 0 1.5-.7 1.5-1.5V3a3 3 0 0 1 6 0v4.5c0 .8.7 1.5 1.5 1.5h.5c.6 0 1 .4 1 1v4c0 .6-.4 1-1 1h-2v2c0 .6.3 1.2.8 1.6l4.1 2.9a5 5 0 0 1 2.1 4V49a3 3 0 0 1-3 3H7a3 3 0 0 1-3-3zm3 2h14a2 2 0 0 0 2-2V25.7a5 5 0 0 0-2.2-4.2L17 19a1 1 0 0 0-1.6.9v26.6c0 .8-.7 1.5-1.5 1.5s-1.5-.7-1.5-1.5V19.9a1 1 0 0 0-1.6-.9l-3.7 2.5A5 5 0 0 0 5 25.7V49c0 1.1.9 2 2 2z"/>
    <g fill="#0AF" stroke="#000">
      <path d="M10.6 38.8C6.6 41 4.1 42 3 42c-2 0-2-1-2-2s1-3.8 1-5c0-2-1-4-1-5s0-2 2-2c1 0 3.6 1 7.6 3.2A5 5 0 0 1 14 30a5 5 0 0 1 3.4 1.2c4-2.1 6.5-3.2 7.6-3.2 2 0 2 1 2 2s-1 3.8-1 5c0 1.2 1 4 1 5s0 2-2 2c-1 0-3.6-1-7.6-3.2A5 5 0 0 1 14 40a5 5 0 0 1-3.4-1.2z"/>
    </g>
  </g>
</svg>
