<svg xmlns="http://www.w3.org/2000/svg" viewBox="0 0 28 60">
  <g fill="none" fill-rule="nonzero">
    <path fill="#FA0" d="M5 59h18V20c-11 2-8-2-18 0v39z"/>
    <path fill="#000" d="M4 57V17.4c0-.3.1-.5.3-.7l.2-.2c.3-.3.3-.7 0-1l-.2-.2a1 1 0 0 1-.3-.7V8c0-.6.3-1.2.8-1.6l7.7-6a2 2 0 0 1 1.2-.4h.6c.5 0 .9.1 1.2.4l7.7 6c.5.4.8 1 .8 1.6v6.6c0 .3-.1.5-.3.7l-.2.2c-.3.3-.3.7 0 1l.2.2c.2.2.3.4.3.7V57a3 3 0 0 1-3 3H7a3 3 0 0 1-3-3zm3 2h14a2 2 0 0 0 2-2V20a2 2 0 0 0-2-2H7a2 2 0 0 0-2 2v37c0 1.1.9 2 2 2z"/>
    <g fill="#F05" stroke="#000">
      <path d="M15.3 31.6l-1 1h-.7l-.9-1c-1.3-1.3-2.6-2.6-5.2-2.6C5 29 1 31.6 1 35.5c0 5.2 10.4 16.3 13 16.3 2.6 0 13-11.1 13-16.3 0-3.9-3.9-6.5-6.5-6.5s-3.9 1.3-5.2 2.6z"/>
    </g>
  </g>
</svg>
