<svg xmlns="http://www.w3.org/2000/svg" viewBox="0 0 26 58">
  <g fill="none" fill-rule="evenodd">
    <path fill="#FA0" fill-rule="nonzero" d="M4 57h18V26c-6-1-13 2-18 0v31z"/>
    <path fill="#000" d="M3 55V26a3 3 0 0 1 3-3h1v-7c0-.6.4-1 1-1h.1c.5 0 1-.4 1-.9L11 1c0-.5.5-.9 1-.9H14c.5 0 1 .4 1 .9L17 14c0 .5.5.9 1 .9h.1c.6 0 1 .4 1 1v7h1a3 3 0 0 1 3 3v29a3 3 0 0 1-3 3H6a3 3 0 0 1-3-3zm3-31a2 2 0 0 0-2 2v29c0 1.1.9 2 2 2h14a2 2 0 0 0 2-2V26a2 2 0 0 0-2-2H6z"/>
    <g fill="#A0F" stroke="#000">
      <path d="M13 54a12.5 12.5 0 1 0 0-25 12.5 12.5 0 0 0 0 25zm-.5-6.7L9 49.2A1 1 0 0 1 7.5 48l.6-4c.1-.4 0-.7-.2-1l-3-2.8a1 1 0 0 1 .6-1.7l4-.6c.4 0 .6-.2.8-.5l1.8-3.7a1 1 0 0 1 1.8 0l1.8 3.7c.2.3.4.5.8.5l4 .6a1 1 0 0 1 .6 1.7l-3 2.9a1 1 0 0 0-.2.9l.6 4a1 1 0 0 1-1.4 1l-3.6-1.8a1 1 0 0 0-1 0z"/>
    </g>
  </g>
</svg>
