<svg viewBox="0 0 24 58" xmlns="http://www.w3.org/2000/svg"><g fill="none" fill-rule="evenodd"><path d="m3 57h18v-31c-10 1-8-1-18 0z" fill="#fa0" fill-rule="nonzero"/><path d="m2 55v-29a3 3 0 0 1 3-3h1v-7a1 1 0 0 1 1-1h.12a1 1 0 0 0 1-.87l1.76-13.26a1 1 0 0 1 1-.87h2.24a1 1 0 0 1 1 .87l1.76 13.26a1 1 0 0 0 1 .87h.12a1 1 0 0 1 1 1v7h1a3 3 0 0 1 3 3v29a3 3 0 0 1 -3 3h-14a3 3 0 0 1 -3-3zm3-31a2 2 0 0 0 -2 2v29c0 1.1.9 2 2 2h14a2 2 0 0 0 2-2v-29a2 2 0 0 0 -2-2z" fill="#000"/><path d="m12 53a11.5 11.5 0 1 0 0-23 11.5 11.5 0 0 0 0 23zm.04-5.74-3.63 1.9a1 1 0 0 1 -1.45-1.06l.68-4.03a1 1 0 0 0 -.28-.89l-2.93-2.86a1 1 0 0 1 .55-1.7l4.06-.6a1 1 0 0 0 .75-.55l1.81-3.66a1 1 0 0 1 1.8 0l1.81 3.66c.15.3.43.5.75.55l4.06.6a1 1 0 0 1 .55 1.7l-2.93 2.86a1 1 0 0 0 -.28.89l.68 4.03a1 1 0 0 1 -1.45 1.05l-3.63-1.9a1 1 0 0 0 -.92 0z" fill="#a0f" stroke="#000"/></g></svg>