<svg viewBox="0 0 100 100" xmlns="http://www.w3.org/2000/svg"><g fill="none"><path d="m0 50v-50h100v100h-100z" fill="#ffeae6"/><path d="m28.8 60.2c1.6-.3 3.6-2.1 3.6-3.3 0-1-1-2.2-1.9-2.2-.5 0-.5 0 0-.6.6-.7.8-1.7.3-2.3-.8-1.3-3.5-1.5-5.7-.4-1.4.7-1.5.9-1.4 2 0 .6.5 2.4 1 4 .8 2.9 1.2 3.3 2.4 3.1zm46.2-1c1.2-1.4 1-2.4-1.2-4.6-1-1.1-1-1.3-.5-1.5.3-.1.7 0 .9.3.3.7 1.7.8 2.2.1.3-.4.2-.7-.5-1.5-2.5-2.7-7.6-.9-6.4 2.3.2.5.8 1.3 1.3 1.9 1.2 1.2.8 1.9-.6 1-1.6-1.1-2.5.3-1 1.7 1.7 1.7 4.5 1.8 5.8.2zm-8.6-.7c1.2-.6 1.2-.8.5-2.3-.5-1-.5-1.1.3-2 1.5-1.4 1-3.9-1-4.7-1.3-.6-4.4-.6-5.2 0-.7.5-1.2 2.4-1.4 5.6-.3 2.5-.2 2.5.6 3 1 .4 2.6 0 2.6-.6 0-.7.2-.6 1.2.5s1 1.2 2.4.5zm-29.2-.8c.4-1.2.9-1.3 1.7-.4.6.8 1.3.9 2.2.4.8-.5.9-2.7.1-5.4-.8-2.8-1.6-3.6-3.8-3.6-1.4 0-1.8.1-2.6.9-1.4 1.4-1.9 3.4-1.4 6 .4 2.6.8 3 2.3 3 1 0 1.2-.1 1.5-1zm9.2-.7c.2-.4.3-1 .2-1.5-.3-1.2-.1-1 1.1.7 1 1.5 2 1.8 2.7 1 .6-.5.4-1.8-.3-3.2l-.7-1.3.8-1.2c1-1.6 1.2-3 .3-3.5-1.6-.8-2.8-.1-3.6 2.1l-.4 1v-1.1c0-1-.2-1.3-.8-1.6-1.1-.5-2.5.1-2.8 1.2-.3 1.3 0 6.6.5 7.4.5 1 2.5 1 3 .1zm10.9-.1c1-.9 1-1.9-.2-1.9-1.3 0-1.1-1.2.3-1.4.4 0 1-.4 1.2-.7.5-.8-.7-1.7-1.8-1.4-.6.2-.7 0-.6-.4 0-.3.5-.7 1-.8 1.1-.3 1.7-1 1.4-1.7-.1-.1-1.4-.3-2.9-.3-2.5 0-2.6 0-3 1-.2.5-.4 2.2-.4 3.9 0 2.6 0 3.2.6 3.8.9 1 3.2 1 4.4-.1zm-11.5-12c.2-.3.3-1.2.2-2 0-1.2 0-1.4.7-1.5.5 0 .7-.3.7-.7-.3-1.3-5.1-1.3-5.1.1 0 .5.2.7.7.8.7.1.8.3.8 1.7 0 1.6.2 2 1.2 2zm6.8-.3c.7-1 .7-4.5 0-4.8-.8-.3-1.7.3-1.7 1 0 .4-.2.7-.4.8-.3 0-.4-.2-.4-.9 0-.9-.1-1-.8-1-.4 0-1 .1-1.1.4-.5.5-.6 3.4-.1 4.3.5.8 2 .8 2 0 0-.4.2-.7.5-.7s.4.1.3.3c-.2.4.4 1.3.9 1.3.1 0 .5-.3.8-.7zm4.7.2c.6-.4.6-.5 0-1-.7-.5-.7-.7.1-.9 1-.3.9-1.2-.2-1.3l-1-.1 1-.4c.5-.2.9-.6.9-.7 0-.9-3.2-.8-3.7 0a7 7 0 0 0 -.3 2.3c0 1.5.1 2 .6 2.3.8.5 1.8.4 2.6-.2zm-29.6 13c-.5-.4-.3-1.5.2-1.5.3 0 .5.3.5.9 0 .8-.3 1-.7.6zm-.7-3.4c-.4-.4-.2-1.4.3-1.4.2 0 .5.3.5.6 0 .7-.5 1.2-.8.8zm36-1.2c0-1.4 1.1-2.1 1.6-1 .1.4 0 .8-.4 1-.7.6-1.1.6-1.1 0zm-26 .9c-.3-.3-.3-2.7 0-2.9.4-.2.8.9.8 2.2 0 .9-.3 1.2-.8.7z" fill="#333"/></g></svg>