<svg xmlns="http://www.w3.org/2000/svg" viewBox="0 0 100 50">
  <path d="M29.8 6.7H18.7v31.5h-7.5V6.7H0V0h29.8v6.7zm4.7 19.6l1 4.2h.3l.7-4.3L40.6 11H48l-8.3 24.7-2 5.6c-.7 1.6-1.4 3.1-2.1 4.3a9.9 9.9 0 0 1-2.6 3c-1 .6-2 1-3.3 1-1.9 0-3.4-.4-4.5-1l1.3-5.7a3.6 3.6 0 0 0 4-.7c.8-.7 1.4-2 1.8-3.9L21 11h8.5l5 15.4zm23.3-15.4v6.2c0 1.2 0 2.2.2 3 0 .8.2 1.5.5 2s.7 1 1.2 1.2a9 9 0 0 0 4.7 0c.7-.3 1.4-.6 1.9-1V11h7.1v27.3h-7.1V27.5c-.5.4-1.4.9-2.5 1.4-1.1.5-2.6.7-4.5.7-1.4 0-2.6-.1-3.6-.4a6 6 0 0 1-2.7-1.6 7 7 0 0 1-1.7-2.9c-.4-1.2-.6-2.7-.6-4.5V11h7.1zm20.3 1.6a33.4 33.4 0 0 1 11.5-2.1c1.9 0 3.4.2 4.7.7 1.3.4 2.3 1 3 1.9.8.8 1.3 1.8 1.6 3 .3 1.2.5 2.5.5 4s0 3.1-.2 4.8a85.9 85.9 0 0 0 0 9.3c0 1.5.4 2.9.8 4.2h-5.8l-1.1-3.8h-.3a9.7 9.7 0 0 1-3 3c-1.3.8-3 1.2-5 1.2-1.3 0-2.5-.2-3.5-.6a7.4 7.4 0 0 1-4.9-7.4c0-1.7.4-3 1.1-4.2.8-1.2 1.8-2.1 3.2-2.8a16 16 0 0 1 5-1.5c2-.3 4.2-.4 6.6-.2.3-2 .1-3.5-.4-4.4-.6-1-1.8-1.4-3.7-1.4a25 25 0 0 0-8.4 1.6L78 12.5zm9 20.3c1.4 0 2.6-.3 3.4-1 .8-.6 1.5-1.3 1.9-2v-3.5c-1.2-.1-2.3-.2-3.3 0-1 0-2 .2-2.8.4-.8.3-1.4.6-1.9 1.1-.4.5-.7 1-.7 1.8 0 1 .3 1.8 1 2.4.5.5 1.4.8 2.4.8z"/>
</svg>
