<svg height="100" viewBox="0 0 100 100" width="100" xmlns="http://www.w3.org/2000/svg"><g fill="none" fill-rule="evenodd"><path d="m25 50c-13.8071187 0-25-11.1928813-25-25s11.1928813-25 25-25 25 11.1928813 25 25-11.1928813 25-25 25z"/><path d="m42.7370376 83.2503308-.4319244 1.2601817c-.3735581 1.0898923-.928334 1.957092-1.6643444 2.6016252-.7360103.6445332-1.8707563 1.2061924-3.4042718 1.6849946-1.4692073.4377963-2.4830574.8574926-3.0415808 1.2591014-.5585233.4016088-.9506248.9316436-1.1763161 1.5901202-.25293.7379479-.176435 1.3944697.2294872 1.969585s1.0910321 1.0320788 2.0553502 1.3709041c1.6819501.5909744 3.7900119.7083843 6.3242486.3522331l.5550538 4.3736155c-2.9869029.5405484-5.8819361.3183474-8.6851863-.6666097-2.3098782-.8116048-3.9533665-2.0187095-4.9305144-3.6213502-.9771478-1.6026407-1.1446927-3.3405612-.5026397-5.2138135.4280353-1.248835 1.0780174-2.2288638 1.9499658-2.9401159.8719485-.7112521 2.287373-1.3587327 4.2463162-1.9424611 1.3527254-.4278425 2.2440282-.8015567 2.6739353-1.1211537.429907-.319597.7615925-.8199794.9950663-1.5011621l.3502089-1.0217689zm2.5344124-5.634972c-.3268634.9536558-.8262415 1.5859185-1.4981494 1.8968071-.671908.3108886-1.4900087.2969204-2.4543268-.0419049-.930679-.3270058-1.5654978-.8298993-1.9044752-1.5086955s-.3489255-1.4836571-.0298447-2.4146067c.3074072-.8968906.8075278-1.5129923 1.5003768-1.8483237s1.4989945-.341464 2.4184605-.018398c.9418921.3309457 1.5841477.8396322 1.926786 1.5260748.3426383.6864427.3563624 1.4894503.0411728 2.4090469zm-26.8676098-16.9241871-1.2900821.2704837c-1.1157524.233933-2.1355474.1961712-3.0594157-.1132865-.9238683-.3094578-1.9818508-1.008037-3.1739795-2.0957588-1.12438949-1.0528355-2.00001095-1.7190853-2.62689059-1.9987694-.62687964-.2796842-1.27735988-.3488579-1.95146024-.2075234-.7554573.1583921-1.27299749.5614296-1.55263609 1.2091246-.27963861.647695-.31596741 1.4775359-.10898749 2.4895475.36101149 1.7651366 1.34204845 3.6579607 2.94314031 5.6785289l-3.42444533 2.7244748c-1.98950625-2.3195695-3.28508284-4.950262-3.88676865-7.8921563-.49578911-2.4241209-.31458624-4.4716527.54361404-6.1426568.85820028-1.671004 2.24612925-2.7075267 4.16382855-3.109599 1.2784662-.2680483 2.44274721-.205356 3.49287798.1880787 1.05013076.3934347 2.32477001 1.2920289 3.82395611 2.6958095 1.0562392.9566745 1.8300479 1.5399588 2.3214494 1.7498703.4914015.2099116 1.0857659.2417628 1.7831111.0955547l1.0460126-.2193111zm6.0777948-.6852323c-.9762833.2046913-1.7684468.0946594-2.3765143-.3300991-.6080675-.4247584-1.0155851-1.1431327-1.222565-2.1551444-.1997597-.9767089-.0987013-1.7863733.3031784-2.4290173.4018797-.6426441 1.0793286-1.0638687 2.032367-1.2636865.9181712-.1925073 1.6970102-.0735458 2.3365405.3568883s1.0579657 1.1281113 1.2553186 2.0930527c.2021665.9884765.1000075 1.8075755-.30648 2.4573218-.4064875.6497462-1.0804292 1.0733035-2.0218452 1.2706845zm.5282255-32.0159175-.8933486-.9803951c-.7726298-.8479134-1.2658179-1.7524572-1.4795793-2.7136583-.2137613-.9612012-.1671421-2.2391864.1398592-3.8339941.3123485-1.5180505.425506-2.6211128.339476-3.30922-.0860301-.6881072-.3624395-1.2882924-.8292366-1.8005734-.5231347-.5741081-1.1308764-.81574-1.8232431-.7249029-.6923668.090837-1.413649.4866456-2.1638683 1.1874375-1.3085221 1.2223116-2.4058577 3.0485086-3.2920398 5.4786458l-4.0701111-1.5691263c.9393079-2.9212239 2.4993735-5.4003917 4.6802436-7.4375777 1.797037-1.6786413 3.6238668-2.57577929 5.480544-2.69144094 1.8566773-.11566165 3.4489708.55517304 4.7769281 2.01252434.8853049.9715675 1.4317912 2.0143515 1.6394753 3.1283832.2076841 1.1140318.1032953 2.6830578-.3131693 4.7071251-.2660301 1.4093821-.3613759 2.3813551-.2860402 2.915948.0753356.534593.354446 1.0668544.8373396 1.5968003l.7243367.7949149zm3.7099945 4.9221526c-.676051-.7419243-.9908303-1.4861193-.9443474-2.2326073.0464828-.7464881.444828-1.4701172 1.1950473-2.1709092.7240489-.6763458 1.4615824-1.0055841 2.2126228-.987725.7510403.0178591 1.4565271.3889129 2.1164817 1.1131723.6358099.6977621.9361674 1.434991.9010816 2.2117089s-.4102858 1.4991645-1.1256112 2.1673615c-.7327724.6844945-1.4788604 1.0176362-2.2382866.9994353-.7594262-.018201-1.4650819-.3850095-2.1169882-1.1004365zm27.4044708-15.9826319.3717248-1.2797083c.3214933-1.1067802.8345461-1.9999254 1.5391739-2.6794623.7046277-.6795369 1.8114582-1.2956606 3.3205247-1.8483896 1.4467751-.508647 2.4395747-.9770996 2.9784285-1.40537185.5388537-.42827222.9053929-.97673996 1.0996285-1.64541968.2176777-.74938245.1101674-1.40143338-.3225342-1.95617234-.4327016-.55473897-1.138672-.97790283-2.1179322-1.26950428-1.708012-.50860718-3.8192096-.52350006-6.3336561-.0446791l-.7616193-4.34162373c2.9578556-.68499075 5.8600833-.60364803 8.70677.2440306 2.3456698.6984872 4.0444541 1.82438337 5.0964039 3.3777223 1.0519497 1.55333894 1.3016375 3.28112175.7490709 5.18340027-.3683778 1.26818571-.9711819 2.27865391-1.8084303 3.03143511-.8372485.7527811-2.2203687 1.468259-4.1494021 2.146455-1.3308988.4930476-2.2034706.9096193-2.6177415 1.2497277-.4142709.3401083-.7218685.8560235-.9228018 1.5477612l-.3013985 1.0376013zm-2.2645325 5.7515738c.2813066-.9684327.7501559-1.6242208 1.4065617-1.967384.6564058-.3431631 1.4742266-.3689436 2.4534868-.0773421.9451.2814293 1.603013.7529127 1.9737589 1.4144645s.4188137 1.465003.1442048 2.4103778c-.2645622.9107879-.7349187 1.5504697-1.4110835 1.9190645-.6761648.3685949-1.4810917.4138723-2.414805.1358338-.9564867-.2848201-1.6221025-.7617287-1.9968673-1.4307404-.3747648-.6690116-.4265164-1.4704283-.1552564-2.4042741zm27.6311385 15.6167705 1.275898-.332374c1.1034849-.2874599 2.1238991-.2989071 3.0612731-.0343416.937374.2645654 2.0270104.9113451 3.2689419 1.9403584 1.1726286.9974324 2.0785903 1.6207113 2.7179123 1.8698552.639322.249144 1.2923175.2868785 1.9590063.1132048.7471513-.1946344 1.2451497-.6221662 1.4940102-1.2826084.2488606-.6604421.246121-1.4910932-.0082186-2.491978-.4436158-1.7457294-1.5125587-3.5891088-3.206861-5.5301937l3.2924298-2.8864827c2.096338 2.2210208 3.5141655 4.7862672 4.253525 7.6958162.6092322 2.3974683.5245292 4.4514136-.2541104 6.1618975-.7786401 1.7104839-2.1162474 2.8127452-4.0128621 3.3068171-1.2644098.3293812-2.4303185.322892-3.4977612-.0194678-1.0674426-.3423598-2.3828966-1.1784821-3.9464014-2.508392-1.1000331-.9046662-1.9003957-1.4499822-2.4011118-1.6359643-.5007162-.1859821-1.0959044-.1891419-1.7855824-.0094794l-1.0345119.2694924zm-6.0386743.977476c.9655493-.2515275 1.761989-.179812 2.389343.2151487s1.0681942 1.092873 1.3225339 2.0937579c.2454673.9659702.1826017 1.7795883-.1885988 2.4408787-.3712004.6612904-1.0280708 1.1146982-1.9706308 1.3602369-.9080762.2365556-1.6916265.1552782-2.3506745-.2438348-.659048-.3991129-1.1098202-1.0758253-1.3523302-2.0301573-.2484248-.9776085-.1849036-1.8007037.1905655-2.4693104.3754691-.6686066 1.0287265-1.1241753 1.9597919-1.3667197zm.97139 32.0013109.9378052.9368679c.8110789.8102682 1.3456488 1.6903817 1.6037259 2.6403671.258077.9499855.2707431 2.2287778.0379986 3.8364154-.2416434 1.531219-.3035499 2.6384427-.1857212 3.3217041.1178287.6832615.4217519 1.2696519.9117787 1.7591889.549168.5486191 1.1674395.7611082 1.8548332.6374738s1.3895358-.5532783 2.1064472-1.2889445c1.2504269-1.2831387 2.2619102-3.159463 3.0344803-5.6290293l4.138355 1.3740083c-.8028757 2.9626362-2.2463143 5.5131983-4.3303591 7.6517628-1.7172529 1.7621772-3.5004881 2.7451276-5.3497589 2.9488809-1.8492709.2037533-3.4709029-.3906853-4.8649446-1.7833337-.9293612-.9284323-1.523578-1.9441013-1.782668-3.0470377-.2590901-1.1029364-.22754-2.6751937.0946513-4.7168191.2004128-1.4204696.2506031-2.395902.1505723-2.9263265-.1000307-.5304244-.4035037-1.0488376-.910428-1.5552552l-.7603826-.7596226zm-3.9340464-4.7404511c.709694.7089846 1.0586196 1.4374031 1.0467873 2.1852773s-.3761987 1.4896333-1.0931101 2.2252995c-.6919029.7100034-1.4133639 1.0739226-2.1644045 1.0917684s-1.4729484-.3192782-2.1657449-1.0113823c-.6674503-.6667831-1.0016471-1.3889285-1.0026004-2.1664577-.0009534-.7775292.3403482-1.5170073 1.0239149-2.2184565.700239-.7185576 1.4300642-1.0867824 2.1894972-1.1046852.7594331-.0179028 1.4813127.3149727 2.1656605.9986365z" fill="#0d111a"/></g></svg>