<svg xmlns="http://www.w3.org/2000/svg" viewBox="0 0 100 74">
  <path d="M86.6 50.8c-.7.4-1.4.4-2 0-1-.5-1.5-2.1-1.7-4.6-.2-3.5.4-6.1 1.6-7.2.5-.4 1-.6 1.4-.5 1 .2 1.7.7 2.2 1.3 0 3.1.1 5.2.3 6.3 0 2-.4 3.8-1.8 4.7zM63.2 61.6H63c-.8.5-1.5.5-2 .2-1-.5-1.6-2.2-1.8-4.7-.2-3.7.5-6.5 1.8-7.4.5-.3 1-.4 1.7-.2 1.8 1 2.9 3.4 2.8 6.2v.5c-.2 2.3-1 4.2-2.4 5.4zm-10.5-5.9v-1.3-4.1c0-2.3.5-3.3 1-3.5.2 0 .5.2.6.4.7 1.4-.6 5.2-1.6 8.5zM29 69.9a1 1 0 0 1-1 0c-.6-.3-1-1.3-1-2.8-.2-2.2.2-3.9 1-4.5.2-.2.5-.2.8-.1h.2l.8.6c0 1.4 0 2.9.3 4 0 1.1-.3 2.3-1.1 2.8zm-8-6.2H21zm1.7 2v-1.6-1.3c0-1.5.4-2 .6-2.1l.3.1c.2.6.6 2.2-.9 5zM52.7 42c-.7.5-1.4.4-2 .1-.9-.5-1.5-2.2-1.6-4.6-.3-5.2 1-6.9 1.6-7.4.5-.3 1-.4 1.5-.3a4 4 0 0 1 2 1.2c0 2.2 0 4.6.3 6.4 0 1.9-.5 3.8-1.8 4.6zm-9.3-6a1 1 0 0 1-.9-.3c-.3-.4-.5-1.1-.5-2.1 0-1.4.4-1.7.5-1.7.4 0 1.1.8 1.3 2.2V36h-.4zM23.9 46.7c-1.3-.1-2-3-2-5.8 0-3 .9-4 1.2-4 .2 0 .5.3.6 1v.5c.3 3.1.3 5.8.2 8.3zM100 33a17.2 17.2 0 0 0-1.9-5.7 14.6 14.6 0 0 0-12.2-7.7 17.8 17.8 0 0 0-6 .5l-2.7.9a24.6 24.6 0 0 0-3.4-7.8 17.8 17.8 0 0 0-6.4-5.6 16.9 16.9 0 0 0-8.4-1.8 22.2 22.2 0 0 0-8.3 1.8C49.6 6.3 48.4 5 47 4A17 17 0 0 0 37.4 0a19 19 0 0 0-14.5 5.1 14.5 14.5 0 0 0-3 4.3c-.8 1.6-1.2 3.3-1.2 5.1v-.7l.2-.6.2-.6c0-.2 0-.4.2-.6a13.7 13.7 0 0 1 4.2-6.2 16.6 16.6 0 0 1 6.6-3.4 18.1 18.1 0 0 1 9.4-.2 15.3 15.3 0 0 1 9.1 6.8l1 1.5 1.8-.7A25.8 25.8 0 0 1 59 8.5a17 17 0 0 1 7 1.6 14.4 14.4 0 0 1 5.5 4.7 18.4 18.4 0 0 1 3 7l.7 3 2.8-1.2a19.8 19.8 0 0 1 7.7-1.4 14.2 14.2 0 0 1 7.1 2.4 12.5 12.5 0 0 1 3.5 3.7 14.8 14.8 0 0 1 2.2 6.3v.7l.1.4v.3a16.5 16.5 0 0 1-.7 5.6c-.5 1.4-1 3-2.3 4.3-.6.6-2.3 1.7-3.2 1.5-.4 0-.8-.4-1-.9-.3-1.3-.3-9.4-.3-15.3V29c0-.3-.2-.5-.3-.6a.8.8 0 0 0-.5-.2c-1 0-2.3 1-2.3 2.4v8.2L87 38l-.8-.2A4.4 4.4 0 0 0 82 39c-1 1-2.3 3.2-2 7.4 0 1.7.4 3.1 1 4.2 0 .7-.2 1.3-.4 1.7-.4 1-1 1.6-1.8 1.6-.6 0-1-.4-1.2-1-.5-1.3-.5-3.5-.5-8.4v-2.2c0-.5-.3-.9-.8-.9-.9 0-2.2 1.1-2.2 2.5v1c0 2.5 0 4.9.2 6.8 0 1.8-.3 3-.7 4-.4 1-1.2 1.6-1.9 1.5-.5 0-1-.5-1.1-1.1-.4-1.3-.4-3.5-.4-8.3v-2.3c0-.3-.2-.5-.3-.6a.8.8 0 0 0-.5-.2c-1 0-2.3 1-2.3 2.4v.7c0 2-.4 3.2-.8 4.5l-.2.7c-.5-1.9-1.5-3.4-2.9-4l-.1-.2-1.3-.3c-1.3 0-2.5.4-3.4 1.3-1.1 1-2.3 3.2-2 7.4 0 1 .1 2 .4 2.8 0 1.3-.2 2.8-.7 4-.2.5-.9 1.5-1.8 1.5-1.4 0-1.6-2.3-1.6-4.7a23 23 0 0 0 0-2.5l.6-2.1c1.2-4 2.3-7.6 1.7-9.4-.3-.6-.8-1.2-2.1-1-2 .3-3.3 2.6-3.3 6.2v3.9c0 2 0 4.1.2 6.2V63c-.4 2-1.4 3.8-2.7 5.4-1 1-2.1 1.5-3 1.1-1.4-.6-2.3-3.4-2.3-7.4 0-6.6.6-9.7 2-10.9.7-.4 1-.7 2-.5h.1c.8.2.8.7.7 1.5 0 .5 0 1 .2 1.3.2.2.4.3.8.3.5 0 1-.4 1-1 .3-.9-.7-2.3-2-2.7-.5-.2-.7-.3-1.1-.3-1.7-.1-3.1.4-4.3 1.4-1 1-1.9 2.5-2.4 4.4l-.2.6c-1.2 3.4-3 9-4.4 10.8-.5.6-.9 1-1.2.9-.3 0-.5-.3-.6-.6-.3-.8-.3-2.3-.3-5.2a809.3 809.3 0 0 0-.2-2 .7.7 0 0 0-.4-.1c-.6 0-1.6.7-1.6 1.7v.4a3 3 0 0 0-.6-.3H29a3 3 0 0 0-2.9.7c-.7.6-1.5 2-1.3 4.7 0 .7.1 1.3.3 1.8 0 1-.2 1.9-.5 2.5-.3.5-.6.8-1 .8-.3 0-.5-.3-.6-.6a25 25 0 0 1-.3-4.5c1-1.4 2.5-4.4 1.6-6.7-.1-.3-.5-1-1.6-.8-1.6.3-2.2 2.2-2.2 4v5a15.2 15.2 0 0 1-5.5 3.3 10 10 0 0 1-5.3.1 9.9 9.9 0 0 1-6.5-5A12.7 12.7 0 0 1 2 63c-.3-1.4-.3-2.9-.2-4.3.2-1.4.5-2.8 1.1-4a9.3 9.3 0 0 1 2.7-3.3 18.9 18.9 0 0 1-2.2-6.3c-.2-1.1-.1-2.2 0-3.3a9.7 9.7 0 0 1 3.2-5.7c.8-.7 1.8-1.3 2.8-1.8a13.3 13.3 0 0 1 4.5-1h2v-2.1-.3a16.4 16.4 0 0 1 2-6.8 13.4 13.4 0 0 1 7.3-6 16.1 16.1 0 0 1 9.4-.6c1.6.4 3 1 4.4 2 1.3.8 2.5 1.9 3.4 3.2l1.5-1a17.7 17.7 0 0 1 8-3 14.8 14.8 0 0 1 6.6 1c1.1.4 2 1 3 1.7a9.2 9.2 0 0 1 3 6 12.4 12.4 0 0 1 0 3.5 13.2 13.2 0 0 1-2.8 6.3c-1 1-2.2 1.5-3 1.3-.5 0-.8-.4-1-.8-.4-1.3-.4-3.6-.4-8.4V27c0-.5-.3-.8-.8-.8-1 0-2.3 1.1-2.3 2.4V30c-.4-.4-1-.6-1.6-.8h-.1a4.4 4.4 0 0 0-4.2 1c-1 1-1.8 2.5-2 4.4a6 6 0 0 1-1.6 1.1 75.5 75.5 0 0 0 0-1.6c-.3-2.3-1.5-3.1-2.5-3-1 0-2 1-2 2.5 0 1.3.3 2.2 1 2.8.5.5 1.4.7 2.3.5h.4c-.1 4-.7 7-1.7 9l-.1.2-.5.8c-.5.6-1 1-1.6 1-.6 0-1.2-.5-1.4-1-.4-1.4-.4-3.6-.4-8.5v-2.2c0-.5-.3-.8-.8-.8-.9 0-2.3 1-2.3 2.4v1c0 2.5 0 5 .3 7 0 1.6-.3 3-.7 3.8-.5 1-1.2 1.6-1.9 1.5-.5 0-1-.5-1.1-1-.5-1.4-.5-3.6-.5-8.5a1379.4 1379.4 0 0 0-.2-2.8.8.8 0 0 0-.6-.2c-.9 0-2.2 1-2.2 2.4v.6c0 3-1.7 4.7-3.4 5.1l-.1-7.9-.1-1c-.3-1.7-1.2-2.7-2.3-2.6-1.4.1-2.8 2-2.8 5.8 0 4.7 2.4 6.5 4.4 6.5a44.9 44.9 0 0 1-1 7c-1 1.9-2.5 2.5-3.5 2.4-1 0-1.7-.7-2-1.6-.6-2-.6-5.5-.6-13v-3.6c0-.6-.4-1-1-1-1.4 0-3.4 1.6-3.4 3.5v1.5c0 5 0 9.6.9 12.8a4.7 4.7 0 0 0 2.5 3.1c.6.3 1.2.5 1.9.5.8 0 1.6-.2 2.3-.6 1.8-.9 2.9-2 3.6-3.7l.7-3c.2-1.4.4-2.8.4-4.3a4.9 4.9 0 0 0 3.5-2.7c0 2.1.1 4 .5 5.4.3 1 .8 1.8 1.7 2.2l1.2.2c.5 0 1 0 1.7-.3a4 4 0 0 0 2.1-2.3c.3-.6.5-1.3.6-2.2.5 1 1.4 1.7 2.5 1.7.6 0 1.2-.2 1.8-.5.7-.3 1.3-.9 1.9-1.6l.5-.9c1.2-2.2 1.9-5.5 2-10 .5-.1 1-.4 1.5-.8v2c.2 3.8 1.8 6.1 4.2 6.1h.2c1 0 1.8-.4 2.6-1 1-.9 1.7-2.2 2-3.6.3.5.8.9 1.3 1.1.3.2.7.2 1 .2a4 4 0 0 0 1.8-.4 10.7 10.7 0 0 0 5-5.5 13.5 13.5 0 0 0 1-5.2v-1.9a11 11 0 0 0-1.8-5.3L62 20.7c-.9-1-2-1.7-3.1-2.2a14 14 0 0 0-7.5-1.3 18.2 18.2 0 0 0-8.8 3.1 12.4 12.4 0 0 0-2.8-2.4 18 18 0 0 0-20.4 1 15.6 15.6 0 0 0-5.5 9.3l-.4 2.7v.3a17.7 17.7 0 0 0-5.1 1.2C7.3 33 6 33.7 5 34.5a11.2 11.2 0 0 0-3.8 7c-.2 1.4-.2 2.7 0 4A16.7 16.7 0 0 0 3 51l-.6.7c-.5.7-1 1.4-1.3 2.2a15.9 15.9 0 0 0 1 13.7 12 12 0 0 0 5.2 4.7l2.2.7h.6l.5.1h1.5c3.6 0 6.7-2 8.5-3.6l.2 2.3c.2.7.6 1.2 1.1 1.4.3.2.6.2 1 .2a2.7 2.7 0 0 0 2.4-1.7l.4-1.6a2.3 2.3 0 0 0 2 1c.6 0 1.2-.3 1.7-.7.6-.5 1-1.2 1.3-2l.6.5.8.1c.3 0 .7 0 1.1-.3.7-.3 1.1-.7 1.5-1.3 1-1.5 2.3-4.7 3.3-7.6v2.6c0 5 1.9 8.8 4.6 9.1h.3c1.5 0 3.2-1 4.7-2.7 1-1.3 1.9-2.7 2.4-4.2l.4.9c.6 1 1.6 1.4 2.5 1.4a4 4 0 0 0 1.7-.4c.9-.4 1.6-1.1 2-2.1l.1-.2c.4-.9.6-1.9.7-2.9.7 1.3 1.8 2 3.1 2h.2c1-.1 1.9-.5 2.7-1.1a8.3 8.3 0 0 0 2.9-6v-.2-.2-.2a12.2 12.2 0 0 1 .7-3.5c0 1.6.2 3 .5 4.1.3 1 .9 1.8 1.7 2.2l1.2.2c.5 0 1.1-.1 1.7-.4a4 4 0 0 0 2.1-2.2c.3-.6.5-1.4.6-2.2.5 1 1.4 1.7 2.6 1.7.5 0 1-.2 1.7-.5 1-.5 1.6-1.3 2.1-2.5l.4-1.2a3.5 3.5 0 0 0 2.7 1c1 0 1.9-.3 2.7-1 1-.9 1.6-2.1 2-3.5.2.5.6.9 1.1 1l1.2.3c.5 0 1.1-.1 1.7-.4 3.9-2 5.1-5.3 5.7-6.9a20 20 0 0 0 1.2-5.8c0-1 0-2-.2-3zm-71.2 4.3l.4.1c.7 0 1.4-.6 1.6-1.4.4-1 0-2-.8-2.3h-.4c-.7 0-1.4.5-1.6 1.3-.4 1 0 2 .8 2.3z"/>
</svg>
